<mxfile host="app.diagrams.net" modified="2023-05-19T22:01:24.136Z" agent="Mozilla/5.0 (Windows NT 10.0; Win64; x64) AppleWebKit/537.36 (KHTML, like Gecko) Chrome/112.0.0.0 Safari/537.36 OPR/98.0.0.0" etag="8ED926UDe2TzXpgB6jFt" version="21.3.2" type="google">
  <diagram name="Page-1" id="eWUMRTUhBYKFS7CwytTW">
    <mxGraphModel grid="1" page="1" gridSize="10" guides="1" tooltips="1" connect="1" arrows="1" fold="1" pageScale="1" pageWidth="850" pageHeight="1100" math="0" shadow="0">
      <root>
        <mxCell id="0" />
        <mxCell id="1" parent="0" />
        <mxCell id="J2QmCkhqGNMxqxDou6NT-37" style="edgeStyle=orthogonalEdgeStyle;rounded=0;orthogonalLoop=1;jettySize=auto;html=1;entryX=1;entryY=0.5;entryDx=0;entryDy=0;" edge="1" parent="1" source="J2QmCkhqGNMxqxDou6NT-2" target="Hhsv-AD_tMGytm9ESTO6-156">
          <mxGeometry relative="1" as="geometry">
            <Array as="points">
              <mxPoint x="-380" y="382" />
            </Array>
          </mxGeometry>
        </mxCell>
        <mxCell id="J2QmCkhqGNMxqxDou6NT-38" style="edgeStyle=orthogonalEdgeStyle;rounded=0;orthogonalLoop=1;jettySize=auto;html=1;entryX=1;entryY=0.5;entryDx=0;entryDy=0;" edge="1" parent="1" source="J2QmCkhqGNMxqxDou6NT-2" target="J2QmCkhqGNMxqxDou6NT-26">
          <mxGeometry relative="1" as="geometry">
            <Array as="points">
              <mxPoint x="-380" y="254" />
            </Array>
          </mxGeometry>
        </mxCell>
        <mxCell id="J2QmCkhqGNMxqxDou6NT-39" style="edgeStyle=orthogonalEdgeStyle;rounded=0;orthogonalLoop=1;jettySize=auto;html=1;entryX=0.996;entryY=0.415;entryDx=0;entryDy=0;entryPerimeter=0;" edge="1" parent="1" source="J2QmCkhqGNMxqxDou6NT-2" target="J2QmCkhqGNMxqxDou6NT-18">
          <mxGeometry relative="1" as="geometry">
            <Array as="points">
              <mxPoint x="-380" y="129" />
            </Array>
          </mxGeometry>
        </mxCell>
        <mxCell id="J2QmCkhqGNMxqxDou6NT-40" style="edgeStyle=orthogonalEdgeStyle;rounded=0;orthogonalLoop=1;jettySize=auto;html=1;entryX=1;entryY=0.5;entryDx=0;entryDy=0;exitX=0;exitY=0;exitDx=0;exitDy=85;exitPerimeter=0;" edge="1" parent="1" source="J2QmCkhqGNMxqxDou6NT-2" target="J2QmCkhqGNMxqxDou6NT-27">
          <mxGeometry relative="1" as="geometry">
            <Array as="points">
              <mxPoint x="-380" y="710" />
              <mxPoint x="-380" y="534" />
            </Array>
          </mxGeometry>
        </mxCell>
        <mxCell id="J2QmCkhqGNMxqxDou6NT-44" style="edgeStyle=orthogonalEdgeStyle;rounded=0;orthogonalLoop=1;jettySize=auto;html=1;entryX=-0.001;entryY=0.368;entryDx=0;entryDy=0;entryPerimeter=0;" edge="1" parent="1" source="J2QmCkhqGNMxqxDou6NT-2" target="J2QmCkhqGNMxqxDou6NT-20">
          <mxGeometry relative="1" as="geometry">
            <Array as="points">
              <mxPoint x="-380" y="218" />
            </Array>
          </mxGeometry>
        </mxCell>
        <mxCell id="J2QmCkhqGNMxqxDou6NT-46" style="edgeStyle=orthogonalEdgeStyle;rounded=0;orthogonalLoop=1;jettySize=auto;html=1;entryX=0;entryY=0.25;entryDx=0;entryDy=0;" edge="1" parent="1" source="J2QmCkhqGNMxqxDou6NT-2" target="J2QmCkhqGNMxqxDou6NT-28">
          <mxGeometry relative="1" as="geometry">
            <Array as="points">
              <mxPoint x="-380" y="397" />
            </Array>
          </mxGeometry>
        </mxCell>
        <mxCell id="J2QmCkhqGNMxqxDou6NT-51" style="edgeStyle=orthogonalEdgeStyle;rounded=0;orthogonalLoop=1;jettySize=auto;html=1;entryX=0;entryY=0.25;entryDx=0;entryDy=0;" edge="1" parent="1" source="J2QmCkhqGNMxqxDou6NT-2" target="J2QmCkhqGNMxqxDou6NT-25">
          <mxGeometry relative="1" as="geometry">
            <Array as="points">
              <mxPoint x="-380" y="549" />
            </Array>
          </mxGeometry>
        </mxCell>
        <mxCell id="J2QmCkhqGNMxqxDou6NT-53" style="edgeStyle=orthogonalEdgeStyle;rounded=0;orthogonalLoop=1;jettySize=auto;html=1;entryX=1.002;entryY=0.395;entryDx=0;entryDy=0;entryPerimeter=0;" edge="1" parent="1" source="J2QmCkhqGNMxqxDou6NT-2" target="J2QmCkhqGNMxqxDou6NT-31">
          <mxGeometry relative="1" as="geometry">
            <Array as="points">
              <mxPoint x="-381" y="670" />
            </Array>
          </mxGeometry>
        </mxCell>
        <mxCell id="J2QmCkhqGNMxqxDou6NT-56" style="edgeStyle=orthogonalEdgeStyle;rounded=0;orthogonalLoop=1;jettySize=auto;html=1;entryX=0;entryY=0.5;entryDx=0;entryDy=0;" edge="1" parent="1" source="J2QmCkhqGNMxqxDou6NT-2" target="J2QmCkhqGNMxqxDou6NT-19">
          <mxGeometry relative="1" as="geometry">
            <Array as="points">
              <mxPoint x="-236" y="750" />
              <mxPoint x="-236" y="717" />
            </Array>
          </mxGeometry>
        </mxCell>
        <mxCell id="J2QmCkhqGNMxqxDou6NT-57" style="edgeStyle=orthogonalEdgeStyle;rounded=0;orthogonalLoop=1;jettySize=auto;html=1;entryX=0.25;entryY=0;entryDx=0;entryDy=0;exitX=0;exitY=0;exitDx=20;exitDy=0;exitPerimeter=0;" edge="1" parent="1" source="J2QmCkhqGNMxqxDou6NT-2" target="J2QmCkhqGNMxqxDou6NT-24">
          <mxGeometry relative="1" as="geometry">
            <mxPoint x="-183.75" y="788.5" as="targetPoint" />
            <Array as="points">
              <mxPoint x="-290" y="750" />
              <mxPoint x="-139" y="750" />
            </Array>
          </mxGeometry>
        </mxCell>
        <mxCell id="J2QmCkhqGNMxqxDou6NT-58" style="edgeStyle=orthogonalEdgeStyle;rounded=0;orthogonalLoop=1;jettySize=auto;html=1;entryX=1;entryY=0.5;entryDx=0;entryDy=0;" edge="1" parent="1" source="J2QmCkhqGNMxqxDou6NT-2" target="J2QmCkhqGNMxqxDou6NT-30">
          <mxGeometry relative="1" as="geometry">
            <Array as="points">
              <mxPoint x="-380" y="880" />
              <mxPoint x="-443" y="880" />
            </Array>
          </mxGeometry>
        </mxCell>
        <mxCell id="J2QmCkhqGNMxqxDou6NT-59" style="edgeStyle=orthogonalEdgeStyle;rounded=0;orthogonalLoop=1;jettySize=auto;html=1;entryX=0;entryY=0.5;entryDx=0;entryDy=0;" edge="1" parent="1" source="J2QmCkhqGNMxqxDou6NT-2" target="J2QmCkhqGNMxqxDou6NT-29">
          <mxGeometry relative="1" as="geometry">
            <Array as="points">
              <mxPoint x="-380" y="880" />
              <mxPoint x="-349" y="880" />
            </Array>
          </mxGeometry>
        </mxCell>
        <mxCell id="J2QmCkhqGNMxqxDou6NT-2" value="SoftLayer-Python" style="verticalAlign=middle;align=center;spacingTop=8;spacingLeft=2;spacingRight=12;shape=cube;size=10;direction=south;fontStyle=4;html=1;whiteSpace=wrap;fontSize=39;fillColor=#fa6800;strokeColor=#C73500;fontColor=#000000;" vertex="1" parent="1">
          <mxGeometry x="-610" y="728" width="350" height="100" as="geometry" />
        </mxCell>
        <mxCell id="J2QmCkhqGNMxqxDou6NT-7" value="&lt;font style=&quot;font-size: 15px;&quot;&gt;Contains Scripts used for github actions and issue templates&lt;/font&gt;" style="text;html=1;align=left;verticalAlign=middle;whiteSpace=wrap;rounded=0;fillColor=#0050ef;strokeColor=#001DBC;fontColor=#ffffff;" vertex="1" parent="1">
          <mxGeometry x="-630" y="30" width="220" height="40" as="geometry" />
        </mxCell>
        <mxCell id="J2QmCkhqGNMxqxDou6NT-32" style="edgeStyle=orthogonalEdgeStyle;rounded=0;orthogonalLoop=1;jettySize=auto;html=1;entryX=0.5;entryY=1;entryDx=0;entryDy=0;fillColor=#dae8fc;strokeColor=#6c8ebf;" edge="1" parent="1" source="J2QmCkhqGNMxqxDou6NT-18" target="J2QmCkhqGNMxqxDou6NT-7">
          <mxGeometry relative="1" as="geometry" />
        </mxCell>
        <mxCell id="J2QmCkhqGNMxqxDou6NT-18" value="" style="shape=image;verticalLabelPosition=bottom;labelBackgroundColor=default;verticalAlign=top;aspect=fixed;imageAspect=0;image=data:image/png,iVBORw0KGgoAAAANSUhEUgAAAMsAAAAtCAYAAAAA5p+sAAADpElEQVR4nO3dP0waURwH8K+NmzkmbaJ0gcQIizBUOshgNa4tpJtRNCGaziSu5uJqwtChSSUM4trkcLZaE3EQNOFYbGKERWwsTPfc2wH/4KH4gEO0fj/JDdy9+/EGvrn33h3Q9dru/Asiquv89ASvOt0JoueCYSGSxLAQSWJYiCQxLESSGBYiSQwLkSSGhUgSw0IkiWEhksSwEEliWIgkdbej6Nj4JGw22619hmHg8GAfwjDa8ZZEbWf5lWVsfBJDLjf6B+y3tiGXG1PTc+gfsFv9lk/PTAy7uRRWZ6wpF4qnkN2LIWRNOWqS5VeWIZe77vH345P4ub35YJ2LC/HkrkKheAqRkRKSw0Gone4MPbq2DMPqUWw2fAh8kmp7kNnHYWa/zT1qjbqhIwAN3o+Mz//u0cPSiLcj755UWBJhPxKd7gR1DFfDiCQxLFdmYtjN6chebXsxqPEUsjnten4Sqn69rCGb0xFwAHAEL8/TauYy6kZVTdPxkKn+tWUN2TsXCFRoufvrUXsxLEDlw7noQznpgXe4skV/uREYUe4/ZykI77AHyQKAgnZ5XvXEX4FvUYdHv6oZRVo4EWh6VcuN+ZwH+rCpHgPzaBgWzGJ1wgmRiSK4dLM3EfZXgtCC2zXXsLCVBxQ3/M0sKSvA0Up1GNewMKqhACcm4rOtdZSkMCwzfrgVoFxcqzmUL4sWCgsc7ZhqHpchoKBvsJlyR0itm3cWUBKA0utoso/UCIZlsBcKBErHne4IPXUMSwcliiVL6ohyi+NFksKwLOkoQIF7zDzun4XfVWeCb5k+DJjmMKrHWdvsrrlOnSEkWe8FhmUWq3t61bNWKrSMgDISgbZ80yoUn4dPIiv5sgAcnuZWpC6D6vtctUK2rFWWo2uY2kGFtuiDItLQlu5qT1Z7gWGplQj7Ec0IOAI39zDmEUM08/AEPxH+gQKcCDR130NFcCUNofgQubp34tHhTeZrm4o0olu9N+1yQTgKGryj83yq4JF0Wf1bx1PTc1BMj+e34tvXL5bValQonkLEdYQoP5AvXlt+6/jsrGhZrd8W1mrc5ZylXGRQCEAbHqTc2d6EEAbs9jct1TEMAzsSj/JbQd1IYeC7Hwvr1fsi8Cl5JEd5f5wqLB+GPUeV76mYZvMizeEXXTs/PWFYiGTw/1mIGsCwEEliWIgkMSxEkhgWIkkMC5EkhoVIEsNCJIlhIZLEsBBJ6u7p6el0H4iehe5y6U+n+0D0LPwDJXlIcnbDrPMAAAAASUVORK5CYII=;imageBorder=#0000FF;strokeWidth=2;" vertex="1" parent="1">
          <mxGeometry x="-601.5" y="110" width="203" height="45" as="geometry" />
        </mxCell>
        <mxCell id="J2QmCkhqGNMxqxDou6NT-61" style="edgeStyle=orthogonalEdgeStyle;rounded=0;orthogonalLoop=1;jettySize=auto;html=1;entryX=0.5;entryY=1;entryDx=0;entryDy=0;fillColor=#d5e8d4;strokeColor=#82b366;" edge="1" parent="1" source="J2QmCkhqGNMxqxDou6NT-19" target="J2QmCkhqGNMxqxDou6NT-60">
          <mxGeometry relative="1" as="geometry" />
        </mxCell>
        <mxCell id="Hhsv-AD_tMGytm9ESTO6-15" style="edgeStyle=orthogonalEdgeStyle;rounded=0;orthogonalLoop=1;jettySize=auto;html=1;entryX=0;entryY=0.5;entryDx=0;entryDy=0;" edge="1" parent="1" source="J2QmCkhqGNMxqxDou6NT-19" target="Hhsv-AD_tMGytm9ESTO6-1">
          <mxGeometry relative="1" as="geometry">
            <Array as="points">
              <mxPoint x="70" y="717" />
              <mxPoint x="70" y="154" />
            </Array>
          </mxGeometry>
        </mxCell>
        <mxCell id="Hhsv-AD_tMGytm9ESTO6-16" style="edgeStyle=orthogonalEdgeStyle;rounded=0;orthogonalLoop=1;jettySize=auto;html=1;entryX=0;entryY=0.5;entryDx=0;entryDy=0;" edge="1" parent="1" source="J2QmCkhqGNMxqxDou6NT-19" target="Hhsv-AD_tMGytm9ESTO6-3">
          <mxGeometry relative="1" as="geometry">
            <Array as="points">
              <mxPoint x="70" y="716" />
              <mxPoint x="70" y="1184" />
            </Array>
          </mxGeometry>
        </mxCell>
        <mxCell id="Hhsv-AD_tMGytm9ESTO6-17" style="edgeStyle=orthogonalEdgeStyle;rounded=0;orthogonalLoop=1;jettySize=auto;html=1;entryX=0;entryY=0.5;entryDx=0;entryDy=0;" edge="1" parent="1" source="J2QmCkhqGNMxqxDou6NT-19" target="Hhsv-AD_tMGytm9ESTO6-6">
          <mxGeometry relative="1" as="geometry">
            <Array as="points">
              <mxPoint x="70" y="716" />
              <mxPoint x="70" y="346" />
            </Array>
          </mxGeometry>
        </mxCell>
        <mxCell id="Hhsv-AD_tMGytm9ESTO6-18" style="edgeStyle=orthogonalEdgeStyle;rounded=0;orthogonalLoop=1;jettySize=auto;html=1;entryX=0.5;entryY=1;entryDx=0;entryDy=0;" edge="1" parent="1" source="J2QmCkhqGNMxqxDou6NT-19" target="Hhsv-AD_tMGytm9ESTO6-2">
          <mxGeometry relative="1" as="geometry">
            <Array as="points">
              <mxPoint x="70" y="716" />
              <mxPoint x="70" y="550" />
              <mxPoint x="-47" y="550" />
            </Array>
          </mxGeometry>
        </mxCell>
        <mxCell id="Hhsv-AD_tMGytm9ESTO6-19" style="edgeStyle=orthogonalEdgeStyle;rounded=0;orthogonalLoop=1;jettySize=auto;html=1;entryX=0.5;entryY=1;entryDx=0;entryDy=0;" edge="1" parent="1" source="J2QmCkhqGNMxqxDou6NT-19" target="Hhsv-AD_tMGytm9ESTO6-5">
          <mxGeometry relative="1" as="geometry">
            <Array as="points">
              <mxPoint x="70" y="717" />
              <mxPoint x="70" y="350" />
              <mxPoint x="-31" y="350" />
            </Array>
          </mxGeometry>
        </mxCell>
        <mxCell id="Hhsv-AD_tMGytm9ESTO6-20" style="edgeStyle=orthogonalEdgeStyle;rounded=0;orthogonalLoop=1;jettySize=auto;html=1;entryX=0;entryY=0.25;entryDx=0;entryDy=0;" edge="1" parent="1" source="J2QmCkhqGNMxqxDou6NT-19" target="Hhsv-AD_tMGytm9ESTO6-4">
          <mxGeometry relative="1" as="geometry">
            <Array as="points">
              <mxPoint x="70" y="716" />
              <mxPoint x="70" y="504" />
            </Array>
          </mxGeometry>
        </mxCell>
        <mxCell id="Hhsv-AD_tMGytm9ESTO6-21" style="edgeStyle=orthogonalEdgeStyle;rounded=0;orthogonalLoop=1;jettySize=auto;html=1;entryX=0;entryY=0.5;entryDx=0;entryDy=0;" edge="1" parent="1" source="J2QmCkhqGNMxqxDou6NT-19" target="Hhsv-AD_tMGytm9ESTO6-7">
          <mxGeometry relative="1" as="geometry" />
        </mxCell>
        <mxCell id="Hhsv-AD_tMGytm9ESTO6-22" style="edgeStyle=orthogonalEdgeStyle;rounded=0;orthogonalLoop=1;jettySize=auto;html=1;entryX=0;entryY=0.5;entryDx=0;entryDy=0;" edge="1" parent="1" source="J2QmCkhqGNMxqxDou6NT-19" target="Hhsv-AD_tMGytm9ESTO6-9">
          <mxGeometry relative="1" as="geometry" />
        </mxCell>
        <mxCell id="Hhsv-AD_tMGytm9ESTO6-23" style="edgeStyle=orthogonalEdgeStyle;rounded=0;orthogonalLoop=1;jettySize=auto;html=1;entryX=0;entryY=0.5;entryDx=0;entryDy=0;" edge="1" parent="1" source="J2QmCkhqGNMxqxDou6NT-19" target="Hhsv-AD_tMGytm9ESTO6-10">
          <mxGeometry relative="1" as="geometry">
            <Array as="points">
              <mxPoint x="70" y="717" />
              <mxPoint x="70" y="1052" />
            </Array>
          </mxGeometry>
        </mxCell>
        <mxCell id="Hhsv-AD_tMGytm9ESTO6-25" style="edgeStyle=orthogonalEdgeStyle;rounded=0;orthogonalLoop=1;jettySize=auto;html=1;entryX=1;entryY=0.5;entryDx=0;entryDy=0;" edge="1" parent="1" source="J2QmCkhqGNMxqxDou6NT-19" target="Hhsv-AD_tMGytm9ESTO6-11">
          <mxGeometry relative="1" as="geometry">
            <Array as="points">
              <mxPoint x="70" y="717" />
              <mxPoint x="70" y="1294" />
              <mxPoint x="20" y="1294" />
              <mxPoint x="20" y="1264" />
            </Array>
          </mxGeometry>
        </mxCell>
        <mxCell id="Hhsv-AD_tMGytm9ESTO6-26" style="edgeStyle=orthogonalEdgeStyle;rounded=0;orthogonalLoop=1;jettySize=auto;html=1;entryX=0;entryY=0.5;entryDx=0;entryDy=0;" edge="1" parent="1" source="J2QmCkhqGNMxqxDou6NT-19" target="Hhsv-AD_tMGytm9ESTO6-13">
          <mxGeometry relative="1" as="geometry" />
        </mxCell>
        <mxCell id="Hhsv-AD_tMGytm9ESTO6-27" style="edgeStyle=orthogonalEdgeStyle;rounded=0;orthogonalLoop=1;jettySize=auto;html=1;entryX=1;entryY=0.5;entryDx=0;entryDy=0;" edge="1" parent="1" source="J2QmCkhqGNMxqxDou6NT-19" target="Hhsv-AD_tMGytm9ESTO6-12">
          <mxGeometry relative="1" as="geometry">
            <Array as="points">
              <mxPoint x="70" y="717" />
              <mxPoint x="70" y="1523" />
            </Array>
          </mxGeometry>
        </mxCell>
        <mxCell id="Hhsv-AD_tMGytm9ESTO6-28" style="edgeStyle=orthogonalEdgeStyle;rounded=0;orthogonalLoop=1;jettySize=auto;html=1;entryX=0;entryY=0.5;entryDx=0;entryDy=0;" edge="1" parent="1" source="J2QmCkhqGNMxqxDou6NT-19" target="Hhsv-AD_tMGytm9ESTO6-8">
          <mxGeometry relative="1" as="geometry">
            <Array as="points">
              <mxPoint x="70" y="717" />
              <mxPoint x="70" y="1523" />
            </Array>
          </mxGeometry>
        </mxCell>
        <mxCell id="Hhsv-AD_tMGytm9ESTO6-118" style="edgeStyle=orthogonalEdgeStyle;rounded=0;orthogonalLoop=1;jettySize=auto;html=1;entryX=0;entryY=0.5;entryDx=0;entryDy=0;" edge="1" parent="1" source="J2QmCkhqGNMxqxDou6NT-19" target="Hhsv-AD_tMGytm9ESTO6-14">
          <mxGeometry relative="1" as="geometry" />
        </mxCell>
        <mxCell id="J2QmCkhqGNMxqxDou6NT-19" value="" style="shape=image;verticalLabelPosition=bottom;labelBackgroundColor=default;verticalAlign=top;aspect=fixed;imageAspect=0;image=data:image/png,iVBORw0KGgoAAAANSUhEUgAAAMoAAAApCAYAAAB0tbaEAAAExElEQVR4nO3bsWsbZxzG8W9KV50pJOngtoPvwGCnQ0UGqZR0CJxCyHiihMZgCXcxdLbMzUIydOiUydgGu4TiG4OJBB2alEiDuU4OCO48tM5ie9H5D2iHOzm6k2W/diQ7jn4f0GDpvfd9Zd7H977vvb6R+uzz/xBCnOqTq+6AENeBBEUIBRIUIRRIUIRQIEERQoEERQgFEhQhFEhQhFAgQRFCgQRFCAUSFCEUSFCEUPDpMCo1HzxCGxuLvRe02zQbrwja7WE0KcRQ3Rj06WHzwSOm7nzd93Pn99/Y+/efQTb5YSiss21nSQFHzSp3nyxfdY/EAA38jnJaSCAMUv3F8zPrCYL2kO8+Fba8PHq8VRrlNLOr56wqCsm+Y3C3dEbZao2Wdeti7YgrM5Sp12m0sTGsH35UKtt8/RfN168G34lqjZal4zsGk10Du1x3Gb9AdcX706TwqcVCEgYRx+DhWeERH7xLD8p5ZL79bghBmWPN1GF3s2cA22Z6wG2Jj8UI7nrp3NbgaN+/6o6Ia2QEg7LI37uQyuQpK5Qubri0PK/rVeu6rsKW57GQ0QAdK/q8VvdoResf3Yquq1eUe9jbpstaIfysXPdouesUe64K+7K9Mde3nu7PjuuqV8KpaM93E91GMChgm5v40cBODp535lhzPRYyBziGwWT0cnZ1rOOBu8hDw2CpGQB+VC5HzjSYNDbxIVwHGQaT5qJi7ypYUzssxdrUyNrhILZdH7Rp7hXiVxU3cuj41KLdtnI90fdyAzKl3u97M8d22o3aymGr/hJHzEgGpTPAnV1IZUon/rWlmier+TiJwWObVRqBRvax+h3i3H1Lz7DS3eazBkfcYrwAlDZPaH+Oe1Ma7LphXwvr5CbAd7r6vjrD02bQeyfVDqgph3h0jWhQQrbZ+YsdBaZrelRO6+8GXswyL98EMJEe7jTleDrk0bKzpNC4Pdmn/cL33NECGs/CAV+8P00qaOAkNitW9g6gE7iOYB9ZrZ1tpIPSYZsGk44PE3m2qgBzjN+8os4U1tn2PFoWsWnTUVeRlT92OELnm2r4cxiMHV5Gz2X02xpoWRZi6xyPlqX3NMfhXuzuJU72QW8PX6rSJg2zRDZdARZ5e3gVDz/mWPs5S2p38/Q1zeoMtcceVroC+Nyb0jh68+fxgPf3A7i5w1JiCicuTu4oCZ1tY3+/3/QqsR64BOEDzTjb9cP+RWupWteRmZW9gxMX/OLiRjAoFbZO2AYt10uxAbfy5CmNQMdKlO2Uc85cAPvsB6Cnz7PoX+btIYn1xzrzGa23aMnFRydn3uoNbWfBbye+Z2Gdrb67fOI0Izr1CreGre63ggZLRvdUZZnZ9DLluhcv21Oun2Vm63laVp6Wl4fYdEoja3u0Erck3zF4aFYZd0vv2gwaLJUbzNvZRP2LOM0cCxkNv54MbZ++4+MYcljzIgZ+erj403zPEfv38esvw9qGvf6KGy4LU7IWuQwDn3oN8gj9R3kcf2AqWJn4Il4Mz8CnXvUXzwmCNl98+dV71RO020rH8UdV50m8I//3cikGPvUSw1XccKOzZb2nBsTwSFCEUDCC28NCnJ8ERQgFEhQhFEhQhFAgQRFCgQRFCAUSFCEUSFCEUPA/wMT1UrYsPY8AAAAASUVORK5CYII=;imageBorder=#2bff00;imageBackground=none;strokeWidth=2;" vertex="1" parent="1">
          <mxGeometry x="-182.75" y="696" width="202" height="41" as="geometry" />
        </mxCell>
        <mxCell id="J2QmCkhqGNMxqxDou6NT-45" style="edgeStyle=orthogonalEdgeStyle;rounded=0;orthogonalLoop=1;jettySize=auto;html=1;entryX=0.5;entryY=1;entryDx=0;entryDy=0;fillColor=#dae8fc;strokeColor=#6c8ebf;" edge="1" parent="1" source="J2QmCkhqGNMxqxDou6NT-20" target="J2QmCkhqGNMxqxDou6NT-43">
          <mxGeometry relative="1" as="geometry" />
        </mxCell>
        <mxCell id="J2QmCkhqGNMxqxDou6NT-20" value="" style="shape=image;verticalLabelPosition=bottom;labelBackgroundColor=default;verticalAlign=top;aspect=fixed;imageAspect=0;image=data:image/png,iVBORw0KGgoAAAANSUhEUgAAAMUAAAAsCAIAAABaEevtAAAEL0lEQVR4nO3cv2vjZhgH8OfKrVEo5NyhvhuiFwy5ZLC4wT7aLgdKMBllOlwCtvAt/gesoNlYhg6Fg5uMbbDhBmsspgp0KFdOHoI6XcEgeWjdRcli+R/o4B+SkliO3De+k/N88GLZ76vX1pf3fR/F5NHW198AQpR89bkHgDYK5gnRhHlCNGGeEE2YJ0QT5gnRhHlCNGGeEE2YJ0QT5gnRhHlCNGGeEE2Pwzbgj46Z7e35U2c06ukfnNGI6qhQVIWbn/ij4739g/jTZ/PH3v6B+KYYf/rsnsa3lNg2+qZWXqVppWuaXYXiWKh3GD3h5qe9/YNbj/NHx+e//rKoleOM1jSB5VsXctpWSUbyHi00DSnNeAekV7nT+joG9OCEXu9uxWxvCz++DnhD7+MfvY8fqJwrFLFtlFLMuKckTmqzY5WuEV//SB4IOnlaKvXyu3XkqXH6ouF5qmilFOhlkvMehLMMd+8DebA2uL6rdAV23HvnDxO6X9HKU6FpmH1z9jivXH8937qY74gVjgVLc5e5hcS2MevTaOZ9L5XP3dNd32grmjuSGw3ng/HWCgt6m+7ip6/e/FCREqE8VbqmlAa9SkiCkATpWIHvLnMsOHbwewCAFcwivEsQkiBEHTBpeX75C03DFHZmp1MtVnBDILaNvsBa6mQkpNq7vN5vvnUhp7cGnQQ5lJf1BgAx3kgaJEFIgj+749fxZYpMnsrnWdZXl51lqHz1g86L2Rwmv9fHwCan01s2zTj629nppEN1ACzfEgEg3yqmGMtTRdZPDn2r6jxM8xEG9AYAAFtXmr8mjaqo5KmS3IXxX79TL/ItwxPKxtAGiMULMJneBpo3JZbtABNjAcRXz7fA+nPh5a90r4UpsLeJ8fKZNBrWVN/9X/l4DMAeLt8MzVm2A7vuBQup8O0OAJPtm1n/8UsAYGMMOJ8WXX9WyAJYqm/uDOptItRH+5JFJE+NoS2Ha1H/7VMxlU4qAKusI7V/ryS46ty6mxFtB3YWtrRUxeYlwdRgunNa0tuGicp6Z9kOsFyY2qdxqg2AFVb7U8xkeuNubVsfXgLz/IebBd1ULccpusMKnsouoLcNE5U81XJv9fFu1lNOV7rLSmuZn1xXfzGfb10Y7kZ4kfqJZgEreN+paNOKTDpUB0xadrsV25r/fkEtx3UscCMV1Ntmich6B5N735Wu6e5CLJUsa1PLcTVQtL5s9j3L5bin3GFff5YhVtOQSqZZmhxw9OrsxrrME6ttlObdOnr15GZz6JpZwTSTKslIQb1tkkeh/n+B+Kbo/bFKKD//FO07deguwq13w3/+Xu00KzdE0RJufgKA1Mvvw/7ayRmNAn7NgjZJ6DwhFCAq9R2KBswTognzhGjCPCGaME+IJswTognzhGjCPCGaME+IJswTognzhGh6vPMk9rnHgDbHf9CU2H/Gcg49AAAAAElFTkSuQmCC;imageBorder=#0000FF;strokeWidth=2;" vertex="1" parent="1">
          <mxGeometry x="-353" y="200" width="215" height="48" as="geometry" />
        </mxCell>
        <mxCell id="J2QmCkhqGNMxqxDou6NT-36" style="edgeStyle=orthogonalEdgeStyle;rounded=0;orthogonalLoop=1;jettySize=auto;html=1;entryX=0.5;entryY=0;entryDx=0;entryDy=0;exitX=0;exitY=0.5;exitDx=0;exitDy=0;fillColor=#dae8fc;strokeColor=#6c8ebf;" edge="1" parent="1" source="J2QmCkhqGNMxqxDou6NT-21" target="J2QmCkhqGNMxqxDou6NT-35">
          <mxGeometry relative="1" as="geometry" />
        </mxCell>
        <mxCell id="J2QmCkhqGNMxqxDou6NT-21" value="" style="shape=image;verticalLabelPosition=bottom;labelBackgroundColor=default;verticalAlign=top;aspect=fixed;imageAspect=0;image=data:image/png,iVBORw0KGgoAAAANSUhEUgAAAMkAAAAsCAYAAADPT5w0AAADi0lEQVR4nO3dv2sbZxzH8XdKV58JNOpQt1DrqCFphooOUmizFKQQMp4poSpYxl3yD1hBs/AZOnTqJOSAnaHkxmIqQ5emRBqCupSC4E5Dqy5yF13+gHaQHeus2I+KL/KF+7zAwz335Z470MfPD5/RlQ8/uvkvInKmKwtX31VIRM7x1mXfgEjSKSQiBgqJiIFCImKgkIgYKCQiBgqJiIFCImKgkIgYKCQiBgqJiIFCImKgkIgYKCQiBm/HfcHinXtYi4uRtnA0otN+Sjgaxd2dyGsX6/+TFO/c4/rHN8887/3wmMFff8bVXbzcFj3nGu16jrWdy74ZSZJYR5LzAgLjEB389KPxOmE40qgjiRH7dOs81uIizpdfzVTbefYrnWdPX/MdiZglduGev/XZZd+CCJDgkIgkxVynW8mxxb6/SvblcYDnvbpyfa/LZt6aaAnw7BK104Vui56TnWgIJzYBTvcHgWdzt3qRZ5B5Sd9IUtnlub9KpuOyYtvjHw+cyAccYINHXZ/N/CHecZ1t4/WzOH6XR5WTyvW9Lj0nS+Cd1G13Do/OjgMS7S+Y19NKDFIXkvr9Agv9J3xabpw0Vktsd8JoobtKwZoeNWpFl3ZoUbi/NW6o7PIgb02NDM1yaTyKVJbIEPL7z9H+NIq8OVIWki0+WYag+3DqTHNwGDmu57LQ705Pq2jwyx8hLOeoA+tf3GCBgN/O+tDvDBhiUai1qMfwBDJ/6QpJZYnMTIUbvPfObJfMZiwIh5w9gXrIXdulHWZxfJ+e77PvznZtSYZ0hWRnwHCmwgZ//zPbJYNhaC6iwVrueK0SknV8nu9tzNaBXLp0hYSAYQjZ3NbUmXouunAPhidTqqgNbl+3Xk7FmoNDsG5wuzJV+ErNcg6vDwuZ0xsFklQpC0mDtYMAllejv8ndFs5ytLJZ/v5oihRdS9QPquMFffFoXVMt4fUtCrXTO16t8XFll/3IqDFeF70YaofrTZG+v5NUS6zQoudU6flHq+3+E1Y86DnXJgobrOUa1A98HN/HOW4O22zbX9OcqKwVbYK9Lps1n15toq4MVCCTn+gLeNFxo7trkmixvgW8/s2DqdfkL+K7b6enRSLzFut0K87X4BP7Sr2kTuzfT5K/9TlL739woWuEo9FMr9SLzIO+xEfEIGW7WyL/n0IiYqCQiBgoJCIGComIgUIiYqCQiBgoJCIGComIwX+6cAsETKXVEQAAAABJRU5ErkJggg==;" vertex="1" parent="1">
          <mxGeometry x="-601.5" y="360" width="201" height="44" as="geometry" />
        </mxCell>
        <mxCell id="J2QmCkhqGNMxqxDou6NT-67" style="edgeStyle=orthogonalEdgeStyle;rounded=0;orthogonalLoop=1;jettySize=auto;html=1;entryX=0.25;entryY=0;entryDx=0;entryDy=0;exitX=0.25;exitY=1;exitDx=0;exitDy=0;" edge="1" parent="1" source="J2QmCkhqGNMxqxDou6NT-24" target="J2QmCkhqGNMxqxDou6NT-66">
          <mxGeometry relative="1" as="geometry">
            <mxPoint x="-81.69999999999982" y="811" as="sourcePoint" />
          </mxGeometry>
        </mxCell>
        <mxCell id="J2QmCkhqGNMxqxDou6NT-24" value="" style="shape=image;verticalLabelPosition=bottom;labelBackgroundColor=default;verticalAlign=top;aspect=fixed;imageAspect=0;image=data:image/png,iVBORw0KGgoAAAANSUhEUgAAAMMAAAArCAIAAABKCqsSAAADOUlEQVR4nO3av2saYRgH8CelqyeFxi62g/fCQdoOlQwa2nQoaAgZT0ppBBW7dOpQ0OB8qNChUyeJgdih6FhCI3RJSs4huGUQ7jK0TiaLl3+gw50Xk2jk9M2PM98PDp689/oKX573vdd3xvPgEQFM7N5NDwCmBJIEfCBJwAeSBHwgScAHkgR8IEnAB5IEfCBJwAeSBHwgScAHkgR83Hd6Q2RpRfB67Uuj222ou0a3y3VU4D4zjs4CRJZW5p49v/h57cf39r+//EYF7uOsJg2MERFFllbqv34Ou8swuihaU8/x7DaQ4PXKb99f0qCx96extzvZl+S3tBjV2HJ2/C5SlWZm7qAYjK9PNhS46JpW3KGFl9fzRXBT8OwGfPCZ3a6aUtfkABERyVpLJjqsSpE1IjKnPNFqpddYNGe9T280s2HBujhpFOZ/v97PhT1EROGMpmXIUJVgokxU2G7JvQ7O9ADOuKMm5SJMYlWdSK8xiTErRsnNfS3maxQkxiTGaoeirG0rRFaMjqvm55KidoioHJ9nrNgwyFCLjEnMjtGsqrBeDzf6I13OHUkaSHkX9hjqt9WSeZmLVHUSo5U0kegTSG+uWe3K8eVem3NS/lkyDnbK1OsBBWl87k1S/kWA9Hr/U5jeMcjjE803otzcSI7oYr19REI4U89f6UDvCNcmKen3EYmy1tLsl70wKiWCrHYohHNaS9P2K+mhnWSjkqKeBGItTWtZMyOMybVJKrc79rKp/2WtxM2lFZNquieUbV1SdcrxecYkVlANUdZGlzEYxrVJMqew4KiJKRstNgx66E+NaFdKBKs6CT6J1/DuHBcl6Vx0Som6ToFY/+Sl1M0ZKr91WoTSi3MCHbfN5dR6+4iEp4u9wpOqbJ8WoUJQJKPTuuIfMb2c/YP76fPa6EZDfP0y8cLW3vux95OSm71dIiJz32i1dHaTqX/zifr2mQxVCe68aWZCvU0ne4cJxuIsSakPH/uPlDjCIUlwizmb3cY+OoIzJ1PPWU0iotDCK//jJ45uMbrdS86cwHRwnCSAgVz07Aa3GpIEfCBJwAeSBHwgScAHkgR8IEnAB5IEfCBJwAeSBHwgScDHf4RkEgDnw5NBAAAAAElFTkSuQmCC;fillColor=#6a00ff;fontColor=#ffffff;strokeColor=#3700CC;imageBorder=#6A00FF;strokeWidth=2;" vertex="1" parent="1">
          <mxGeometry x="-190" y="780" width="204" height="45" as="geometry" />
        </mxCell>
        <mxCell id="J2QmCkhqGNMxqxDou6NT-50" style="edgeStyle=orthogonalEdgeStyle;rounded=0;orthogonalLoop=1;jettySize=auto;html=1;fillColor=#dae8fc;strokeColor=#6c8ebf;" edge="1" parent="1" source="J2QmCkhqGNMxqxDou6NT-25" target="J2QmCkhqGNMxqxDou6NT-49">
          <mxGeometry relative="1" as="geometry">
            <mxPoint x="-249.5" y="500" as="targetPoint" />
            <Array as="points">
              <mxPoint x="-245" y="520" />
              <mxPoint x="-251" y="520" />
            </Array>
          </mxGeometry>
        </mxCell>
        <mxCell id="J2QmCkhqGNMxqxDou6NT-25" value="" style="shape=image;verticalLabelPosition=bottom;labelBackgroundColor=default;verticalAlign=top;aspect=fixed;imageAspect=0;image=data:image/png,iVBORw0KGgoAAAANSUhEUgAAAMMAAAAoCAIAAADMntm8AAADJklEQVR4nO3aPWvbQBgH8Celq2UKxR2adrAOBCEdYjJYoS+bE0JGiRKagB3cpV8gCp6FVOhQKHQScSDpUKyxiNbQoU2JPARNoSA4eWjTxc0i+Qt0iGLHr0T2Jamc57fldD5d4M89OummEnfuAUJju3XdE0ATApOE2MAkITYwSYgNTBJiA5OE2MAkITYwSYgNTBJiA5OE2MAkITZuR+qdW1rhksnWn4Hv1+z9wPdZzwrFz9TFv+DmllZmZh/1tpsfPxz//sV0VpdNs6icqunza8Z1z2RyRFiT+sYIAHJLK9XPnwb9Kgh8XLRugmjVrS8umZSevxjSoXbwo3awP95NNIvKYJJlZbxh0KW5iifu7MLjK7gLul64d0NsMKhul02tUikNAAASdSWAekXIbQEAQHHHUUTurF+7PbSx52xmW5c9kyyW+t9Bs6jMn+uHNXQEMViTSjkikIoH4JlEICSMS2H3kCriSUUgRCBEIBUvLbvO7kb4o+KOQzezf83wKjHrvESdnULv8OE+LhzH9K7wP5soMUhSX+qqmOhYhLaWVbvJiZIOAAC6LHIdi1App9sBJ65q3QMVplMQHH09ex2gLOKCNJqYJkmbS4PndNQyKH87CoDPaACgZnioO521zPj+M4B0Ru0aqXzcAE4sfeluRxHFM0mF6dSwy8X7dy8+1tYy0e2Alyh1KbX0cad2Y8UzSeXjxrDLxp+TSMMZ+QwRCHldC3iJHu4Vx5rbTRXPJIHXOCtkbYVns1xY8rxGbyErPp3hekpeh+21jFmHRIof3AUNFJckdUXHyL+zm2nZrbZaNKskJuqV0+fl7bX3dsBLtP30o1YVkfPMztcEAACFXau9CGlzaWg2cPs2ihi8TwIAACNflV1Jdqkcvjcqr8+XNYvKLpVPezRrutD+ImvkM4ZapRKl0mlDYL8m69v9hk5lFZcqrUHws+5oIpwF2Hj56vyRkkjevunZfqPJEqG6jXx0JG5nTtAoIqxJAJBdeDL94GGkGwS+P+TMCZoY0ZKE0CBx2buh/x0mCbGBSUJsYJIQG5gkxAYmCbGBSUJsYJIQG5gkxMY/d6v802s8EsQAAAAASUVORK5CYII=;" vertex="1" parent="1">
          <mxGeometry x="-353" y="538" width="215" height="44" as="geometry" />
        </mxCell>
        <mxCell id="J2QmCkhqGNMxqxDou6NT-34" style="edgeStyle=orthogonalEdgeStyle;rounded=0;orthogonalLoop=1;jettySize=auto;html=1;exitX=0;exitY=0.5;exitDx=0;exitDy=0;entryX=0.5;entryY=1;entryDx=0;entryDy=0;fillColor=#dae8fc;strokeColor=#6c8ebf;" edge="1" parent="1" source="J2QmCkhqGNMxqxDou6NT-26" target="J2QmCkhqGNMxqxDou6NT-33">
          <mxGeometry relative="1" as="geometry" />
        </mxCell>
        <mxCell id="J2QmCkhqGNMxqxDou6NT-26" value="" style="shape=image;verticalLabelPosition=bottom;labelBackgroundColor=default;verticalAlign=top;aspect=fixed;imageAspect=0;image=data:image/png,iVBORw0KGgoAAAANSUhEUgAAAMkAAACFCAYAAADxXNwSAAAOLklEQVR4nO3dz2ta+b/H8ef3MltPeqH1LsZkLioI2hYqXWhIO4tCAl0bhi/TQg2ZTSDrsbiW2HUhq5AE0qEMcVlKI8zmmyG6CH6hMYJwTvhOYzc2i8nJH3Dv4njM0Rg/JtEcE98PCNOY8+NzhvPyfD4fz/H9D89//8//IYQ413+53QAhhp2ERAgFCYkQChISIRQkJEIoSEiEUJCQCKEgIRFCQUIihMJ3g9pwbPIJsckp5XLm8THFwjaV8t6gmiLElQwkJL7xCWKTU5jHx+cuo42NNf8biz9B0+5Q3NkeRHOEuJIBheQHgK5XiMRPP+Mbn6C48yexySnCkQfWOhKUy0tusJuOUM5EebXmdmNuD9fHJJX9z+Q/fUAbGyMceUBs8onbTepo7l2Jqr5Fxu2GOAxjm24j10MCUCnvtQTFNz7hdpN6ksnrVPNLfVx3iY+6zsfs1dvWL3PvSlRLG8y53RAXDWzg3qtw5CGm+TcAtcMv+MYnCEceUjv84nLLWq2+iLLqdiPaDGObbiPXQlLZ/9wc4LezB/VCDAP3QlLea145NO1O8/Vepo37LrnBbjqOx/7dLJCrREjEvpELzpDG6nb8av+e3aKaCDQWnqWqzwJG27KaYwcmBXswfc66/zkI8L/+xssJnWoCONgkNP3a2l54nzdvYSEdx9PY3r+eOdrUdkiZvE7Cf/q7kQvyPGX/tsRHfRZvMcvjFyuOteZZL6WIH20Seu9z/D+J86uu86vzODoc58mZ7Vn7CTheaW3HzeDqmMQ8PqZS3qO4s01xZ5vK/ufrb0R2i2o6Tj0XJBS0ft5UIiRaTvI2qRlCwSC5A6wTORgk1DxRl0iE93kTPN1e7kAjnm4MsM9Zd2Y6SCi4iYF1IoWCQULTrx07jbCwCMvBIKFg99mr+4s6j0qO4ymaBBIXHOusveRxY13MQuN4TvebyeuNgDb2kylALMXuu/nGBk6DaLcjlDMu0IDhMRQDd/fMsz4d4KSYbXl3W30RtU7iS3nN8+jLlrFC+n2BE+7xffIKTdWg/PZlD2MQDSqdjycw3acBeHKDGT8YOccVbO0ly0UTT2zWejNI+vBiUv7DcWVJzdy4qwiMekiSP3Jfg3pt5cyfjLp5tW1nt6jquvWTjuNBwxu6yga/8bWnzz7aTswGo26C5m3p+lzW3LMIHrNAru2EX619A/vNYK1GHccV9AYb7ZCEvHgwqVf7uM3kBru6NaZwdkVOrrpds86wdFYCXg00a5xSdf4knBF8zfNgloIZINH4+zBNbV+E61PAt8s864txPI0B99BpBs2gboL3kpsx6ibc3edNVNX9W+FV1Lqqzb0r8WtCZ9fXPrgffqN9JUmVMNC4/2y+7Q/zPA13Gbhf0NyzyOnM2cB1OZ6jWstJ7fG2db4a3U+V1do30CI8vcAYyx4XndnnDTBiIZlnvaQ7PkF+Ta5o4omlWroCc+8WiPdwshh1E/xRR597ha9HtL6W3GChw0zZ2XXBfocPRC/3Kb7NE1tg3XECZ/Ip4ppJ4b19dVvhXxUT/LOO425cBdu21TEQqU0KZofxRnKDj/bslvPfACzxyA8n9WHpNPZuxEJy1uqLaHOK1O5bL7BsTX0q193CwO5zWydMerq1H15dhOUOY5JO68IKr/IG+GetdS91y4tJIbOFN316PAm/Qa5t2rg549U87gV4m6XQftjNQOhU9VIjfCu8igbJHTiOU9eppr3829GV8sZSjjFLp89lboZ/DOIbHO1nSfKfPlzoORFtbIy5XxaoHX4h9/tv/W7WhTQ/wFP2u8VtN/JXks469+HFaBrI7Fbt8C9gilj8CbF477e+2/dsdXtYq98y+RLfv2/tilh9eINcdAhnqMS1G0h3C3p/fLfddXe1zt5nhXUbhnSzRMPAQiLEbSFjEiEUJCRCKEhIhFCQkAihICERQkFCIoSChEQIBQmJEAoSEiEUJCRCKHx3995lH+IUYjTIvVtCKEh3SwgFCYkQChISIRQkJEIoSEiEUJCQCKEgIRFCQUIihIKERAgFCYkQChISIRQkJEIoSEiEUBhYpatev+bUPD6mWNi+0LfPC3GdBhIS3/gEscmprl98bX85tjY2Riz+BE27Q3FnexDNEeJKBhSSHwC6XiESP/2Mb3yC4s6fxCanCEceWOtIUMSQcX1MUtn/TP7TB7SxMcKRB8Qmey/VcJ3m3pUcFam6aFTfvamVZsVZrocEoFLeawmKb3zC7Sb1JJO/bMk2cZO4XqI6HHmIaf4NWLVJfOMThCMPqR1+cbllrVZfRHurV7L2ksdr6sXEzeFaSCr7n5sD/Hb2oF6IYeBeSMp7zSuHpt1pvn6Z6lhXltxgN+0oz2wWyFUiJGLfyAVnSGNXxGr8nt2imrDrkc9S1WcBw/pbY1v1XJDnqdNdtFfUOiluUg7PEj/aJDRtlZ3L5HUSbBJ672tpz0nHqrVLfNRncVZFb1+uWRz1LSyk43gwKWTs0nft6xvNYxWtXB2TmMfHVMp7FHe2Ke5sU9n/fP2NyG5RbZzUoaD186YSIdGh9npTaoZQMEjuADjYbKx3/gmWyeuNgNn7yFoB6bQL/6xV1tpeNmecqTNPdqtZ8tlucyhTgFiqwxgpwkJze42AJDfYbVvfKjfdw8TECBqKgbt75lmfDnBSzLa869s1zvsiucGM36SQcYZohVfRTYyOKxjknPUaU5sUTAhE7ZP/tM0tV5e1lzzOGeCfadRab9Cg/La1/mPmn3E8ZoFlx/rp6U0MAsy8m7/K0d5Kox2S5I/c16Bea+/KgFE3+7KLuWcRPHzj65nBvEHHXRyU2q5IK3w9Au76mGu22aT8x9k2kyphoHH/mfNEb9/3Eo/8YOTbC6da7fF4A4hWrs9uuSrkxYNJuTq4XQS8Gpj751w1LiHkPR079cKst+476cMLeBI61USH5Y+u0rjbabRDchNV65xw7/Lrr9WopzkzsSDON9rdrY7dE4B5noa7DNwvIF0yQIvwNNn2h0ZX78LWatQ7thnIRglwTlesyepWnY5xhMqIhWSe9ZJOtbRh9e95Ta5onpk9mnu30HnmqY1RN8Ef7T4jlNqkYGrE086Zo3nWF+MX6zY1veZ5Y8Zr1znITm6wmwhwUlxuTPGeZ4VXeQP8s63rA5m8zG51MmIhOWv1RZQ3RZNAQqeqWz8LLPOmqB64r77YwiBAQte73Ne1wqtoloJpL6dT1RfgbZbCZecGUjOnU772NhvT2Gc/T+lxfV1npr4pn5N0MJBvlbefJcl/+nCh50S0sTHmflmgdviF3O+/9btZF9L8IC7aPgvUL/Osl1Lcr3T6oFAMk5G/knTWGJMc1QYUELpOP4vhMpDZrdrhX8AUsfgTYvHeb32379nq9rBWv2XyJb5/H23px2fyKeKaQS76ug97WOJjydf6ASFLfEzH8Rxs8lhmmIbewIr49Pr4brvr7mq131MFgFnoYzfL6la1TwR0vh9LDCOpdCWEgoxJhFCQkAihICERQkFCIoSChEQIBQmJEAoSEiEUJCRCKEhIhFCQkAih8N3de1632yDEUJN7t4RQkO6WEAoSEiEUJCRCKEhIhFCQkAihICERQkFCIoSChEQIBQmJEAoSEiEUJCRCKEhIhFCQkAihMLBKV71+zal5fEyxsH2hb58X4joNJCS+8Qlik1Ndv/ja/nJsbWyMWPwJmnaH4s72IJojxJUMKCQ/AHS9QiR++hnf+ATFnT+JTU4Rjjyw1rnlQbG+oPsbuS5138VwcX1MUtn/TP7TB7SxMcKRB8Qmey/VcBNk8s7yc+Imcj0kAJXyXktQfOMTbjdJiCbXS1SHIw8xzb8BqzaJb3yCcOQhtcMvLresP9LTQelW3XCuhaSy/7k5wG9nD+qFGAbuhaS817xyaNqd5uuXqY51FZm8ToJNQqUo1USg8apJIRPl1doSH/VZ7Fc52CQ07SwR1/b3Dstk8jqJu10qZyU32E1HKGeWYdFREauxndZKXHa7Tlc/W6mrbZnm9qN8/adOwn+6pJEL8lzK0Sm5OiYxj4+plPco7mxT3Nmmsv/ZnYb4Z6lGS4SCQULBrFV3fbHErj5DPRO0Xs8UOGmrfT73bgZyjb+fs0xvNOLpBXjb2E6uUWe9VOJX71Zz+7mD9nrwSyTC+7wJBrssY7m/qPOodLqcXZbbWb9edDYUA3f3GeSa7/4rvMoboGlQXD59R157ydYBeMI/NmeqVl9EW9+J7WW8LdeWnpw495XapGCCR/vmaBek3xc4IcCj5on9mudtVyhrmXt8n3RuXYNKtqWtqy+i5A4gMC0zbyquD9yHwkGpdXBdrXNCoMfy0R0Kh5o+5uAChUlNyn8497XC16MUUMfoZfXslqOraPGGum3fYtRN8Hu5eKRHi1xJriCT16nqKe5Xso7uzjU2ILnBrq5TTUDO2eW7xiaMArmSXFZ2i4T/7ED6+syzvmjVgm+dTLggs8er1QiTK0lfLfHIr15qkOaeRfCceVXj/rP2yYR5noY1OKr1qV797TViIZlnvdSn20SqdU7aTr5MfvYa+/crfD0C/NHTmazkBgst08GnPLEF1h2D+Uw+RVwzKby/wlVoRIxYSPpo7SWPcwaeWIqqrlPVrSnW6xyTpKezFMwAicb+q4uw3HFMYlLIbOFN6822JvwGuaBbXcWbZSDfKm8/S5L/9OFCz4loY2PM/bJA7fALud9/63ezRpPjw0QJxOXIlUQIhYHMbtUO/wKmiMWfEIv3fuu7fc9Wt4e1hLhuAwrJl+bDVJdZN//pwwBaJcTlSKUrIRRkTCKEgoRECAUJiRAKEhIhFCQkQihISIRQkJAIoSAhEUJBQiKEgoRECIX/B3qe2l+ASOctAAAAAElFTkSuQmCC;imageBorder=#0000FF;strokeWidth=2;" vertex="1" parent="1">
          <mxGeometry x="-599.5" y="187" width="201" height="133" as="geometry" />
        </mxCell>
        <mxCell id="J2QmCkhqGNMxqxDou6NT-42" style="edgeStyle=orthogonalEdgeStyle;rounded=0;orthogonalLoop=1;jettySize=auto;html=1;entryX=0.25;entryY=0;entryDx=0;entryDy=0;exitX=0;exitY=0.25;exitDx=0;exitDy=0;fillColor=#dae8fc;strokeColor=#6c8ebf;" edge="1" parent="1" source="J2QmCkhqGNMxqxDou6NT-27" target="J2QmCkhqGNMxqxDou6NT-41">
          <mxGeometry relative="1" as="geometry" />
        </mxCell>
        <mxCell id="J2QmCkhqGNMxqxDou6NT-27" value="" style="shape=image;verticalLabelPosition=bottom;labelBackgroundColor=default;verticalAlign=top;aspect=fixed;imageAspect=0;image=data:image/png,iVBORw0KGgoAAAANSUhEUgAAAMgAAAArCAYAAAA9iMeyAAAF+0lEQVR4nO2cwUsbWRzHP132mrELW/dQdcEEhMQWGvaQiLYHwSxljxOWshaa4F6EPZuSczD+A55EC2YpizkWqYE9tC4mB0mhRiEwI6xmL+ke6vgH7B4mk0xiHMcajdHfB4Jk8pv3vpm873vv996MdzzffPcfgiC05atuCxCE64wYRBAcEIMIggNiEEFwQAwiCA6IQQTBATGIIDggBhEEB8QgguCAGEQQHBCDCIIDYhBBcODryyg0NDZBaGz8zDjj6IhCfpO90s5lyBCEC9NxgwwMDhEaG8c4Ojo1Runrq/8NhSdQlLsUtjY7LUUQLswlGOR7AMeRQf35FwYGhyhs/UVobBx/4IF5TrdMkt6grN4jnwryYqU7EmCedS0KWR9PEzeprt7mUqZYbtnb/YhhfGbqx5+6b5IrIJ4pMhdSWo4aXTam4ETXk/S90g65t29Q+vrwBx4wMDjUbUmdJ7bKtqYx599lwedjxPbK7ndbnOBEV0cQf+AhhvEZgMrhAQODQ/gDD6kcHnRTVoeZZz0ZhkKakemlE58mp4Jd0CS4pSsG2dv9WE/mW7ES+JtCKhfFa+RZaGMO4frTHYOUduojhqLcrR93szR8ccwE1Vt/r5PNto88mTPoZH0Rkq2B6Q3Kqtd2wMor5nk0DHr2OcvnUNhcb/scpVXbcSHND60mPFVXm0pjq2wnw3hO+Y7xTNGcIgYrqK3Xz4qvlVFtk/ybej+1v37XmK7lIMbREXulHQpbmxS2Ntnb/Xj5lcZW2dai9BfSjTwgC2pTIwKY4VVRq/2g9nzBi6oVeRVrRMYzRcqqFz3biFsofDI/TAfxYlAtu5foVTVmWbTVqRBObpCyxaRyLdpSeQgl2M7MuNPV7rokw3j21xhxbMABZrUgH+rXJE3e8KJqNX0r7ygZ4A3Ot5w3jxpSOC6s9ZQ54Bok6VdJ6pnZCJp62kSEhYLRHJiOElZO9qTJqTR5QyH8rNYAYqvMhhT0lh5zeTry5atSLfqSr/Mc4+VRmnqdkWHQszZtK89ZLBh4QlGzoZ5Hl90cUy+dtSlQStmvyRIvgmvoeIlkZsz3OR2GI02diNVRlP7svWnmLTJIbbpTPNkIlivNPWsq6IX9Ypvebon3ewYMB0kB8ckAHnQ+dHAv4YS+lQpVoH/AHB3ikwE8Rp5sS53md7jH/dh5dJkLCK7MAWDs8v6E8XWqBnj6a6NwooiOwuhkYzQzr+dGTy5l3x6DxAbodxU4w/1v3RXp7VfAqKKfFlCucoxC/4i78lzXqYSZ0zTK9pdtmnimLitOjeJFJ+vGHK55yYd98PifEAecOqZe4PYYpNYTn80S//zrrki9ajgHnDon/3L0qgFG/sR+ivkyE/AzdVllZVtyiAtwXG3YMfk6z7ES4HGM2vSqs6PsVXJ7DFKbCrRrrKlgc5KuVxvTqGZmeOxX6tOv5consBpCW6w5eZT19Gkx5+PsOt3F1PUFz2GSdmXGnjCqQLViyy9W3lEyFEYn53k15e3J5NziFhmk0Vjtqz2kN1CHmyOXpxfbNppULmEm79aUJBGprTK1rmxtNN7XFgG8qtZcL2CuljWfeyaJNXOhoGVli9gq61b5bnTVaSTa9u8bzxQpa63aFMK/rdamTlDPYU7kRGau5vFHGFV6Mzm36OpO+pWTiDDCBmU1QVmr/aL7a4xkoazeswUu8SK4RCqnoWoaqnXYyLPga97TSE750DNF5pIa5aQtbroRszwdZJl51jVbvfYyz5W8nqINnazPtvrlQleDlzz1wboWRdU0HmV9tN0aMvIs5PqZ0zTmrGOnJPjL0xvmfomRb5PY9w53Ov3Pq61nQXJv35zrOQ+lr4/4r7NUDg/I/vF7JyUJHaCxUeh20/Nm3DF8i6ZYwlUSz0R6Ojm36PgUq3L4NzBOKDxBKDzh+jzrHiynB62EXsHaOV/s2eTc4hIMclB/EOpLzs29fdNpScKV0bjPre29YT1Ix3MQQbhJSA4iCA6IQQTBATGIIDggBhEEB8QgguCAGEQQHBCDCIIDYhBBcEAMIggO/A+JR6O/t1pjSQAAAABJRU5ErkJggg==;" vertex="1" parent="1">
          <mxGeometry x="-601.5" y="512" width="200" height="43" as="geometry" />
        </mxCell>
        <mxCell id="J2QmCkhqGNMxqxDou6NT-48" style="edgeStyle=orthogonalEdgeStyle;rounded=0;orthogonalLoop=1;jettySize=auto;html=1;entryX=0.5;entryY=1;entryDx=0;entryDy=0;fillColor=#dae8fc;strokeColor=#6c8ebf;" edge="1" parent="1" source="J2QmCkhqGNMxqxDou6NT-28" target="J2QmCkhqGNMxqxDou6NT-47">
          <mxGeometry relative="1" as="geometry" />
        </mxCell>
        <mxCell id="J2QmCkhqGNMxqxDou6NT-28" value="" style="shape=image;verticalLabelPosition=bottom;labelBackgroundColor=default;verticalAlign=top;aspect=fixed;imageAspect=0;image=data:image/png,iVBORw0KGgoAAAANSUhEUgAAAMkAAAAtCAYAAAAEE0+RAAAE2ElEQVR4nO3cz0sjZxzH8feWXjO2sLWHqoVMIJDsLmzYQyJaDwuxlB4jZamCEXvZf2AjOQfjP+BlJQraQ0mOIiawh9bF5CAp+CMQmFmo2ovuYR3/gPYwSdb4I8/EOEb0+4KwoDPPfIV8Zp7vMzP7yPP1t/8hhLjSF90uQIi7TkIihIKERAgFCYkQChISIRQkJEIoSEiEUJCQCKEgIRFCQUIihIKERAgFCYkQChISIRS+dGvg8OAw4cEh5XbWyQml4gaV3R23ShGiI66EpK9/gPDgENbJyZXbaD09jX/DkWE07StKmxtulCNER1wKyfcALa8QsV9+pa9/gNLme8KDQwSCT+19bikoqYJBzAtgkvONklTuMcuaMQY5Hz8lnBxhmqVygogGWEXmQhNkLhmvt5TmxfjCNf4CcVtcm245VdnbxrI+Ef3x51sLSqpgEHtcZM53/ot7U2oB+ZjFH5qxfxRfZisZ4chxyMRdcSca98ruDoX1VbSeHgLBp/T1D7h4tFmee+G08qdLAQHiIzzRwCzPuHUEcYu6fiUJBJ9hWZ8AODzYp69/gEDwGYcH+12u7IYtTvBisdtFiOvoWkgqe9uNBv+8elMvxF3QtelWZXeHzNt5CuurlDbfNz5umlopUzXG0AFPOEHVMNhambZ/mc5TNYymz1q61Tift2uMgd3vVJMRPIAeOzNOfJmtFmM6GfuiWdZqY1693zRLZYNqYfbi7g5reui62pNYJydUdncobW5Q2tygsrft6vEy4yH8viwmcFpK4/f5aitL0yxFIefz4a995koWeqzMUrx5jN5omdfMN7bz50w84UTjS5mM+vCnipwCZs7exmmjnioYvAkff64jVYQzY1+ldU0L/FWxwBsidf54ryJ4rCI5WUho6U407t23wGSoeRk4M57HRKPX37yl52O+eck2McpcycITHrvwJWxLfJlRL5i5M3UsTjDvYGxVTfbfojPaFLZbWMC4JyQkZ9WmH/aUxZ6W9fY1n8UvW7HKHB4D3/Bd/MKvHJt6Gbz0rO5kbHVNM/z9ATyBEabqG6RD6Jjk5R6NkoQEqM/tq8kgu6n6lMuelt0WvVcDLcKbc31RNabfyPjJsglakB9qYUuFdPhQdnATVXR9CfguSBXG0C+9K96OY/7tYInXPLLg8V6HNbSoKZGlGE3w5OU0LOo894KZk/s4TsiV5CrpEJedw/XQxVWiVEgH66ijK0/m8LjpTN8OZzXZDbwnMEJqZRRdGnbHJCTUzuJNX9BZ1q6a5njHmpZMp1bKxLxgFjq8AiSyFC2NSDLf3KTHl1lrNNy1aeH55VyHNWXe7XGqBRkNaNKwt0GmW9hLw3rBIJY0qCbBfugxC8YYvee2NXNpjqIG1Vj9JxbFlI/Jju+mLzAZWrCfKzMMGsNjkvO1bq4d17Q4Qf6VQcxrUXwnDbtTj9z4X+Xr75IU1lfbek9E6+lh6rfXHB7sk/vj95su6x5q98nk2sOdZPFHpR9xSqZbD0n9Xow8eNkWV6Zbhwf/AEOEI8OEI8OO96s/s9XqZS1xffU77PPSsLfFpZDsN16mus6+hfVVF6p6uBovmHW8zP0wudKTCHGfSE8ihIKERAgFCYkQChISIRQkJEIoSEiEUJCQCKEgIRFCQUIihIKERAiF/wHnbRUXUALfPQAAAABJRU5ErkJggg==;" vertex="1" parent="1">
          <mxGeometry x="-350" y="386" width="201" height="45" as="geometry" />
        </mxCell>
        <mxCell id="J2QmCkhqGNMxqxDou6NT-63" style="edgeStyle=orthogonalEdgeStyle;rounded=0;orthogonalLoop=1;jettySize=auto;html=1;entryX=0.5;entryY=0;entryDx=0;entryDy=0;" edge="1" parent="1" source="J2QmCkhqGNMxqxDou6NT-29" target="J2QmCkhqGNMxqxDou6NT-62">
          <mxGeometry relative="1" as="geometry" />
        </mxCell>
        <mxCell id="J2QmCkhqGNMxqxDou6NT-29" value="" style="shape=image;verticalLabelPosition=bottom;labelBackgroundColor=default;verticalAlign=top;aspect=fixed;imageAspect=0;image=data:image/png,iVBORw0KGgoAAAANSUhEUgAAAMgAAAAuCAYAAABtRVYBAAAEtElEQVR4nO3dzUsbaRwH8G+XXjO2oO5h1YXMgJC0hQ49TETbg5BAz5GlbAUNnvwHjOQ8qP+Alw1G0Js5iphAD12LyaGk4EsgMCNs616il4x/wO5h8jIx8cl7R8j3A8G8zG/mF8g38zxPEnzief7rfyCipn5xuwGix4wBIRJgQIgEGBAiAQaESIABIRJgQIgEGBAiAQaESIABIRJgQIgEGBAigaeD2Kk2MwdtZrbldlaphGzmBPmL80G0QdSzvgdkYnIK2swsrFLpwW2kkZHqXy0wB0l6huzpSb9bIerZAALyOwAIzwzhP/7ExOQUsqdfoM3Mwud/adcwJPTIuDoHyV+eIX18CGlkBD7/S2gzc262Q9TA9Ul6/uK8LiQTk1NutyQU2c+hkNtDxO1G6KdwNSA+/yv4XtjDq+sf38sheeVmS0R1BrKK1Ur+8qw6mb+vMoEnegxcOYPkL86x89c20seHyJ5+qV4GbwW7OQMFo3b5ur9St0VkP9f88eU9fDUMrGkSIAWwZhgoGDnsLgPYTNWuO5VrjjYrd2zgqHz7weM01U5d+bmlNxrLG/qgdrk2xLJKJeQvzpE9PUH29AT5y7MBH3EFu7koArcHmFYU+6JnUHRsoacNrGk3SDoehxa1X4SJRbxRFGxlLcDKYEtRMK2oWEp03sl4MIdVbNf6SJrwVI7TdV0cf+ctwKtCv1enfwjAY2WQjHbe67BzfZL+88gYlwAzt167K7GI9x/j9vXlPYS8gJkMIeZ4fDtrwaMtNLzoeuG5TeFN5bgAEA1hq43jtKrb+ZiCCRmhuqBt4LUXuMt/xk4fn8OwGKKAmChagBxuMhQCEJn3N32X3bm+ATCG35rUdN2JM6QdHKd13Tq+XQEe37vaKtumChkmUs5gUduGKCBxLKkKklcSArHGcb887pxbOC5h2cWeOxfLmYDkx9ty0HRVBq5ytbMidcSVVSw3xYKK/WLZTKEQjqKQljEdXIdZtIDRS2ypi50PRQpF3GGsD93d4N8u5jR1ddEDZIJRvJhfARIyXnsBM9l45qH2DNEZ5J7y+B2jE4igPFRxvPN2TsL4dP09kXk/PE22lNXGlSZdlQGrCFNwhPbq7Mm6x/cO+n4IMifnPRmigGzgqG4JdAVvfRJwe22fMaIHyFgSArFU/UR5eQ9HjqFY0yAlPuPCAuSwo3Z5D6ua1LwV70LdkmtkP4ewFzDTlbOXvazbsGTbsq7c46dL3El+hHwSJ+c9Gq4hlncBBWOhdvvqANPByvAjjiU1Dj1tIGwYCFc3MpFUnCtH9hAmEDNQiFnI6CqWEnEsqTKOjIVarZXBlp7BaizQ0IaZ3EQxaKBQPYiFjK60XDJuuy6xiNQHA2GvhcwnTs57MUQBWcd7pfVYvDpHeZAdpHb3v9P0Rf/QPsT7al13z1Wqq89pqGaIhlhDpPKZTpNlYepM388g1z/+ATALLTAHLdD+19cr38ES/dCK2lP55Hybk/OeDSAg36s/hOqmNn182O+WhoaeNhD2wp7/dLNcTQ2e8B/oED2McxAiAQaESIABIRJgQIgEGBAiAQaESIABIRJgQIgEGBAiAQaESODp6Ni42z0QPVr8LhaRwP+x7fnYTyjEHAAAAABJRU5ErkJggg==;" vertex="1" parent="1">
          <mxGeometry x="-330" y="857" width="200" height="46" as="geometry" />
        </mxCell>
        <mxCell id="J2QmCkhqGNMxqxDou6NT-65" style="edgeStyle=orthogonalEdgeStyle;rounded=0;orthogonalLoop=1;jettySize=auto;html=1;entryX=0.5;entryY=0;entryDx=0;entryDy=0;" edge="1" parent="1" source="J2QmCkhqGNMxqxDou6NT-30" target="J2QmCkhqGNMxqxDou6NT-64">
          <mxGeometry relative="1" as="geometry" />
        </mxCell>
        <mxCell id="J2QmCkhqGNMxqxDou6NT-30" value="" style="shape=image;verticalLabelPosition=bottom;labelBackgroundColor=default;verticalAlign=top;aspect=fixed;imageAspect=0;image=data:image/png,iVBORw0KGgoAAAANSUhEUgAAAMIAAAAqCAIAAABulBOJAAAC+UlEQVR4nO3cv2saYRgH8CdtQQv1roX8WE4LjSBokkE6nJK0QyChoWOkQxOoYpdC5544i83/EBLBdChxDJK6piQOwSE/hIMzUHWyGXqXqVsHpZFETXt5LnrJ9zOp95zvM3x53/fOwyHXkzECuJ57/W4AbgPECBggRsAAMQIGiBEwQIyAAWIEDBAjYIAYAQPECBggRsAAMQIGD0yfKYdn5PB0t6OGrhf3dspHh6a/H2zkvuPhIxOnSW7P3KvXhq7/vsThdBKRw+kcGRlzOJ31WpW7Zxg4Jmcjyf2UiDrON4tv3kpuT3H3uxye9gcmiai4u3PNLntK57XIaPHz86XVHkWpgrY4vLcSXF6zspU7y6q9Ufn4oLC9JYiiPzAph2csGsWc2EZJ1b6l+t3GbWLhFrt8dPg3SZLbY91A0Hfmt9i9+QNThvGLiOq1quT2+ANTg7NJWlsKYmnjxR+j8vGB5PZcuIgTRJF9IBgcFsTo6LA5AwnC4+YnPe4L/Kd4pqSEhNabs67b6nRei4xT17LYRumT/DPnnU8ytQWWLGqGrpf11hWcIIpMMYpnSkrodNMXTBARRbP52U5V0ex+MuQ62fTN9SwDVlbtjSwwPipQpZBovVtfXli/XBPPfGzLUNcyYGajH0MqDYPGF0uZaPeS6MsJgSqlRPcKsISNYrT6LujNnQihpKZq2v5GvEOJb9RFRkO98dbuPBvFiIgoOef1eb2+XMUlK2ohffGw2jjrR1dgsxi1KPMrRYOGpdiFz9frDRImZjtNVGAlG8UonT+ffuIv/AKd1i/dRUws5CouWTlf8qLZfMflD1jZ6EqN6FlE1SKt1+2XY+2UeZ+a3U8qqqYQEZGxl1q+sQbvrCFzfwXRfNiosL115RNFgijG3n+o16q5r19MdQg2YKNFDQaXyUWtXvtBNC2HZuTQFQ+BNH9NM3Td3EBgC6ZjVG0+mPaPxYXtLXMDgS2Y3BsBtMPeCBggRsAAMQIGiBEwQIyAAWIEDBAjYIAYAYM/rQrqql0vCPIAAAAASUVORK5CYII=;imageBorder=#6A00FF;strokeWidth=2;" vertex="1" parent="1">
          <mxGeometry x="-650" y="858.5" width="202" height="44" as="geometry" />
        </mxCell>
        <mxCell id="J2QmCkhqGNMxqxDou6NT-54" style="edgeStyle=orthogonalEdgeStyle;rounded=0;orthogonalLoop=1;jettySize=auto;html=1;entryX=1;entryY=0.5;entryDx=0;entryDy=0;exitX=0;exitY=0.25;exitDx=0;exitDy=0;fillColor=#dae8fc;strokeColor=#6c8ebf;" edge="1" parent="1" source="J2QmCkhqGNMxqxDou6NT-31" target="J2QmCkhqGNMxqxDou6NT-52">
          <mxGeometry relative="1" as="geometry" />
        </mxCell>
        <mxCell id="J2QmCkhqGNMxqxDou6NT-31" value="" style="shape=image;verticalLabelPosition=bottom;labelBackgroundColor=default;verticalAlign=top;aspect=fixed;imageAspect=0;image=data:image/png,iVBORw0KGgoAAAANSUhEUgAAAMUAAAAsCAIAAABaEevtAAADj0lEQVR4nO3cMWgaYRQH8Jda0EJz0iHJoha8A0GbQEIGT5J2MzR0PCmlFTxpl0D3iLPoHnCpaMB2KDqK6EGHYtAbgkM0gnAXqDqFDvWcunU4TTQ10V4+iZe+H7eo3333wD937z4PFxafrABChDy46wLQvYJ5QiRhnhBJmCdEEuYJkYR5QiRhnhBJmCdEEuYJkYR5QiRhnhBJD7Xt5vZsuz1b132qdLtipdSo17RWhfTKYHz0+F/3sVht3pevlG7391+MJhMAGE2mpaUVo8nUabdmUDOaX1rOTxbrUwAYewbiXr+1WG1i+cjt2XK6VgFALJduXyXSi5n0T43TE6GQo8xmp2vV7dmexSGICH6uNqViZJqhfPpYkvKxWVeke7Pqxxv12kWkLFYbiSmjefxG557GfvxmTteaovwCgE67ZbHanK61+Wykku82klMOTfk3UzOt5Z4gnKfG6YnFarty60eZzWSPguYW4etdo15LfooLhZxYPlI3ItNGBKkp+WgAmpOaktQUooNP3h9WpaY02C7e59PHI8PUVql6yI9MO9I/8eljqXrIq8dSt6HWCvun6ZDvn5Rut1GvieWSWC41Tk+IzBn2Mg4mIwPIWcbBMA5vCED9jvfZnxkHwzgYxsFkZLuvWU0HASDl38zKYN/pB4hP77kpObsRmHDNotiwtF5VZ4tVFJpTZ0NT0/H6eOQNu3iW6WcLACC0G6n0KJZTzyL7O9kziv2YDg5G7u5PnrMnxgbDEgFBBsr1nL95DzRCv3mKrttBroZG3kt9rytAb/Qvc2FvRqZYTihydjnrDY2Z4yql/i1x+ap53gNq2UGu5P+AbvPEW5YnDwrtZmXaTsvZnfDsK0Kg4zylOueTB0XzHN1TFJqbbtES3Zpu8wTy+dClrY9/8Yy6vAhGBB+tVOIb8YpCc0J0zByINB3l6UqAEoGDSs/uG1oUiObDQ313rMjZlcqBPzkYqd7tj104QKToKE+JgCCD3Xe5zpTyb6prBP3lIt+yGOvf7sWKTY7uifH+AkHKXzwDmsMYzdyChv8vUB9+Egq5iU84UWZz8MNep93Kfv2itUKkJzo6PyEd0PL7Xaf9A2DLzW672QnPoqi/3CndrpbSkA5py1NLfWJuysFCIafhKEiPtPRPCF0H+ydEEuYJkYR5QiRhnhBJmCdEEuYJkYR5QiRhnhBJmCdEEuYJkfTAYDDcdQ3o/vgD29RvN0PKY64AAAAASUVORK5CYII=;" vertex="1" parent="1">
          <mxGeometry x="-603.5" y="652" width="202" height="45" as="geometry" />
        </mxCell>
        <mxCell id="J2QmCkhqGNMxqxDou6NT-33" value="&lt;font style=&quot;font-size: 15px;&quot;&gt;Control some things with how git works in this repository&lt;/font&gt;" style="text;html=1;strokeColor=#001DBC;fillColor=#0050ef;align=left;verticalAlign=middle;whiteSpace=wrap;rounded=0;fontColor=#ffffff;" vertex="1" parent="1">
          <mxGeometry x="-830" y="187" width="200" height="40" as="geometry" />
        </mxCell>
        <mxCell id="J2QmCkhqGNMxqxDou6NT-35" value="&lt;font style=&quot;font-size: 15px;&quot;&gt;source files for &lt;br&gt;https://softlayer-python.readthedocs.io/en/latest/&lt;/font&gt;" style="text;html=1;strokeColor=#001DBC;fillColor=#0050ef;align=left;verticalAlign=middle;whiteSpace=wrap;rounded=0;fontColor=#ffffff;" vertex="1" parent="1">
          <mxGeometry x="-800" y="431" width="330" height="50" as="geometry" />
        </mxCell>
        <mxCell id="J2QmCkhqGNMxqxDou6NT-41" value="&lt;font style=&quot;font-size: 15px;&quot;&gt;Used by github action to make sure any new command has documentation&lt;/font&gt;" style="text;html=1;strokeColor=#001DBC;fillColor=#0050ef;align=left;verticalAlign=middle;whiteSpace=wrap;rounded=0;fontColor=#ffffff;" vertex="1" parent="1">
          <mxGeometry x="-710" y="570" width="260" height="40" as="geometry" />
        </mxCell>
        <mxCell id="J2QmCkhqGNMxqxDou6NT-43" value="&lt;font style=&quot;font-size: 15px;&quot;&gt;Output all thecommands and their flags, useful for comparing with ibmcloud&lt;/font&gt;" style="text;html=1;strokeColor=#001DBC;fillColor=#0050ef;align=left;verticalAlign=middle;whiteSpace=wrap;rounded=0;fontColor=#ffffff;" vertex="1" parent="1">
          <mxGeometry x="-350" y="120" width="200" height="57" as="geometry" />
        </mxCell>
        <mxCell id="J2QmCkhqGNMxqxDou6NT-47" value="&lt;span style=&quot;font-size: 15px;&quot;&gt;Script for creating a new version&lt;/span&gt;" style="text;html=1;strokeColor=#001DBC;fillColor=#0050ef;align=left;verticalAlign=middle;whiteSpace=wrap;rounded=0;fontColor=#ffffff;" vertex="1" parent="1">
          <mxGeometry x="-315.25" y="280" width="131.5" height="57" as="geometry" />
        </mxCell>
        <mxCell id="J2QmCkhqGNMxqxDou6NT-49" value="&lt;span style=&quot;font-size: 15px;&quot;&gt;Contains pip requirements files&lt;/span&gt;" style="text;html=1;strokeColor=#001DBC;fillColor=#0050ef;align=left;verticalAlign=middle;whiteSpace=wrap;rounded=0;fontColor=#ffffff;" vertex="1" parent="1">
          <mxGeometry x="-316.5" y="440" width="130" height="57" as="geometry" />
        </mxCell>
        <mxCell id="J2QmCkhqGNMxqxDou6NT-52" value="&lt;span style=&quot;font-size: 15px;&quot;&gt;Rules for running tests through the tox command&lt;/span&gt;" style="text;html=1;strokeColor=#001DBC;fillColor=#0050ef;align=left;verticalAlign=middle;whiteSpace=wrap;rounded=0;fontColor=#ffffff;" vertex="1" parent="1">
          <mxGeometry x="-830" y="639" width="185" height="57" as="geometry" />
        </mxCell>
        <mxCell id="J2QmCkhqGNMxqxDou6NT-60" value="&lt;span style=&quot;font-size: 15px;&quot;&gt;The actual source code, The SoftLayer module itself&lt;/span&gt;" style="text;html=1;strokeColor=#2D7600;fillColor=#60a917;align=left;verticalAlign=middle;whiteSpace=wrap;rounded=0;fontColor=#ffffff;" vertex="1" parent="1">
          <mxGeometry x="-167.25" y="600" width="170" height="66" as="geometry" />
        </mxCell>
        <mxCell id="J2QmCkhqGNMxqxDou6NT-62" value="&lt;span style=&quot;font-size: 15px;&quot;&gt;Used for creating the slcli binary, and installing the package on a system. Defines everything about the package&lt;/span&gt;" style="text;html=1;strokeColor=#001DBC;fillColor=#0050ef;align=left;verticalAlign=middle;whiteSpace=wrap;rounded=0;fontColor=#ffffff;" vertex="1" parent="1">
          <mxGeometry x="-358.75" y="950" width="257.5" height="70" as="geometry" />
        </mxCell>
        <mxCell id="J2QmCkhqGNMxqxDou6NT-64" value="&lt;span style=&quot;font-size: 15px;&quot;&gt;Used for development testing of slcli commands&lt;/span&gt;" style="text;html=1;strokeColor=#3700CC;fillColor=#6a00ff;align=left;verticalAlign=middle;whiteSpace=wrap;rounded=0;fontColor=#ffffff;" vertex="1" parent="1">
          <mxGeometry x="-654" y="950" width="210" height="70" as="geometry" />
        </mxCell>
        <mxCell id="J2QmCkhqGNMxqxDou6NT-66" value="&lt;span style=&quot;font-size: 15px;&quot;&gt;Unit tests, similar directory structure to SoftLayer module&lt;/span&gt;" style="text;html=1;strokeColor=#3700CC;fillColor=#6a00ff;align=left;verticalAlign=middle;whiteSpace=wrap;rounded=0;fontColor=#ffffff;" vertex="1" parent="1">
          <mxGeometry x="-100" y="857" width="140" height="73" as="geometry" />
        </mxCell>
        <mxCell id="Hhsv-AD_tMGytm9ESTO6-31" style="edgeStyle=orthogonalEdgeStyle;rounded=0;orthogonalLoop=1;jettySize=auto;html=1;entryX=0.5;entryY=1;entryDx=0;entryDy=0;fillColor=#f8cecc;strokeColor=#b85450;" edge="1" parent="1" source="Hhsv-AD_tMGytm9ESTO6-1" target="Hhsv-AD_tMGytm9ESTO6-30">
          <mxGeometry relative="1" as="geometry" />
        </mxCell>
        <mxCell id="Hhsv-AD_tMGytm9ESTO6-82" style="edgeStyle=orthogonalEdgeStyle;rounded=0;orthogonalLoop=1;jettySize=auto;html=1;entryX=0;entryY=0.5;entryDx=0;entryDy=0;" edge="1" parent="1" source="Hhsv-AD_tMGytm9ESTO6-1" target="Hhsv-AD_tMGytm9ESTO6-65">
          <mxGeometry relative="1" as="geometry">
            <Array as="points">
              <mxPoint x="330" y="154" />
              <mxPoint x="330" y="130" />
            </Array>
          </mxGeometry>
        </mxCell>
        <mxCell id="Hhsv-AD_tMGytm9ESTO6-88" style="edgeStyle=orthogonalEdgeStyle;rounded=0;orthogonalLoop=1;jettySize=auto;html=1;entryX=0;entryY=0.5;entryDx=0;entryDy=0;" edge="1" parent="1" source="Hhsv-AD_tMGytm9ESTO6-1" target="Hhsv-AD_tMGytm9ESTO6-68">
          <mxGeometry relative="1" as="geometry">
            <Array as="points">
              <mxPoint x="330" y="154" />
              <mxPoint x="330" y="272" />
            </Array>
          </mxGeometry>
        </mxCell>
        <mxCell id="Hhsv-AD_tMGytm9ESTO6-90" style="edgeStyle=orthogonalEdgeStyle;rounded=0;orthogonalLoop=1;jettySize=auto;html=1;entryX=0;entryY=0.5;entryDx=0;entryDy=0;" edge="1" parent="1" source="Hhsv-AD_tMGytm9ESTO6-1" target="Hhsv-AD_tMGytm9ESTO6-69">
          <mxGeometry relative="1" as="geometry">
            <Array as="points">
              <mxPoint x="330" y="154" />
              <mxPoint x="330" y="333" />
            </Array>
          </mxGeometry>
        </mxCell>
        <mxCell id="Hhsv-AD_tMGytm9ESTO6-98" style="edgeStyle=orthogonalEdgeStyle;rounded=0;orthogonalLoop=1;jettySize=auto;html=1;entryX=0;entryY=0.5;entryDx=0;entryDy=0;" edge="1" parent="1" source="Hhsv-AD_tMGytm9ESTO6-1" target="Hhsv-AD_tMGytm9ESTO6-71">
          <mxGeometry relative="1" as="geometry">
            <Array as="points">
              <mxPoint x="330" y="154" />
              <mxPoint x="330" y="521" />
            </Array>
          </mxGeometry>
        </mxCell>
        <mxCell id="Hhsv-AD_tMGytm9ESTO6-101" style="edgeStyle=orthogonalEdgeStyle;rounded=0;orthogonalLoop=1;jettySize=auto;html=1;entryX=0;entryY=0.5;entryDx=0;entryDy=0;" edge="1" parent="1" source="Hhsv-AD_tMGytm9ESTO6-1" target="Hhsv-AD_tMGytm9ESTO6-72">
          <mxGeometry relative="1" as="geometry">
            <Array as="points">
              <mxPoint x="330" y="154" />
              <mxPoint x="330" y="617" />
            </Array>
          </mxGeometry>
        </mxCell>
        <mxCell id="Hhsv-AD_tMGytm9ESTO6-105" style="edgeStyle=orthogonalEdgeStyle;rounded=0;orthogonalLoop=1;jettySize=auto;html=1;entryX=0;entryY=0.5;entryDx=0;entryDy=0;" edge="1" parent="1" source="Hhsv-AD_tMGytm9ESTO6-1" target="Hhsv-AD_tMGytm9ESTO6-73">
          <mxGeometry relative="1" as="geometry">
            <Array as="points">
              <mxPoint x="330" y="154" />
              <mxPoint x="330" y="695" />
            </Array>
          </mxGeometry>
        </mxCell>
        <mxCell id="Hhsv-AD_tMGytm9ESTO6-108" style="edgeStyle=orthogonalEdgeStyle;rounded=0;orthogonalLoop=1;jettySize=auto;html=1;entryX=0;entryY=0.5;entryDx=0;entryDy=0;" edge="1" parent="1" source="Hhsv-AD_tMGytm9ESTO6-1" target="Hhsv-AD_tMGytm9ESTO6-74">
          <mxGeometry relative="1" as="geometry">
            <Array as="points">
              <mxPoint x="330" y="154" />
              <mxPoint x="330" y="760" />
            </Array>
          </mxGeometry>
        </mxCell>
        <mxCell id="Hhsv-AD_tMGytm9ESTO6-111" style="edgeStyle=orthogonalEdgeStyle;rounded=0;orthogonalLoop=1;jettySize=auto;html=1;entryX=0;entryY=0.5;entryDx=0;entryDy=0;" edge="1" parent="1" source="Hhsv-AD_tMGytm9ESTO6-1" target="Hhsv-AD_tMGytm9ESTO6-75">
          <mxGeometry relative="1" as="geometry">
            <Array as="points">
              <mxPoint x="330" y="154" />
              <mxPoint x="330" y="852" />
            </Array>
          </mxGeometry>
        </mxCell>
        <mxCell id="Hhsv-AD_tMGytm9ESTO6-119" style="edgeStyle=orthogonalEdgeStyle;rounded=0;orthogonalLoop=1;jettySize=auto;html=1;entryX=0;entryY=0.5;entryDx=0;entryDy=0;" edge="1" parent="1" source="Hhsv-AD_tMGytm9ESTO6-1" target="Hhsv-AD_tMGytm9ESTO6-76">
          <mxGeometry relative="1" as="geometry">
            <Array as="points">
              <mxPoint x="330" y="154" />
              <mxPoint x="330" y="914" />
            </Array>
          </mxGeometry>
        </mxCell>
        <mxCell id="Hhsv-AD_tMGytm9ESTO6-122" style="edgeStyle=orthogonalEdgeStyle;rounded=0;orthogonalLoop=1;jettySize=auto;html=1;entryX=0;entryY=0.5;entryDx=0;entryDy=0;" edge="1" parent="1" source="Hhsv-AD_tMGytm9ESTO6-1" target="Hhsv-AD_tMGytm9ESTO6-77">
          <mxGeometry relative="1" as="geometry">
            <Array as="points">
              <mxPoint x="330" y="154" />
              <mxPoint x="330" y="985" />
            </Array>
          </mxGeometry>
        </mxCell>
        <mxCell id="Hhsv-AD_tMGytm9ESTO6-125" style="edgeStyle=orthogonalEdgeStyle;rounded=0;orthogonalLoop=1;jettySize=auto;html=1;entryX=0;entryY=0.5;entryDx=0;entryDy=0;" edge="1" parent="1" source="Hhsv-AD_tMGytm9ESTO6-1" target="Hhsv-AD_tMGytm9ESTO6-78">
          <mxGeometry relative="1" as="geometry">
            <Array as="points">
              <mxPoint x="330" y="154" />
              <mxPoint x="330" y="1052" />
            </Array>
          </mxGeometry>
        </mxCell>
        <mxCell id="Hhsv-AD_tMGytm9ESTO6-128" style="edgeStyle=orthogonalEdgeStyle;rounded=0;orthogonalLoop=1;jettySize=auto;html=1;entryX=0;entryY=0.5;entryDx=0;entryDy=0;" edge="1" parent="1" source="Hhsv-AD_tMGytm9ESTO6-1" target="Hhsv-AD_tMGytm9ESTO6-79">
          <mxGeometry relative="1" as="geometry">
            <Array as="points">
              <mxPoint x="330" y="154" />
              <mxPoint x="330" y="1168" />
            </Array>
          </mxGeometry>
        </mxCell>
        <mxCell id="Hhsv-AD_tMGytm9ESTO6-133" style="edgeStyle=orthogonalEdgeStyle;rounded=0;orthogonalLoop=1;jettySize=auto;html=1;entryX=0;entryY=0.5;entryDx=0;entryDy=0;" edge="1" parent="1" source="Hhsv-AD_tMGytm9ESTO6-1" target="Hhsv-AD_tMGytm9ESTO6-80">
          <mxGeometry relative="1" as="geometry">
            <Array as="points">
              <mxPoint x="330" y="153" />
              <mxPoint x="330" y="1244" />
            </Array>
          </mxGeometry>
        </mxCell>
        <mxCell id="Hhsv-AD_tMGytm9ESTO6-134" style="edgeStyle=orthogonalEdgeStyle;rounded=0;orthogonalLoop=1;jettySize=auto;html=1;entryX=0;entryY=0.5;entryDx=0;entryDy=0;" edge="1" parent="1" source="Hhsv-AD_tMGytm9ESTO6-1" target="Hhsv-AD_tMGytm9ESTO6-81">
          <mxGeometry relative="1" as="geometry">
            <Array as="points">
              <mxPoint x="330" y="153" />
              <mxPoint x="330" y="1344" />
            </Array>
          </mxGeometry>
        </mxCell>
        <mxCell id="Hhsv-AD_tMGytm9ESTO6-135" style="edgeStyle=orthogonalEdgeStyle;rounded=0;orthogonalLoop=1;jettySize=auto;html=1;entryX=0;entryY=0.5;entryDx=0;entryDy=0;" edge="1" parent="1" source="Hhsv-AD_tMGytm9ESTO6-1" target="Hhsv-AD_tMGytm9ESTO6-66">
          <mxGeometry relative="1" as="geometry">
            <Array as="points">
              <mxPoint x="330" y="154" />
              <mxPoint x="330" y="1439" />
            </Array>
          </mxGeometry>
        </mxCell>
        <mxCell id="Hhsv-AD_tMGytm9ESTO6-143" style="edgeStyle=orthogonalEdgeStyle;rounded=0;orthogonalLoop=1;jettySize=auto;html=1;entryX=0;entryY=0.5;entryDx=0;entryDy=0;" edge="1" parent="1" source="Hhsv-AD_tMGytm9ESTO6-1" target="Hhsv-AD_tMGytm9ESTO6-70">
          <mxGeometry relative="1" as="geometry">
            <Array as="points">
              <mxPoint x="330" y="154" />
              <mxPoint x="330" y="416" />
            </Array>
          </mxGeometry>
        </mxCell>
        <mxCell id="Hhsv-AD_tMGytm9ESTO6-144" style="edgeStyle=orthogonalEdgeStyle;rounded=0;orthogonalLoop=1;jettySize=auto;html=1;entryX=0;entryY=0.5;entryDx=0;entryDy=0;" edge="1" parent="1" source="Hhsv-AD_tMGytm9ESTO6-1" target="Hhsv-AD_tMGytm9ESTO6-67">
          <mxGeometry relative="1" as="geometry">
            <Array as="points">
              <mxPoint x="330" y="154" />
              <mxPoint x="330" y="185" />
            </Array>
          </mxGeometry>
        </mxCell>
        <mxCell id="Hhsv-AD_tMGytm9ESTO6-1" value="" style="shape=image;verticalLabelPosition=bottom;labelBackgroundColor=default;verticalAlign=top;aspect=fixed;imageAspect=0;image=data:image/png,iVBORw0KGgoAAAANSUhEUgAAALYAAAAvCAYAAABOmTCPAAACR0lEQVR4nO3aMWsTYRzH8V/FtQld6qIuFwiUOhgcYtE1FOkYcdBCW3wPpmQOPd+AU0gLtUNJRylGcKo0N0g2hUDSoe1UXO7yAnQQJIltTbyLd/7z/UCG3HP33DN8Oe6Sm5mdu/VdgDE34l4AMAmEDZMIGyYRNkwibJhE2DCJsGESYcMkwoZJhA2TCBsmETZMImyYdDOKSQrLK0ql0wPbAt+X1zxS4PtRnAIYy0zY11YLyytaWLx35fjB/p7Oz07DnAIYW+gr9nVRSz/D//D+3R/nCQKfqzsiE8mtyHVS6bSKz56PtK93/Ene8VHIM77UTqukh6mhzUFTr3OrqmlLh52nmvdcPXhRvfr4b3VlC5sh14K4JOrhMb/0KNTxG29bandKWvzqKpvJ9H3q6ka0RvwfJn7F/mfchl7lpWYlo7Xt4cFNPcnFsSjEJVFX7L+3pcOio5735pKoMY1shO3m5KirxqX3zJhGJsKu5BwpuOA+Gr+YCBsYRtgwyUTY3YtASs3LiXshSAwTYdc+flFPju67ca8ESWEibG2vqnEiOcWGKnGvBYlgI2xJ5YKrZuCo2GlpZ31ocH1Xn1u72ohlZYhD6H8eA9//7ZXVeFS1lqtKbkPtckft8uBoz3NV6/s+my+p3SkN7nRSV7bAj4YWTPy11XGcn53qYH8vkrkw3UKHLUn5pce6feduqDkC3x/p9VZgFJGEDSSNmYdHoB9hwyTChkmEDZMIGyYRNkwibJhE2DCJsGESYcMkwoZJhA2TCBsmETZM+gHgdYJT1eVA6QAAAABJRU5ErkJggg==;imageBorder=#CC0000;strokeWidth=2;" vertex="1" parent="1">
          <mxGeometry x="116" y="130" width="182" height="47" as="geometry" />
        </mxCell>
        <mxCell id="Hhsv-AD_tMGytm9ESTO6-2" value="" style="shape=image;verticalLabelPosition=bottom;labelBackgroundColor=default;verticalAlign=top;aspect=fixed;imageAspect=0;image=data:image/png,iVBORw0KGgoAAAANSUhEUgAAALYAAAAuCAYAAACFxeMqAAAD50lEQVR4nO3asWsbZxjH8W9KV58ppOmQtoPuQNC0y+FBCu1UkILI1hOl1AbLeApktoxnkfMc8GTsgJIh+LoFk9OaktNg1KXLwZ2GxFnsLDr9Ae1wkiXFcnLRydh69XzgQLx397yH+Pn1+766GwtfffMfQijmi6t+ACEugwRbKEmCLZQkwRZKkmALJUmwhZIk2EJJEmyhJAm2UJIEWyhJgi2UJMEWSpJgCyV9mbZA4d59tMXFkbao06HpvSLqdNKWF2IiN9K8tlq4d58ffvzpwvPO82ccv30zaXkhJpZqxP5YqCEOfuPli0/WiaJO+tG9UudoK88C0G3aLC3vpqsnZlrqqcjHaIuLWL//meja5uu/ab5+NVlHvVCfOAZL1bhp7WmLjdwpjlFka7KqYoZdm8Vj7u7PE9+79usdFgj5p5ruGWqNAL/xKF0RcS1c6oh9lfaWTfau+iHElbk2I7YQ0zTzwT4MAjZyGqBjBQF+4FIjnmP3P1OpcxScn2bE17R48peLHwRYGSBTxr+ozjDbje+tDNVq1Vnr9zV0DnrTnGBwHNqj5eJ+hq5p1Vmb4vc0b2Y+2CXDYLsZASGOYZAdt1jcX2HJCSFTHIStUudBTiN0TFZ/K5I1DJw20D4ge1GdT7rDg4ewYxhkDZPVfYB1nrQCrJse24YR13ZCdGsQ7sFCt3fesPHeT/qNCFAg2IlVizhtjfzDeCSs/ZFnoX1AKeWCc4QG/z5eGZ3b22XyWoQ33F4t4rRBL8TPot/SoN0a+kPaZbWwImuEFOYn2MBW4YBQy2M1XKxMiFPYnHIPp7zbH22pmTq03d7oPRCeRKDdQu9/zpQ5ero+5eeZX8ruioy3Sckx8S2d0DGmv78dnRCONKxz+yaglfGD8pgbToHeDo7t4ltV/KAKkce2KSN2GnM1YsMjDi2dbhShW2MWhGPsHZ+m6G+Xd+8Zmrd/eAzN46vFXlv8X2Vj3IJVJDZXwa41yuiRx465gxfpWIl/jPma25XRlpqpJ7oznmaYnxHSTUo1j+6YPkVy8xNs28XK9Bdxu6w+9uhmyiPbbmNDWG0RMlh0Dmol63Zv2SVEx/pw+852z/quNUZH5/iX1PPzdZFcqmDPzGuptotv6XSbO4NF3P4Kbht0a7DffBbCoX3ssxFUy7PR32M2W2SdcHxf52xSMmw8hu4PAvzCCc7Zjky/z/iQd1zSu9TXVj/H8ds3OM+fTaWWEKmCDZC7+wvffvd9qoeIOp1Er7cKkVTqYAtxHc3P4lHMFQm2UJIEWyhJgi2UJMEWSpJgCyVJsIWSJNhCSRJsoSQJtlCSBFsoSYItlCTBFkr6H7VygHnAH3rIAAAAAElFTkSuQmCC;fillColor=#6a00ff;strokeColor=#3700CC;fontColor=#ffffff;strokeWidth=2;imageBorder=#6A00FF;" vertex="1" parent="1">
          <mxGeometry x="-138" y="481" width="182" height="46" as="geometry" />
        </mxCell>
        <mxCell id="Hhsv-AD_tMGytm9ESTO6-59" style="edgeStyle=orthogonalEdgeStyle;rounded=0;orthogonalLoop=1;jettySize=auto;html=1;entryX=1;entryY=0.5;entryDx=0;entryDy=0;fillColor=#d5e8d4;strokeColor=#82b366;" edge="1" parent="1" source="Hhsv-AD_tMGytm9ESTO6-3" target="Hhsv-AD_tMGytm9ESTO6-32">
          <mxGeometry relative="1" as="geometry" />
        </mxCell>
        <mxCell id="Hhsv-AD_tMGytm9ESTO6-3" value="" style="shape=image;verticalLabelPosition=bottom;labelBackgroundColor=default;verticalAlign=top;aspect=fixed;imageAspect=0;image=data:image/png,iVBORw0KGgoAAAANSUhEUgAAALUAAAAtCAYAAADoZiqHAAAES0lEQVR4nO2aTWsbVxSGn5RuPabgqou4XVgDgjpdeMhCKqWbgBVMlmNKqQ2W8Sp/wDZaC8vrQlZGMsihBM8yiNiQTVIyWojxJi0IZrxI1I3cjcY/oF3oazRSHOvDX1fnAS9059z3Hot3zpw7uvemvvrmPwRBIb646QQEYdyIqQXlEFMLyiGmFpRDTC0oh5haUA4xtaAcYmpBOcTUgnKIqQXlEFMLyiGmFpTjy1EFFh8/QZue7hrz63VK9lv8en1UeUEYmHujnNJbfPyE7x/88Mnr1ovnVD9+GFZeEIZipEp9kaGhYfrjVy8/q+P7danqwtgYuf24CG16GvOX3y4VW3r3J6V3b68yHWFCuDUbxfiPP910CoIi3BpTC8K4EFMLynGlPfX1sEPRXQZL58RwMeeaw77NrrFKLntExYy2oz1LZ2krMD10vTemo2/NOmzGtdYC2BmDtfwgWg0yx4E8Ac86BHOZSCnLw5W99vj6QXA9OA9dzxy7mBwSc4zmuh6WniTdzDmYSb88VEWZSh01XRYcnZiuE8vYnGsJnjoOlcUau3pjfLfkEzUd9lOtWRvsL4LVvN4/pqP/lGftOOtUI5E+IsMgWhvsOy7mjN3OKaY3DN19KzQMuxk/6+hlbIhvUT7Y6A6cSVI2nKZWx9CRUradR8zyxvdF3wGUMTWnh51KlF/l6BSmNLB/XyXXHM6tHOGh8eBRyxh7rBlJ0gGZVkwk1qsfrJLpP2zOibKQbY1cQiu7TELzsIxOTrDNUsbmPLhWqkByDjwroJdf5VnJZyq+HLiRAO2Mo8XtwNxZIvi8f93Jla3kxFRpUMjUnrPd/bnmA2f8k+8f30WqQNl1qbguleZjOzLbXRHD+uSr1PrEXaSVMaLg1+ipm02tFuuP5pnybayQEXPVM+Br7gefImG9fJUa4afIZKGMqYdjh6LrUknP8z7TaQeGe1h/TmuD+zPAv9VAle5PNKKBlmCzfXM0/8xwk9JPb5slPYvtRzGb84rZ3mkqo8BGcXgyx8tEWxvKW6Tl1XyY+WsErT3WjEb7sX7gsGm6lGe7N5kqM+GVug9Zo2fTNh6tPd787cOc0dsWhNbMVc9Am+fnVDhwcHIrBtYpTEXG9l/deiba1F7ND5lnh2K/R/yYtBobxyimU2CdT8exdYjt9+mLUwWK4bcfYXpidliYg/Pa5LwBGcnUd/0QUqOKaSTSrb7V4GTInvpyWtss6Yd4Xf1yv7g91gwd67TTF1dcl0o6wsklWohIfCvQi/e+/1adKz16OgjVjx+wXjwfi9bdo/MDzyS9ersqRtooHr96ie/Xmf32u5GS8Ov1Sx1RVZasQRQfu3LTiajBSJVaGJBUgfKvVR52/VhSoJxOwIS1CFeJmPpa6T2TAZN1LuM6EFMLyjHRr/QENRFTC8ohphaUQ0wtKIeYWlAOMbWgHGJqQTnE1IJyiKkF5RBTC8ohphaU439UuNYhlhXY6gAAAABJRU5ErkJggg==;" vertex="1" parent="1">
          <mxGeometry x="-149" y="1161" width="181" height="45" as="geometry" />
        </mxCell>
        <mxCell id="Hhsv-AD_tMGytm9ESTO6-61" style="edgeStyle=orthogonalEdgeStyle;rounded=0;orthogonalLoop=1;jettySize=auto;html=1;entryX=0.5;entryY=1;entryDx=0;entryDy=0;fillColor=#d5e8d4;strokeColor=#82b366;" edge="1" parent="1" source="Hhsv-AD_tMGytm9ESTO6-4" target="Hhsv-AD_tMGytm9ESTO6-40">
          <mxGeometry relative="1" as="geometry" />
        </mxCell>
        <mxCell id="Hhsv-AD_tMGytm9ESTO6-4" value="" style="shape=image;verticalLabelPosition=bottom;labelBackgroundColor=default;verticalAlign=top;aspect=fixed;imageAspect=0;image=data:image/png,iVBORw0KGgoAAAANSUhEUgAAALUAAAAtCAYAAADoZiqHAAAC7ElEQVR4nO3av2saYRgH8G9KV086aIeaDo0ghHSRDjG0ZCiYUDKedGgDUfwfYnCW2LlrUMGEEnJjCTVjU3IOYpd2ODgdEic73fkHtIOxiUd+mTsT78n3Azf43vs+vMOXl8eXmwo8efoXRII8uu8NEHmNoSZxGGoSh6EmcRhqEoehJnEYahKHoSZxGGoSh6EmcRhqEoehJnEeuy2QXF6BEgwOjdmWhbp+CNuy3JYnGtmUm6/0kssrmJ17eel7bXcHnZPj25YnuhVX7cdVgQb6oY9MP7/2cZ70XspsN2E0q8h4VcusoTAYSFfRME3sFz0oTp5x3X5cRQkGob7/cKO59aMfqB8djnM79EBMzB/F+YXX970FEmJiQk3kFYaaxBlrT31nijUY6sy5gRa06BLyQ5M2sW+m8H9Wew+x5MZwnXQVjXwCgcFvW8en+CpK49k1jYn/T+piDYYagl6IIhbtP1rbMUdJYN2M4+fp+1hBR+9FCo3t7HCdfAJdbVCnCB0JrHt0c0J3x/ehzkRCgP0b38tnY/mk85S2oRfOjZVXUWsDgdnF08BmUUnOAO09vMsNJm1h7bOOnpKAyis7X/F9qEudP/2T+GDz8kmO0ANAq2sDSrjfjqQXMafY0L842pFyB10A4UgW5B/+76lzS4gZVTTyKRhmChf309eIhRGAgkTehHHBwp5HW6W74f9QA0B5Fa/KAJBFpZmDajbxrBDHWvm6haeMLnoI4dcoa2hi+b79GLaFtfgeWlAQjo2wrNxBFwrm3rLNkMD3oc5s11BJnxsoxjEDG11jlCob0Oo2AvM5x3ccWVQOePvhN67aD9uyxvox0s2EHL2wDf0WbUTpYxylYg2GasJQz8ZbWpT31D4z1k9PR9E5OYa2u+NJLXrYXIUaAOYX3iAy/dzVJmzLwsG3r65qEA24DjXRpPH9H0UiJ4aaxGGoSRyGmsRhqEkchprEYahJHIaaxGGoSRyGmsRhqEkchprEYahJnH+peMcsb2/aWwAAAABJRU5ErkJggg==;" vertex="1" parent="1">
          <mxGeometry x="123" y="493" width="181" height="45" as="geometry" />
        </mxCell>
        <mxCell id="Hhsv-AD_tMGytm9ESTO6-5" value="" style="shape=image;verticalLabelPosition=bottom;labelBackgroundColor=default;verticalAlign=top;aspect=fixed;imageAspect=0;image=data:image/png,iVBORw0KGgoAAAANSUhEUgAAALcAAAAtCAYAAADsk/q6AAAD7klEQVR4nO3aTWsbRxzH8W9Kr5Ip1O4hbg/WwkLdHrL4YJWSS0EKIccVJTQGS+Q9WEFn4fUb6EnYASmH4D0GEwl6SFMiHYR6cQ4Lsz4k7kU5af0C2sOunio/xN5V7Uz/HxDYM7szc/h5PDOaW6kvvvobITT02XUPQIh5kXALbUm4hbYk3EJbEm6hLQm30JaEW2hLwi20JeEW2pJwC21JuIW2JNxCW58n0Uju3gPSCwtTZcFgQKf9mmAwSKILIS7tVtxbgbl7D/j2u+/PrHefP+P4/bs4XQhxJbFn7vOCDWH4Wy9fXNhOEAxklheJSmRZcp70wgL2z7981LOdN3/QefN6ziNKRqnRY2v9A66Rp3LdgxGnulEbyvUffrzyu6VGD69Xp5TgeELbHCjFgZN4w2LO5j5z62r3kcXudQ9CnOtGzdxCJEmLmburFCkAsmwpxRYB7arF5l5YH66P06PnTzoOa49q4wacJp6dmWjRxzXy0FLYK1GRrfBs4GgfM/dkds1drNOtrHJYtfjr4cR7UVvT6/JtDlSBzGR/Ltj24tS4RTxazNxrhsFOJ4CgzY5hYBrjgFRbKgqhgWkYmNU2rJfpNh6HDzhNPHuRdjWqNwzco7CqkjMwjX18wHej+tyTc0aSJltR3OkN23JoBxnsyb1AsU5XFVjqOKP+TBfsqT8ukQQtwn2mYp38CvjuxMy5t8GvnYDUeoEqUFpehOAtv0/MlpXc1U9ATjoO98vD32pstnxIr3K3GJZUH2ZJHe1P/+co58M/TpEorcNd+mmVVNDGLU+X7x5/ABa5XYx+TmfZam0n0GPA4W+16SKvzwlplkyAbe6swEnfn3kzHJNIkhZr7rNkltJhcJVia6Y2minLeUyvTrdSwFMFTl8jJ6S4zBLQP65d+KiIT+tw+/0AvnzLjrVx/rHd3gZrewCPedorY6set2Vj98nTelkSLjnG692L1di09vFHy4iE7b3iMICMNbsEqlqyoUyaNuE+NcjlfdpBmmylSXXy4WKdg+i0pNRo8nTyHcciQ0DfGxb49M8I5OVFG8yVwvi0BsBpThwdiqTEDveNuew0CrLCU70osDU2LQP3KIOtFN7wU1niz9FpxWL0TvSZOWseB9JTCi/uxrOcx3R9UuvlcZ9WD9Od3WSKeOZ+5fUyjt+/w33+LJG2PjlOE89GLmIlKPaGsvXyBUEwYPnrb2K1EwwGH3U1VldVKwNBG5m/kxN75haXU2r0sI+tiS96htcDkK/eEybh/q/N3GOBuZ6t/49JuIW2tDkKFOLfJNxCWxJuoS0Jt9CWhFtoS8IttCXhFtqScAttSbiFtiTcQlsSbqGtfwDTRWIwafnlIgAAAABJRU5ErkJggg==;fillColor=#6a00ff;fontColor=#ffffff;strokeColor=#3700CC;imageBorder=#6A00FF;strokeWidth=2;" vertex="1" parent="1">
          <mxGeometry x="-123" y="286" width="183" height="45" as="geometry" />
        </mxCell>
        <mxCell id="Hhsv-AD_tMGytm9ESTO6-62" style="edgeStyle=orthogonalEdgeStyle;rounded=0;orthogonalLoop=1;jettySize=auto;html=1;fillColor=#d5e8d4;strokeColor=#82b366;" edge="1" parent="1" source="Hhsv-AD_tMGytm9ESTO6-6" target="Hhsv-AD_tMGytm9ESTO6-34">
          <mxGeometry relative="1" as="geometry" />
        </mxCell>
        <mxCell id="Hhsv-AD_tMGytm9ESTO6-6" value="" style="shape=image;verticalLabelPosition=bottom;labelBackgroundColor=default;verticalAlign=top;aspect=fixed;imageAspect=0;image=data:image/png,iVBORw0KGgoAAAANSUhEUgAAALYAAAAvCAYAAABOmTCPAAAEgElEQVR4nO3awWsiZxjH8e+WXjWUdtND0x6cAaFJD5FA11LaQ8Esyx5HSmkWYshpIecYPIvmvJCTmECyLIsel7B6K1vWHMReQkF49bBrLyY9OP4B7WEmxjEmGjUb8+7zuY3zvm+e4G9e33ln7vk++/I/hNDMJ7ddgBA3QYIttCTBFlqSYAstSbCFliTYQksSbKElCbbQkgRbaEmCLbQkwRZakmALLUmwhZY+HXeAyMPH+GdmPJ/ZrRZHpTfYrda4wwsxknvjvLYaefiYbxe+u/R8/uVzGu/fjTq8ECMba8a+KtTgBL/4+tXAcWy7JbO7mKixlyJX8c/MYP36+1Btj97+ydHbNzdZjviITM3N44Mffhy579pBhWpln7UJ1nPXJIuKajF122VMjakJthCTJMEWWrrRNfaHUFYKHwBhNpViE5tSMsTqbopDFYW8yV8hhRUA6jmCkS1IF6hahmecWt7kUfzs6Lxvfq7C5gO/+/nZ2Of91g66zwN2ie3QE7I4ywOLHMEXc5QTYbdOb5tz6+xV4oS7hurUeya2Tzkxz3FyBzactu2Tf/Hd/9xtEKWqokCNvLlMYkB9OrvzM/aSabJ9ZDtfmGkSNL3Bm41UWKyYBE3TDck6exHIm+5nbn/DqrAX845tWIqn7HTa5et+wokCSfe8E5qTrrHSlE57CvximfIG7HTa5Kj5w2x23xPE9imrOOHTXOdvBc0ctUC0773DwsZTeOa0Wwp/79aGcyGYJkFPqAfUp6k7H+xBfKeFrpkYIMNqyPniz2RXCtTwMxvs6VzPsbSS6RwmXpRoY7CYdo6NWT/UK11jZViN9MyG/hMKnhlyi0fJEm1/GMsdJ/lbGF/v7NynnTsg/L3juXgvM1R9mtI+2O1mrf+J2D5lpagqRVVFMYDZuXVPk1ply9tnt0Gzq12taUMgSvnA28/DE6x+46RYDPT5WwC7f3BsgxHy7nY0G5mLbfsYqj5NaR/siyFIcagU1cQ8x8mun/0Rxs6uhAjma/gexJ0LZJQtx9gcs9fqYNOsfsD67ijtg90rWYxi2CW2e9biI4sve9fO6nwNPkizkenM3jdmjPruso8u2H2lQxiDWw3grom5z1fdN6GB0MUgpUMYnZm3RrPPcgOA2M8s+C9ZpkyqPk1pEexs4wT88/w0xBdWa9o9bVMcWqPFOln0zn5rv8zj44R/PL8EBlb3E8HYPmXLgHrB/cXIsPqsRDsQ7XlymOIw4dxUem9+r/i/ei6i4erT01j72HardeGV1VsRz1GKxAknFNXExb3mbtmVEEZRYSUU1QQ4e745UNFrrnUBDCylsDrH5/vHHfUc281ld3/Z0T5KE+zabWH3CUvuvvuV7a6QXSlgqahbj1PHUPVp6kZfW72Oxvt35F8+n8hY06LzgCYyiaWEuI6xZuzi61fYdou5r78Zqwi71Rrq9VYhhjX2I3V51VRMIy1uHoXoNdYaW4hpJTO20JIEW2hJgi20JMEWWpJgCy1JsIWWJNhCSxJsoSUJttCSBFtoSYIttCTBFlr6H3qsxnldA2BJAAAAAElFTkSuQmCC;" vertex="1" parent="1">
          <mxGeometry x="110" y="323" width="182" height="47" as="geometry" />
        </mxCell>
        <mxCell id="Hhsv-AD_tMGytm9ESTO6-60" style="edgeStyle=orthogonalEdgeStyle;rounded=0;orthogonalLoop=1;jettySize=auto;html=1;entryX=0.25;entryY=1;entryDx=0;entryDy=0;fillColor=#d5e8d4;strokeColor=#82b366;" edge="1" parent="1" source="Hhsv-AD_tMGytm9ESTO6-7" target="Hhsv-AD_tMGytm9ESTO6-42">
          <mxGeometry relative="1" as="geometry" />
        </mxCell>
        <mxCell id="Hhsv-AD_tMGytm9ESTO6-7" value="" style="shape=image;verticalLabelPosition=bottom;labelBackgroundColor=default;verticalAlign=top;aspect=fixed;imageAspect=0;image=data:image/png,iVBORw0KGgoAAAANSUhEUgAAALQAAAAvCAYAAABKbOCyAAAEZElEQVR4nO3dwUsjZxjH8e+WvWbcvdiLWnACQuIuOPQwCboeBLOUPY6U0i5o8FTY80ZyDknPhZ5EBYU9mOMiu4E9WIvJYRlhjYFARqh6sqdM/oD2kE5MYtTJdmKWt88HBsk478x7+OWd531nxAehx1//jRCK+GrYHRAiSBJooRQJtFCKBFooRQItlCKBFkqRQAulSKCFUiTQQikSaKEUCbRQigRaKEUCLZTyMMiTmfE5zPjsnce59Tql4gGV8nGQlxciuECPjU9gxmdx6/Ubj9FGRlo/zdgcmvaI0uFBUF0QIshAfwNw68hrff8jY+MTlA7/wIzPEok+abaRUIuADKWGrpx8ovDuLdrICJHoE8z43DC6IRQ0tElhpXzcEeqx8YnAzp0p1KjWauzlev8+uWNTrdWubZ3Hr7Jl16gWsoH1SwzeUAIdiT4lMt0sNy7Oz/4N9dOAzp5lZtKl4YJu3BZGh3w4zJS35R10q8bHndWA+iGG4V4DXTn5BIAZn2Xx+QsWn79ojczehPE/yxno7gm/FRyYNMj4bZdKkD+FUGSeZDA9EUMQ6LLdXSrlYy7Ozxgbn0DTHrX2+1nq82eVrUWdRmWXjZSOZS0xkwNS/lqnbQfLGkUPqDfi/t17yeHW61TKx5QODygdHrRG7UCszDOtuZQ/rANrHJ2Cvrg9sBE3uWNTtbdJkmWvox5/f3VnyL2nWrPZWrnePlOoUbW3B9S7/yelnhQmF6KE3BN+32x+TtsOaFGe9QhTLxlDB/cSp6+rRvm5ZnDUqsdzFF0dywt1ysZBY3qhqzZf2SYxCU7hZV9XE7dTKNCrPItoNCr7bHi7bgpTD8kdG2vSpfjry6v2fmhQziRIt3ass2zs4qCT2FkF1siXXELmUkc9n1yIEsLhyGc5JPxRJ9C5JWKtcsPTLDt6T/R0rLYy4bX5F/mwwfJmn9dtuyNccbh0ITTarMY3PpzQQG/W80Dry1fabfsiiCDc66RwkDJGMzyxdI3qtZTEsHKw0TEaOuTDifsJ1OY+5VcxYkYWWOuq9UWQFBmhs8xMQqOUu1pXbm27ONy1Jj0YjUuvGl9nuW0ZsbvWF8FRI9A5A52bRrxmDdvXmnQ/ek06V+aZ1uDyoq0/KRsHnZlcFsvUcAp91urCFyUCvbWo31DLNl2vYT9P85F59xKcRuxV+9Jglr10jJBbJN9R4njLiAlGZTI4MEoEelqjc3Wj2+Y+ZXdAa9JukV8Ko7xuTTCX0E93mTKuj8DpN0Uamkbo1JbJ4IAoMSn8Nhy+44h1lo222/9Pho/bfVcbYOOmdqkEU75HXJfimzW/B4s+BRboi/M/gVnM2BxmzP/roN47HLf9YYAqMj80SxGZDA5OgIE+a724/zltC+/eBtWVL5P3ZDAvk8FBCrTk8N7PEG1WtvmYjhECnHyY72QyOFAP5F9SCJUoscohhEcCLZQigRZKkUALpUighVIk0EIpEmihFAm0UIoEWihFAi2UIoEWSvkH6UaLwEB/FX0AAAAASUVORK5CYII=;" vertex="1" parent="1">
          <mxGeometry x="121.5" y="700" width="180" height="47" as="geometry" />
        </mxCell>
        <mxCell id="Hhsv-AD_tMGytm9ESTO6-132" style="edgeStyle=orthogonalEdgeStyle;rounded=0;orthogonalLoop=1;jettySize=auto;html=1;entryX=0.5;entryY=1;entryDx=0;entryDy=0;fillColor=#d5e8d4;strokeColor=#82b366;" edge="1" parent="1" source="Hhsv-AD_tMGytm9ESTO6-8" target="Hhsv-AD_tMGytm9ESTO6-56">
          <mxGeometry relative="1" as="geometry" />
        </mxCell>
        <mxCell id="Hhsv-AD_tMGytm9ESTO6-8" value="" style="shape=image;verticalLabelPosition=bottom;labelBackgroundColor=default;verticalAlign=top;aspect=fixed;imageAspect=0;image=data:image/png,iVBORw0KGgoAAAANSUhEUgAAALQAAAAtCAYAAAAHpEG5AAAEDUlEQVR4nO3cwUsbaRjH8W+3u4c9+NqF3e5FXWgGAtoWGnpIRNvDQgXPWZZlK2jodc8qOYfEf2BPogsKezDHUppAD62LyUHmoEkgMAms5mRPmRz2sJTdg5kYY1KtfZ3om+cDYnwzk3kOv5jnfd/RW0PffP8fQhjii34XIIROEmhhFAm0MIoEWhhFAi2MIoEWRpFAC6NIoIVRJNDCKBJoYRQJtDDKl7peKDw5TXhy6tzj3HqdfG6bUmFf16WFaNES6JHRMcKTU7j1es9j1PBw63s4Mo1Sd8jvbOu4vBAtmgL9A8BHf/NGf/6VkdEx8jt/EZ6cYnziwfE5Emqhke89dKm4R/b1S9TwMOMTDwhPTvtdgjBYXyaFpcL+qVCPjI71owximzZlJ0PiU09c2GDXcXiVuoqqxOfwPdDjEw8Zv3/cbtQOD5qhfuh3GdrFNm3K9gaxfhcy4LStcpynVNxrTR47eRNGv609D7F2mRPX53i8rrsaoYN/gS7sUzs8YGR0DKXutMYvstQnxEX52nK49Tqlwj75nW3yO9uUint+Xv6MMz30wga7js0fC5DIOpQd76ujz27voZuPF8MKVIRFx6HcfA2dElmHcjbZul6rtrY2J5F1erQ9SV45jt6CrinZKTxDEYk7PLItgpZF0EqRcwNEe/XH63M8tixW8i64OVYsi6AVYv4qWpJvZ9j9DX63vNq2qKgIi83a4nYF1ARPOt5Msc0ZAlSuoKDrRwLdRSOfYnbJ+2mV+Wz3oPhOvScTmmvr+5eZTeRoqAjRFLC0Rc5VRH5Jtp30gifjCqq27+X2gwT6DJfCm9XTQ+UjGijuBvtTUUvVJt45tl7jCLg78gJY5V3JhXuhtjbqKfeVS+7PZT8r7RsJtGHW3hRpEOBRc4089uMEQ26RdwOyKiOBNsRRrfmpsj5HpgqBUBKv3WiU3l5uefIGkkDfJO2thCcVIoDLUflkKG5Xjo9N/UREVcg8X+08y1gSaE3Wau81ThyPl9nK2WTHeIBo+9jCBrvRAFQzp1dVlmwqBJh59l33vttgEmhdvBWG+NWsQwNQ3WLlaOZkDToegXyK4LPOCd8y6bzLkFJU7MGYDHp82ym8js5sfffa0u4c73rcKvMhXR/ty8xa3YP4Sdv1bo700vmHmURLoGuHfwNThCPThCMXvx3Uu4fjY38YIC4jSTSsaOQHZzLo0RTog9aN+5c5N/v65aWvXe65pfsP//I1X/V4tpK22jZP9EtkHaL3ejz54QPcvt3jyQppa+az+l5vZzA9QJNBzy35/9A3QyLrEGWrS798IrZpH99TouFNcVNJoIVRZJVDGEUCLYwigRZGkUALo0ighVEk0MIoEmhhFAm0MIoEWhhFAi2MIoEWRvkf6JFgJqPz5hQAAAAASUVORK5CYII=;imageBorder=#009900;strokeWidth=2;" vertex="1" parent="1">
          <mxGeometry x="127.5" y="1500" width="180" height="45" as="geometry" />
        </mxCell>
        <mxCell id="Hhsv-AD_tMGytm9ESTO6-64" style="edgeStyle=orthogonalEdgeStyle;rounded=0;orthogonalLoop=1;jettySize=auto;html=1;fillColor=#d5e8d4;strokeColor=#82b366;" edge="1" parent="1" source="Hhsv-AD_tMGytm9ESTO6-9" target="Hhsv-AD_tMGytm9ESTO6-44">
          <mxGeometry relative="1" as="geometry" />
        </mxCell>
        <mxCell id="Hhsv-AD_tMGytm9ESTO6-9" value="" style="shape=image;verticalLabelPosition=bottom;labelBackgroundColor=default;verticalAlign=top;aspect=fixed;imageAspect=0;image=data:image/png,iVBORw0KGgoAAAANSUhEUgAAALYAAAAuCAYAAACFxeMqAAAEWUlEQVR4nO3dwUsjZxjH8e+WXjNuL/aiFpyAYNwFQw8T0d3DgoE9R0qpghFPC3tuJOdg/Ad6krgQYQ/JcZE1sIfWYnKQCBoDQiZQ9ZRbJn9Ae8hMmmRGTdbR0LfPB4IwmXnnVX7zzvO+k+CzwHff/40Qivlm1B0Q4jFIsIWSJNhCSRJsoSQJtlCSBFsoSYItlCTBFkqSYAslSbCFkiTYQkkSbKGkb/1szFhYwlhYvHc/q9mkVDyiWjn38/RCdPgW7InJKYyFRaxm89Z9tLGxzk8jsoSmPad0fORXF4To8DHYPwDcORLHfvqFickpSsd/YiwsMht60T5Gwi18NpIau3pxRuHzJ7SxMWZDLzAWlkbRjeHEs5zUynyIj7ojYhAjmzxWK+c94Z6YnBpVV4SCRhLs2dBLZufaZcjN9ZUd7pej6IqnVKHGZWF71N0QD+Drqsh9qhdnnUlmP2diKYQfnjbYlXNurq+YmJxC0553tg+yRCjEMJ68FLGaTaqVc0rHR5SOj6henPnTcPqQy1qt53WQ7n/fY/IXz3Li7Gu3EZsGplfsdg5J9R2SKnSfx/1+t439MpflLBtsc1C75bjb+uacq5wd7m8hVHnyuMmHZcgHg8zYr52ShR4bchUjEWUmGCRfB+o5u60oyc4OGpFkjfmyc540RUsnVs6ycWfDId7VwpwG+45zwp0oY6Ix92az97B4lug0mIW1IX4JAcoEe5f1cHcAIbN6iInG+Iy/Z2qV0rxNdJ23YIIW4tVdF5AGlVR3/3ZZD+cw0YnubwJb5EsWAWOlZ/TfeBMigMlpwtWiuIciwbbZZUX7Vr+CDoxPbN572OAsKl92ezddNmjddwFZF/yx17/RpGFBYFwHIPPlghY6853yaZNXsxqtUq7nghWDUSTYdv2aDFFJObf7HOaouzWMvd+pWKCH7WXG+GvmNI8LSQxEiWCnCivoVpGdYJh118hou2zQetJeDabVcC4/u6yZDpPCLkM8R3oxCCWC7SkdRndtdJcM7Tr2kXnV4PHXzGnQuOkakRNlTHTm09vEDA2zsEbmsfumKCWCbTasvvBscxDri7Vzq491LbPFs7wzNO/27JFzWBv7ZY+lO43I++6Vk20OkhECVpF8z8Rwi9M66MtRxmXS+CBKBDuzGiZfby/FtSeOYU5dNfa/KxExZ4L5Hn5LFV0lSntFxdnv7nXqgVhFdgrj/No9sa3nmAm7R+TkxyItTSNQL8uk8QGe9MnjY0ouB91BCG71bdjirWsbZFx1rMd+e2v86FXv9m3PrIa9y4dElJmBR2CL4kd3P8XgfAv2zfVfwCJGZAkjMvjHUJ3PiNz1BYX/k9TP7RJFJo0P42OwrzpfIPiaYwufP/nVlf8u50ljXiaND+VrKeJ8/kMMKZ7lJBkhAJj5YNeTTfG1nsl/NBAqUmJVRIh+EmyhJAm2UJIEWyhJgi2UJMEWSpJgCyVJsIWSJNhCSRJsoSQJtlDSP+/Dnvhuu+RtAAAAAElFTkSuQmCC;" vertex="1" parent="1">
          <mxGeometry x="122" y="870" width="182" height="46" as="geometry" />
        </mxCell>
        <mxCell id="Hhsv-AD_tMGytm9ESTO6-116" style="edgeStyle=orthogonalEdgeStyle;rounded=0;orthogonalLoop=1;jettySize=auto;html=1;fillColor=#d5e8d4;strokeColor=#82b366;" edge="1" parent="1" source="Hhsv-AD_tMGytm9ESTO6-10" target="Hhsv-AD_tMGytm9ESTO6-46">
          <mxGeometry relative="1" as="geometry" />
        </mxCell>
        <mxCell id="Hhsv-AD_tMGytm9ESTO6-10" value="" style="shape=image;verticalLabelPosition=bottom;labelBackgroundColor=default;verticalAlign=top;aspect=fixed;imageAspect=0;image=data:image/png,iVBORw0KGgoAAAANSUhEUgAAALMAAAArCAYAAAAzIbndAAAFHklEQVR4nO2cwUsbWRzHP132mrEL2+5h1YUkICS2sKGHRHR7EAzsObKUVajBvRR6NiXnIel5oSeJgtnD4hyLmEAPrYuTQ5lC1UBgRlhNL9qL4x+we5jMNNGkUXds1jfvAyIz771538h3Xn6/33t4K/TNd/8gkQjAV4MWIJH4hTSzRBikmSXCIM0sEQZpZokwSDNLhEGaWSIM0swSYZBmlgiDNLNEGKSZJcLwtZ8PS05MkZyY7NvPPjmhpm9R393xc3pJwPHNzMMjoyQnJrFPTnr2UYaGvN/J1BSKcpva9pZfEiQBx0cz/wDw2RU388uvDI+MUtv+i+TEJLH4PWeMNLTEBwYSM9f33lPdfIkyNEQsfo/kxNQgZPjAIquGScM0aRhrZActJ+AMLAGs7+50GHp4ZHRQUq7IIqtGjtTHdcaiUcYS85QW1nhrmmwUB60tmAzEzLH4fWLjTojRPDxoGfr+IKRcnYWHjCtgGc8GrUTSwtdqRj/qe++9RPEsbnJ4o1mZ58HKoEUEly9r5t0dmocHDI+Moii3vfsXKedJJP344mGGfXJCfXeH2vYWte0t6nvv/Xt4seIkY96PwerCJdoBtWrSqBagFf+6fd+WFzv75FOEgEjGad8o4o05GzNny0bHvG/LBSdxrBZ6fJACG63nnB/r6ljs/YyWjqAhzA5gtmzQyESwtKiTkEWjPK8de+1q1aSRuYOutrdDKt8lYQvP0ngKL1r9xjSLUDLn9cvPRBlTdU7Bm+/nXHddatVkKXmM5j4rWmQ3NktK6f+Z7s4YPOGFp9fV4Rh6mTd1G8IJ1LNzPkoRsvUL/uXEQQwzL6zxJKlgaZ2mKs2lebzitKfDNrqacK699gTaPkRmzpbVLLTEPCX3MreObkMk0Wsl7a3LmTdN3ru5zOPEOtYFhoc+Vngwt/zpRi7N85pNKDmLCpTmKlhESLd9a0CBH8NwWn99Oa0CIISZs9NxQli867E6ZqfjhOw93nRJzvKGBUqcn9rDjX2jzXwAy3z4CHw7fKlasqPrmA/n5rU4svuP71YpKTWPgTt8vwDwjHf7EIo9/KSrmCCCRaX9JQgIQpg5clcB+6jnahe5e4Hv9Gugny4/OPsyqolIl5cxGAhhZqvPMtev/ebRttrn1tFthfHpRdwQI6i1byHMXGoenw8VLtiuJiLQIwT5r3QNYcDbcOlHtxjd0du+2juJYCj2ELWcJmLraD3CLdERwszk0mj7Cql8Z6ktW6441z3bDTJhG/33tmTPV13OqpnKV9oqDousPnXKep9wSnHnymzh2Y5Ki6MXrGqn3tKrPU6VOOmYwmn99fV8lhvAF900uU7yM1GsssFS3qThBoy2zvO5z7RjoUXT1xhfLvM4AatGjoxpknFEoatF9Kc5Un1GW1qRoxmTRsa9Y6Or0Y6KDAAr81Qemc6L+Sp4iZ/LLb/+caJ7ML+6+fJSh+6VoSGyvz2heXiA9ucffki5ATiHlMbrxc7Sm0eBDXMWtN7167OoVZMM64zNBDNeBh9X5ubh38AkydQUydTFj3S6ZzI+d6hfOFox81HTp1V0YY10GCwtuEYGX8184B26v8rY6uZLv6T8jyiwYQx3bsBQYCOfIrS/zgOfEjV3x+9FQBM/F19jZve8hcTF4ohZlkyTpba7p7UiYz5saqhVk0wYJzdIXFMSe4PwLWaWSAaNGKU5iQRpZolASDNLhEGaWSIM0swSYZBmlgiDNLNEGKSZJcIgzSwRhn8BZGIYOZWT4ZoAAAAASUVORK5CYII=;" vertex="1" parent="1">
          <mxGeometry x="122" y="1030" width="179" height="43" as="geometry" />
        </mxCell>
        <mxCell id="Hhsv-AD_tMGytm9ESTO6-51" style="edgeStyle=orthogonalEdgeStyle;rounded=0;orthogonalLoop=1;jettySize=auto;html=1;entryX=0.5;entryY=0;entryDx=0;entryDy=0;fillColor=#d5e8d4;strokeColor=#82b366;" edge="1" parent="1" source="Hhsv-AD_tMGytm9ESTO6-11" target="Hhsv-AD_tMGytm9ESTO6-50">
          <mxGeometry relative="1" as="geometry" />
        </mxCell>
        <mxCell id="Hhsv-AD_tMGytm9ESTO6-11" value="" style="shape=image;verticalLabelPosition=bottom;labelBackgroundColor=default;verticalAlign=top;aspect=fixed;imageAspect=0;image=data:image/png,iVBORw0KGgoAAAANSUhEUgAAALUAAAAwCAYAAABXLjvCAAAFNElEQVR4nO3cz2siZxgH8O+WXh230NqLScERBM0urPQwhmR7CETIeaSUZiFKegnseV3mLJpzYU8hBmIJRY8hRKGH3ZSMhzALGyMIM0IT92JyyeQPaA/j6Iy/YpJZU1+fD4Sg77wzr/LNO8+8jnni+ub7f0EIQ7567AEQ4jQKNWEOhZowh0JNmEOhJsyhUBPmUKgJcyjUhDkUasIcCjVhDoWaMIdCTZjztVM7EuYXIcwv3Lqdfn2NsnyEauXUqUMTYuNIqL0zsxDmF6BfXw/chnO727+FyCI47inKx0dOHJ4QG4dC/QMADJ2BxZ9/hXdmFuXjvyHMLyAYemb0oWATh429pq6efULpcB+c241g6BmE+cVxD4Ew7lEuFKuVU1uwvTOzjzEMwqixhzoYeo7gnFF6NC7OW8F+Pu5hfFGpkopaKf3Yw5hajq1+3KZ69ql9QdnNvIgkxAnjC3XlFI2Lc3hnZsFxT9vPj7IMSMhdjC3UgLFGXb3urI5wbrdzoc4UURN569Egp8JYy47YDqNsEJFHYM+LEykCV+v5m3IGP65uWfqmcaDGYN2bVvBjBdZjxFBTYwA0FPxRSFjHjpJEhOv06d1vS3wXJ1IIlVQYn39RIfq6jpM0t4mgaT62SOQUvBEuEfBHB75dLGPiE8VETkFN5KEV/Aj4jZ/N8mW7PVVSURO/g5yytgMRScVBpmtnvhhqr4F3re0CBQ0uIWnZzgi0p5xp7ytQ0IymZBQBvx+FOoB6vtVuCfRVvtMnJaN5y+uae63ihWIdsw5ebI05+x4VHeDD3bV7GqLA4aacv+/bOfEmP9TxXWwIXGcGa9lejRqzcHwXUV/vrLy9GkahDvDLu0jYdqihEH6FbfNhMg/ZGp64Fx7oqPxlmWGT0Z7Z0o6HhwM05W3nqewrrPSbpds4oJrpek3WMW9hraQBvih24pZumTD47vFNmYkPdWIpBBc0fBwQqsRSCC79DB+yvW2SogFcCC+toagrkGxbbeHzFYBvvUb4sw00wSEiFZEaeZQamjrAi4o9gEP1D6bW1AHOY5Q+SQUaOMwtrbfbU2EeqBdtf8DTZuJDzXs4QG9CG9buqLdY8Wcg6zxEVUVN7VPC9NjCWtiPQp1DRDL6nOTWb+s00lg+1gFX8KfW2SaNF76uM8IUmvhQa039Qe33Y4TUWueOElJp2V6n33st2/JHLO3JuDHPNpkw+CFnrWkx8aHeblz2lhAjtqfCPDCgNBn5+K061+Xhb9/YlIxis6x3Spq+7GWFYR0vgxxw1ejU/Nn3qOgc5pbS2FnmcVPOd5VP02fiQ41ktHVat9eriVzReDywXYHo0yH/brkoHEV8Fwe2Wdk45d80OwWQ1tQBX9hSc6dxYJuVu8KZKfYtY1zChm3MqVISEU6HvGctL7bwoarDFYxijpvuC0TTWNepvxRp2Q8tp+CNpKJmTlO6jM3VIe3t9eO78whJ1NTOOb57vXl7tQhRjUFUVYjQUPArxlKhGuvspJ5HYHlY7atDThXhGWHM5vF4XX7QWYcVT5z4r6fmFwRKh/t3uvmfc7uR+G0DjYtzFP7846HDYIflw5fRVjGMtXP0+SBmGjkyUzcu/gGwACGyCCEy+q2k5j0fw75cQG6XyEXBQ0OBAg3AsVCft2/+v0/f0uG+E8OYUuYniO+m/gLR5FhNXT4+om+xjFXn/pOB95BMKUdqakL+TyZ/SY+QLhRqwhwKNWEOhZowh0JNmEOhJsyhUBPmUKgJcyjUhDkUasIcCjVhDoWaMIdCTZjzH7tNAdi8HqdRAAAAAElFTkSuQmCC;" vertex="1" parent="1">
          <mxGeometry x="-172.25" y="1240" width="181" height="48" as="geometry" />
        </mxCell>
        <mxCell id="Hhsv-AD_tMGytm9ESTO6-131" style="edgeStyle=orthogonalEdgeStyle;rounded=0;orthogonalLoop=1;jettySize=auto;html=1;entryX=0.5;entryY=1;entryDx=0;entryDy=0;fillColor=#d5e8d4;strokeColor=#82b366;" edge="1" parent="1" source="Hhsv-AD_tMGytm9ESTO6-12" target="Hhsv-AD_tMGytm9ESTO6-54">
          <mxGeometry relative="1" as="geometry" />
        </mxCell>
        <mxCell id="Hhsv-AD_tMGytm9ESTO6-12" value="" style="shape=image;verticalLabelPosition=bottom;labelBackgroundColor=default;verticalAlign=top;aspect=fixed;imageAspect=0;image=data:image/png,iVBORw0KGgoAAAANSUhEUgAAALQAAAAuCAYAAACBMDMXAAAGN0lEQVR4nO2cz2vbZhjHPxu7WtlgzQ5LOrANgaQtzPRghXY9DGLo2WaUpVCH7FLouQ4+m7jnQk/BDiRjjPhYQm3YYcuIfSgetInBIAXWehe3lyh/wHaQ5Ei27Dit7MTa84EQrOd5f0nfV+/zvH6TT0JffPUvghAQPr3oDgiCn4ighUAhghYChQhaCBQiaCFQiKCFQCGCFgKFCFoIFCJoIVCIoIVAIYIWAoUIWggUn/lVUXzxNvHFW2f6GcfH1Kp7NA5e+9W0IHTwRdAzs1eJL97COD7u66NMTXV+x9XbKMrn1Pb3/GheEDr4JOhvAAa+eZM//MjM7FVq+38SX7zF/MJ1s4yIWvCRscfQjcNXVF48R5maYn7hOvHF2yNqaZXNukazsj6i+oXLyIUkhY2D1y5Rz8xevYhuTB7pLV5qGrv5i+7I5WXsgp5fuMH8NTPcaL19Y4n6xri7cenJVWR1+RB82+U4i8bhq07y2I2dMApnULzPzeJFd+JyMz5BH7ym9fYNM7NXUZTPO9eH2eoThGEZa8hhHB/TOHhNbX+P2v4ejcNXvtW9sl2nqWmdn5fbEW9HKw7t+Na3WOlxshJKp59r+T/LbrdTZzN96vtye9W05cvuss642LIlw0A4ZdnL5Bx974mhe+qrs5l2u3RCmK7xd/rkyTq7Vnu999cuNyD5ttoaJ4H4pjBX0Xgcf0cpGmUuGmUumudgPoWqdDnmyzSzKu3SqV8VlccuUa+zq2VQqfKkU98Oum1Ob/FSy6C+37Fslj2c8pwc1x49hKem383lDWCVzSUcfY3ypGYQSVoizCSYi0YpHQFHdhsJsgPG3kxeoZpz1gdq1kP44RTNR/DMbrukE4pnzkwyp5fqPOTZ6XitcqaoN/ijYUA4Zk46Z9/uqYSM6uDKfWbyBZ3eIhE2qOacD32DBzGHCAFTSBE42uFuxuH3tMqJopK0HmqukiJiVHkSu0+hU3aNu0trpv2eSuhohznrc8eec9djokDjGQ9cce8GD2JugRaWy+goTM996NhjrjYKyzFKRxBZ6p5gOiXnuDI7VA2IxAYnn6H3ZWsy2uUSPKkZhOIpcp3+R0i43vbrfBuGk8bv5xzUxzHxgl75foGQccgfPcmSTttwfEzf4ZpiUP1lze1WbNEGpmdWcT6EAl6Ydr2+1msq/s6BhzjarY1eX+ha+lNEOn0Ynv5jh2xdB2WB75yhx1G9602/wT/vgS9nPMKuU7zGW2i9A67wdRpgjb+OIDR/57SefIwIOuXlPuMfERMv6Mh0d1zRh7lpQiio2a7Y1xITAOkZphkkQtM+PAbtZvc1My5tZhc4yHmENOdg6LGPge4JlItFPCbQ6BnbLseo0NsGfDmEY7PNCVc46Fqe3URoD3oCxdZg+xB4hzQfxtBjHxnv+Me+l5kdqksZrn2/CsWIuZKVPFayETPxb+hC613v0gpWiOH4XGzRRjFveF/MMKV/TDnAbrXnGY6cRT5Gnz2ZgfQdO9Ybsk84cl68xmvW33asLGZyGJq/Q247QcSoUsr0FBs5Ey9oM7FRULNlR5a9yuYjlZDLcY1SzfDI6lfZrNjJk5UkhlNd21Dr7FbWB9uzZrJ494yHqLeNLhGus5vslbPe9t45cI89QelIQc26t+lWtuskwwbVp+dcBaztP6/dEec1s37QK+76C78dcqIskJhXBuQho2XiQw5z1wA26xmSmkYSAINqLk/1UQbV4VlYjlHIl2kmNZrJ0+t6KXp684v3uVlcZ1dL0dRSLp9B9pNanrkhEqDCcoxIRSOZ1WhmAXRK0R3QUq74vLBcJqmlrDHplPps3WWXoujbdR536rPr7L/Vd170Up72kvOeGVRz0d7QrXif8j3NnEy/jTcZtPnEj/8+ah/ur7x4fq6D+8rUFCs/PaT19g2lX3/+2G4IvmNOXErRM1cem1xFI0n3tub48OUN3Xr7N3CLuHqbuDr8cVD7DMegPwwQJoj0FokLSgZtfBL0m87B/Q8pW3nx3I9uCBeM/c3gswtIBm18i6Ht8xnC/49cxTp74tN25MfgSwwtCJeFyd+2EwQHImghUIighUAhghYChQhaCBQiaCFQiKCFQCGCFgKFCFoIFCJoIVCIoIVA8R8gMOC/AeauVQAAAABJRU5ErkJggg==;imageBorder=#009900;strokeWidth=2;" vertex="1" parent="1">
          <mxGeometry x="-177.25" y="1500" width="180" height="46" as="geometry" />
        </mxCell>
        <mxCell id="Hhsv-AD_tMGytm9ESTO6-115" style="edgeStyle=orthogonalEdgeStyle;rounded=0;orthogonalLoop=1;jettySize=auto;html=1;entryX=0.25;entryY=1;entryDx=0;entryDy=0;fillColor=#d5e8d4;strokeColor=#82b366;" edge="1" parent="1" source="Hhsv-AD_tMGytm9ESTO6-13" target="Hhsv-AD_tMGytm9ESTO6-52">
          <mxGeometry relative="1" as="geometry" />
        </mxCell>
        <mxCell id="Hhsv-AD_tMGytm9ESTO6-13" value="" style="shape=image;verticalLabelPosition=bottom;labelBackgroundColor=default;verticalAlign=top;aspect=fixed;imageAspect=0;image=data:image/png,iVBORw0KGgoAAAANSUhEUgAAALYAAAAuCAYAAACFxeMqAAAGjklEQVR4nO2cz2vbZhjHPxu7WtmgyQ5LO4gNhqQbzOwghSY9FGzI2WaMpVCb7BLoOQ4+mzjnQk/BKdijjOhYQm3YYe2ofQgatEnAIBnWZhd3lyh/wHaQZEuW7fyYY9fq+wETovfV8z6v9H1fPc8TK5+EvvjyXwSCgPHpuB0QCK4DIWxBIBHCFgQSIWxBIBHCFgQSIWxBIBHCFgQSIWxBIBHCFgQSIWxBIBHCFgSSz4ZlSF5cQl68c24/8/SUeu0lx4dvhjW0QOBjKMKevXkLefEO5ulp3z7S1FT7p6wsIUmfU3/1chjDCwQ+hiTsrwEG7sTJH35i9uYt6q/+QF68w/zCN9Y5QtyCa2DkMfbx0Wuqz58hTU0xv/AN8uLSqF0QfASMJXk8PnzjEffszVvjcOPDI13iQNfZL4zbkcln5MKeX/iW+dtWGHLy7q0t7m9H7cbYyVd1GtWtcbsRWIZWFTmP46PX7SSzGyex/OjZvc/3u+N2IhiMTtiHbzh595bZm7eQpM/bxy9SIhQILstIQxHz9JTjwzfUX72k/uolx0evh2Y7U9Zo6Hr7c1Bea7flqzoNXeNJ2n3GFvt6dzhgH+tjx4mB2+1aiUy3D1qJjM9OhbzTqVChoesk54C5lLe9X4xtn9P5dM/FFdp0+ejxv6ctl29d9LPpnne+6r8O7mvpG39EBOIvj/mqzob8HjUSIRqJEM3XQM62L2ouXqBmSig/brnOSRE2a2zHN60D6RIHeopwc8+yYdtpOScUKjRyCi3VbosUqKGw4bupC6zrMf6MuPqZYZKOgLIJopEIahNoj5UgN2BujeQ0tXyk7dd2HZRcjwUwl6LxEB47Y6sGITnb6Veo+GypzXMu7o0EB26bkT0MqTPvnGaAtMBy10LLlBOEMais7pwzwPUw+cJOl0jMgaG6xLF7n8d1k5CcsnejHR48qnE2l7JucrpEYs6k9ug+RQDWePJQIdTcI+oI3bazsrpjtcfD0NxjJes02jYlhaRbYBIc5t1C3eFBbA+DMInL7l6On/kYD1yxd3E1htqEcLx7URmoMWdOQHaPmgnhmLWgM7PTYB7xwmUrF++/qKz5vKfitskmK3nXvLN7vk0D1liel6CpDbZ9jUy8sDP3FgiZNdSs93jx5D0wzVfOTmKLPRyvsP9QgfrjjljSd7ktgaFt0pP0XW5LJrWnXe27J7SAmVmXYLuEY2HQMiE0E77C3HrZ67NT+oS0w9//ADdmyWBfE0lh4zLVmF7i9Mx7hxfHJszFOiFNv+s1QkaWPF4X4RnJulm6zoav1fT8Vlx9zLKWRaHGtvsRGZ0hhMlho88g0RlCSCg5nUaPLejsf/g/iPCMNFyD2QTRRomDXIqGngIM1AFh0EUp/nbEuqzwXQHIDl6Qo2LihW20TLhxxLbncdmbTHkdBZMzSWG9vEbREXejxRnT/U+02w+7QoLLctYyLtXfmtvVx+tJu6S4xhMtS1LX+OqK82qd7LRtVn7USca2AIPleYmz49/PvR/XycSHItbj1Z+8+EiXWJcljGqM71WDkLzeqSzsntBC4va9PjHwee1uevlihzptIVyQQXPLx8J9wp6L4sT+EjPRAd3cIYZDIUYYk5brCZfTDKtvIYUijS9pdJh4YbeTl1xX2SpdYr+drHWSw5UskE2gNiWUh07ytcmKXUHoLu9ZNjZR66a3wuDYrXYncG67AFvs5xRfHmC0zN6i8czN9jPnLe9lyhpJT/J7MTLlirdM6BHoGk+0XqW7MEl3TJ4ucZAMQ7Pi3eWzmpUgx6fHmjQ6THwoYu08O+SrOkldJ9k+bqBG7IqGlkWRDNRYJ5nJPa2RyFmJVDG+6Yo/szR0R4Emtfx9wKpEFAsVGkmdRmcQDDXiFZdZY7s64435u6stQHG1QlJP2T73j3Vz8QhGWWPDE99fNTae7soT/BUXH809tlsJOya3OKsXiPp25E3UeoINWcKoji9pdPhkGP+U0nnJoPr82aVeIJCmpsj8vM7Ju7eov/7yf90YO5myxsb8xeL9SSBf1UniX5T9+JDmP5Qd++TdX8AdZGUJWbn411Cd74gMekFBMClskZQlzurjTRodhiTst+0XCK5ybvX5s2G4IRgjzl8a1TEnjQ5Di7Gd738IPi4yZY0NWWJYNfFhMZQYWyD40Jj8cp9A0AMhbEEgEcIWBBIhbEEgEcIWBBIhbEEgEcIWBBIhbEEgEcIWBBIhbEEgEcIWBBIhbEEg+Q9KMA0xeXqGmAAAAABJRU5ErkJggg==;imageBorder=#009900;strokeWidth=2;" vertex="1" parent="1">
          <mxGeometry x="122" y="1330" width="182" height="46" as="geometry" />
        </mxCell>
        <mxCell id="Hhsv-AD_tMGytm9ESTO6-117" style="edgeStyle=orthogonalEdgeStyle;rounded=0;orthogonalLoop=1;jettySize=auto;html=1;entryX=0.5;entryY=1;entryDx=0;entryDy=0;fillColor=#d5e8d4;strokeColor=#82b366;" edge="1" parent="1" source="Hhsv-AD_tMGytm9ESTO6-14" target="Hhsv-AD_tMGytm9ESTO6-48">
          <mxGeometry relative="1" as="geometry" />
        </mxCell>
        <mxCell id="Hhsv-AD_tMGytm9ESTO6-14" value="" style="shape=image;verticalLabelPosition=bottom;labelBackgroundColor=default;verticalAlign=top;aspect=fixed;imageAspect=0;image=data:image/png,iVBORw0KGgoAAAANSUhEUgAAALUAAAAtCAYAAADoZiqHAAAEQElEQVR4nO3dz0sbaRzH8XeXveaxvWQv6oIJCMYWDB4mou2hsAHPlmVZBSOeCj03knOI/gN7krgQoQdzLFIDPexaTA4SQWMgMBFWc3JPGf+A3cOY3zGJ6Zjg4/cFQR3mmXmUj0++z/OM+Mz14qf/EEIjPwy7A0I4TUIttCOhFtqRUAvtSKiFdiTUQjsSaqEdCbXQjoRaaEdCLbQjoRbakVAL7fzo1IWMuQWMufmu51nlMpn0IfncmVO3FqKBI6EeHRvHmJvHKpfvPEeNjFQ/GoEFlHpO5ujQidsL0cChUP8M0HEEXvr1d0bHxskcfcOYm2fK99JuI8EWDht4TZ0/PyX15TNqZIQp30uMuYVBd6GLGPumyfHu+rA7Ivo0lIliPnfWEOzRsfFhdMMWSnBsmuxvDq8LwlkDD/WU7xVT03bpUbq6vA32q4Hce203SyGbYG0gdxPD4tjqRzf589PqhLJZZRI5FDsrzO4M7/bCeYMLde6M0tUlo2PjKPW8eryXZUAh7mOg5YdVLpPPnZE5OiRzdEj+/PT7L7p5QMHM8meo6Xh9rXz7+UdDgQrw0TRrbXqqqe3JY6Huddf5tRKnuc0B0W59BqIpk0I2cc8fgqj3NHYUd1aY9XrZylhgpdnyepn0+lntqeyIsW++w53ZZNLrtV/JYpc2Pt6bfk4q53s3SVselirBDmcpoph+27TCEkoQnIBiaqWvb1PYnkaov0doFDcWua/btWPhIIvhDm0U5KJBItUD26z69yjiIbi7DmyQzFi4jHe10RtYe+vDRZGTTtcWXUmou9kpcY0iEDloCGBH1jl/t7wLFLm2wOX2ABD/es4NHmaqZcw6r6cUN5m9ul8G0Q8JdVcbLFbLh8719L3s/EXOAo8/Zn8desO0anpHEH15/KEuXHPz4DfZZtVv18dbGQvPUv87jjfXlXp8m9VUESb8RLktPdqO8OK+Hn+oAVC4JxuP2PWp8+LLfpIXtTKifXd8vG5ZjXnDtILrUn1tnqWIh5nNGEuGophaIf4AfX5qHn+oK2/jS3U1byjBe0O1nBov/ds+cJ2EEuw3jMoxZiZqI+7abrbN8pwi8KF+5zLGfiSAy0qTbJgEbnByAZ5fgrhlguiYxx/qupWFSs1b+AB/RNOtZUl4j7SlCETMO9eJ23Eb4br1Znt5b3a5Q+1rpdlKuW/Xw+02nos9Jv2tI3HkU5obpXBdZGWC6JCB7Sg+rA0WvRstR+Mt9ek2q/7mMDZvkzddq8s2enzZ375kCAeZ7HnktUh/au2/6I8joS5d/QPMYwQWMAK9P0paeeaj0x8X6C76m12WyATROQ6F+rL68H8/bVNfPjvRjcensoOYlAmikxwrPyrPc4gehBIcRwK4gGLS23l3UtzbM/lPAkI3Gqx+CNFIQi20I6EW2pFQC+1IqIV2JNRCOxJqoR0JtdCOhFpoR0IttPM/o/yMZzAhHlYAAAAASUVORK5CYII=;" vertex="1" parent="1">
          <mxGeometry x="120" y="1180" width="181" height="45" as="geometry" />
        </mxCell>
        <mxCell id="Hhsv-AD_tMGytm9ESTO6-30" value="&lt;span style=&quot;font-size: 15px;&quot;&gt;Controls how the slcli application behaves, entry point for the slcli&lt;/span&gt;" style="text;html=1;strokeColor=#6F0000;fillColor=#a20025;align=left;verticalAlign=middle;whiteSpace=wrap;rounded=0;fontColor=#ffffff;" vertex="1" parent="1">
          <mxGeometry x="50" y="30" width="180" height="60" as="geometry" />
        </mxCell>
        <mxCell id="Hhsv-AD_tMGytm9ESTO6-32" value="&lt;span style=&quot;font-size: 15px;&quot;&gt;Code responsible for interacting with the SoftLayer API. Ensures API calls are properly formatted, with some helper functions to make things easier for end users. Developers who use the SoftLayer-Python library will use these directly in their code&lt;/span&gt;" style="text;html=1;strokeColor=#2D7600;fillColor=#60a917;align=left;verticalAlign=middle;whiteSpace=wrap;rounded=0;fontColor=#ffffff;" vertex="1" parent="1">
          <mxGeometry x="-540" y="1040" width="340" height="110" as="geometry" />
        </mxCell>
        <mxCell id="Hhsv-AD_tMGytm9ESTO6-34" value="&lt;span style=&quot;font-size: 15px;&quot;&gt;Code for making the actual API request. Transforms the API call into a HTTP request and prases the return data back to python&lt;/span&gt;" style="text;html=1;strokeColor=#2D7600;fillColor=#60a917;align=left;verticalAlign=middle;whiteSpace=wrap;rounded=0;fontColor=#ffffff;" vertex="1" parent="1">
          <mxGeometry x="90" y="200" width="220" height="80" as="geometry" />
        </mxCell>
        <mxCell id="Hhsv-AD_tMGytm9ESTO6-37" style="edgeStyle=orthogonalEdgeStyle;rounded=0;orthogonalLoop=1;jettySize=auto;html=1;entryX=0.5;entryY=0;entryDx=0;entryDy=0;" edge="1" parent="1" source="Hhsv-AD_tMGytm9ESTO6-36" target="Hhsv-AD_tMGytm9ESTO6-2">
          <mxGeometry relative="1" as="geometry" />
        </mxCell>
        <mxCell id="Hhsv-AD_tMGytm9ESTO6-36" value="&lt;span style=&quot;font-size: 15px;&quot;&gt;Used by the Fixture transport to provide static API responses during unit tests&lt;/span&gt;" style="text;html=1;strokeColor=#3700CC;fillColor=#6a00ff;align=left;verticalAlign=middle;whiteSpace=wrap;rounded=0;fontColor=#ffffff;" vertex="1" parent="1">
          <mxGeometry x="-138" y="370" width="198" height="61" as="geometry" />
        </mxCell>
        <mxCell id="Hhsv-AD_tMGytm9ESTO6-39" style="edgeStyle=orthogonalEdgeStyle;rounded=0;orthogonalLoop=1;jettySize=auto;html=1;entryX=0.25;entryY=0;entryDx=0;entryDy=0;" edge="1" parent="1" source="Hhsv-AD_tMGytm9ESTO6-38" target="Hhsv-AD_tMGytm9ESTO6-5">
          <mxGeometry relative="1" as="geometry" />
        </mxCell>
        <mxCell id="Hhsv-AD_tMGytm9ESTO6-38" value="&lt;span style=&quot;font-size: 15px;&quot;&gt;Provides some helper and Mock functions for use in the unit tests.&lt;/span&gt;" style="text;html=1;strokeColor=#3700CC;fillColor=#6a00ff;align=left;verticalAlign=middle;whiteSpace=wrap;rounded=0;fontColor=#ffffff;" vertex="1" parent="1">
          <mxGeometry x="-120" y="188" width="180" height="60" as="geometry" />
        </mxCell>
        <mxCell id="Hhsv-AD_tMGytm9ESTO6-40" value="&lt;span style=&quot;font-size: 15px;&quot;&gt;Provides some features for an interactive shell.&lt;/span&gt;" style="text;html=1;strokeColor=#2D7600;fillColor=#60a917;align=left;verticalAlign=middle;whiteSpace=wrap;rounded=0;fontColor=#ffffff;" vertex="1" parent="1">
          <mxGeometry x="106" y="397" width="198" height="43" as="geometry" />
        </mxCell>
        <mxCell id="Hhsv-AD_tMGytm9ESTO6-42" value="&lt;span style=&quot;font-size: 15px;&quot;&gt;Create the client, which contains the Transport, sets up the authorization headers, and provides a call() function to make the API calls.&lt;/span&gt;" style="text;html=1;strokeColor=#2D7600;fillColor=#60a917;align=left;verticalAlign=middle;whiteSpace=wrap;rounded=0;fontColor=#ffffff;" vertex="1" parent="1">
          <mxGeometry x="90" y="546" width="220" height="106" as="geometry" />
        </mxCell>
        <mxCell id="Hhsv-AD_tMGytm9ESTO6-44" value="&lt;span style=&quot;font-size: 15px;&quot;&gt;Provides Authentication Classes, which sets up the HTTP Authentication headers based on the type of auth being requested.&lt;/span&gt;" style="text;html=1;strokeColor=#2D7600;fillColor=#60a917;align=left;verticalAlign=middle;whiteSpace=wrap;rounded=0;fontColor=#ffffff;" vertex="1" parent="1">
          <mxGeometry x="85" y="760.75" width="225" height="83.5" as="geometry" />
        </mxCell>
        <mxCell id="Hhsv-AD_tMGytm9ESTO6-46" value="&lt;span style=&quot;font-size: 15px;&quot;&gt;Gets settings from the config file (~/.softlayer or ~/AppData/roaming/softlayer)&lt;/span&gt;" style="text;html=1;strokeColor=#2D7600;fillColor=#60a917;align=left;verticalAlign=middle;whiteSpace=wrap;rounded=0;fontColor=#ffffff;" vertex="1" parent="1">
          <mxGeometry x="106" y="930" width="214" height="70" as="geometry" />
        </mxCell>
        <mxCell id="Hhsv-AD_tMGytm9ESTO6-48" value="&lt;span style=&quot;font-size: 15px;&quot;&gt;A lot of small static functions for common operations.&lt;/span&gt;" style="text;html=1;strokeColor=#2D7600;fillColor=#60a917;align=left;verticalAlign=middle;whiteSpace=wrap;rounded=0;fontColor=#ffffff;" vertex="1" parent="1">
          <mxGeometry x="106" y="1090" width="240" height="53.5" as="geometry" />
        </mxCell>
        <mxCell id="Hhsv-AD_tMGytm9ESTO6-50" value="&lt;span style=&quot;font-size: 15px;&quot;&gt;Constants, mainly the VERSION and API_PUBLIC_ENDPOINT&lt;/span&gt;" style="text;html=1;strokeColor=#2D7600;fillColor=#60a917;align=left;verticalAlign=middle;whiteSpace=wrap;rounded=0;fontColor=#ffffff;" vertex="1" parent="1">
          <mxGeometry x="-210.75" y="1330" width="230" height="46.5" as="geometry" />
        </mxCell>
        <mxCell id="Hhsv-AD_tMGytm9ESTO6-52" value="&lt;span style=&quot;font-size: 15px;&quot;&gt;Collection of Exception classes for breaking up API errors&lt;/span&gt;" style="text;html=1;strokeColor=#2D7600;fillColor=#60a917;align=left;verticalAlign=middle;whiteSpace=wrap;rounded=0;fontColor=#ffffff;" vertex="1" parent="1">
          <mxGeometry x="116" y="1230" width="230" height="46.5" as="geometry" />
        </mxCell>
        <mxCell id="Hhsv-AD_tMGytm9ESTO6-54" value="&lt;span style=&quot;font-size: 15px;&quot;&gt;Has a retry() decorator allowing certain API calls to be tried again if they failed for certain error codes&lt;/span&gt;" style="text;html=1;strokeColor=#2D7600;fillColor=#60a917;align=left;verticalAlign=middle;whiteSpace=wrap;rounded=0;fontColor=#ffffff;" vertex="1" parent="1">
          <mxGeometry x="-241.25" y="1390" width="250" height="70" as="geometry" />
        </mxCell>
        <mxCell id="Hhsv-AD_tMGytm9ESTO6-56" value="&lt;span style=&quot;font-size: 15px;&quot;&gt;Defines some imports and the __all__ property for SoftLayer&lt;/span&gt;" style="text;html=1;strokeColor=#2D7600;fillColor=#60a917;align=left;verticalAlign=middle;whiteSpace=wrap;rounded=0;fontColor=#ffffff;" vertex="1" parent="1">
          <mxGeometry x="110" y="1401.25" width="215" height="47.5" as="geometry" />
        </mxCell>
        <mxCell id="Hhsv-AD_tMGytm9ESTO6-142" style="edgeStyle=orthogonalEdgeStyle;rounded=0;orthogonalLoop=1;jettySize=auto;html=1;entryX=0;entryY=0.5;entryDx=0;entryDy=0;fillColor=#f8cecc;strokeColor=#b85450;" edge="1" parent="1" source="Hhsv-AD_tMGytm9ESTO6-65" target="Hhsv-AD_tMGytm9ESTO6-83">
          <mxGeometry relative="1" as="geometry" />
        </mxCell>
        <mxCell id="Hhsv-AD_tMGytm9ESTO6-65" value="" style="shape=image;verticalLabelPosition=bottom;labelBackgroundColor=default;verticalAlign=top;aspect=fixed;imageAspect=0;image=data:image/png,iVBORw0KGgoAAAANSUhEUgAAANIAAAAzCAYAAADigVZlAAAAAXNSR0IArs4c6QAAAARnQU1BAACxjwv8YQUAAAAJcEhZcwAADsMAAA7DAcdvqGQAAAYKSURBVHhe7ZvBSyN3FMff9p4sBUkP3fZgBEEt1LAUs3R3DwumSI/xUHBhFU+C0EPBLJ6D8bzgSeLC2kMxx7I0gT3sbmk8SHpRQUg8tO4lenH8A9r3m3mTzEwmZpL8NGH8fmDI/JI3k3n5/b6/33svM/e+/e7xfwQA6It7kc+/gJAA6JPP5BUA0AcQEgAagJAA0ACEBIAGICQANAAhAaABCAkADUBIAGgAQgJAAxASABqAkADQAIQEgAYgJAA0ACEBoAEICQANaHkeafaHHyl6/760LIzLS9ovfzRfAQg7fQtJiWhi6htptVL47Vc6+/cfaQEQTvoW0s+/vJQ9f9SKVPrjd2m1xzAusXrdGsv0upKh5MUejc9e338gGDcupG7Y/+tP3j5Kq1dkkESlaWOUaTPxnPLSvNt0L6Sl3QqtzXh/VKKr/Rw9XNiW1t1lqIoNM4++l73eUJ19Us3Q1HGOxsfGHNse1cQGdMniGzqoVmlt4og2Xb8pb4UaRWJxMbzbhKdqlyvyjElUzo75zJAvaQ6rUQ9s0Nv1JIcKPDH5/X6ZFEJDISRC4g5PxznM2KIXO/IW6JtsaZ7iHBJvIXTrSDiElEtQnIO3YhcdboWBVcdWpKx8ZsHi5Pff5tSActhV3tCS+phXQOfxys6JeUxpw2NXodeL6lPr3I33lZ0Lz+c+No3zS+hl2x3sLotFE6+vB7tBwrENmh4lqpWCr+StPjt/01af3Neq8jY53oN5Xvt3Z0x/zLb3nN4+vD1CIaRsggeGUQ+YB1kdtjZzTgVHvF84jVO6MdCbxNNVmq6IXbZMV9EkrVS4I2frjZxhc99gu9ZjaXSeThIV+Y4clY0oJVcrPPBTVOcQtHFOtnMOqqXdFPHFyXH+Nibq/KtEW7adyllmMi5Rq0Ho9jVHhxPzrcUYL+bkZFD9RNpBGUnRQcPnFK2r90xhzVNMhYj2dbBPxNfqJ5xgTNJKNUF/O/wqG6oPByOm8ORIQcmpQVTjgSWdLKzPykD/ydOxp3s0l5H9nedUPCWK8CAsv2rO1PmFIos4SlPPvKsBf08jh9imFyWWepQPdoag9jknnjZm3PxCovmdCtumJbHn8ztzl8we+8DiT4gPvFqlRg3OG52+8nUk+ii+eFZi50phEj2noitv4olrVoXdnuoe+/SQhU+jqdYJKAj8Mx76+hWnlM+qfNPcOSGZq9dpxSUii236cMyjcDThmtFqFXcyXauzDZ3TpyC5mPd7Tup0xS/1syAhqIQ6MmDTHGbRyAP3oG3xY5s+XfCL2C09m6SIcUQfWq61RqYbvaAKDLIKqJW4BW9ksPiUpqIGHb7z8TlTYVu/CSgA1/g1iEpiKIRkDu5ojOeiTizTlyOyO8SYOYGnjF/gFalb4rFO8ds1mKKPUmxc2kG5OHPnVOMxishumAmFkPLvjrjT4zTtSfhbkRl7mOHQKW2GY35l/O6wVs8e2XlPh3x4I0zsFVmFO6Ovb67qPQeuPROO0E5yiHi6c6JpDi5P+GaxTE8meAb3DfsGjVVB65b82Tmv1JP0xJuDmOGW7LdFcrrR+ZaKZFfsnFG9XfgmBQ1X2OcNX9v5fo1fwUJnvYQmR7KKBf6VN7NELElxfmHLt7qTLanbipzFgQEhIZVz4Jn/58h+V5jFhygl152+cu61mgwWbnE+ZFUk/cvqwULHlzQn1UTXOVSfeP77W6+wcFVV1GHX3ndVAXUWOjZI/XkcMcpUcBZqbom+hTQ8N5qqqg3nE4VzHjjNJN3c1L/zx+8ldrfsrHJ30yY9UqZNTyVvIEg1Sw08+9pU+b2XHMny1Z5gbF9XiF6p98SkA6qCqG6xqjuux97MENRRvWyLKlDY5W77eO6TesETvopwA/mu7p0sxWjNPl+VBXe6538Hxi1w449RdIN63EI9dgHAdZg30Kp7/4boti8tD/bNPHpMD776Wlq9EfRxCwBCKyQAbpNhFFJoig0ADBKsSABoACsSABqAkADQAIQEgAYgJAA0ACEBoAEICQANQEgAaABCAkADEBIAGoCQANAAhASABiAkADQAIQHQN0T/Az3BAx5mwQZMAAAAAElFTkSuQmCC;imageBorder=#CC0000;strokeWidth=2;" vertex="1" parent="1">
          <mxGeometry x="370" y="104" width="210" height="51" as="geometry" />
        </mxCell>
        <mxCell id="Hhsv-AD_tMGytm9ESTO6-141" style="edgeStyle=orthogonalEdgeStyle;rounded=0;orthogonalLoop=1;jettySize=auto;html=1;entryX=0;entryY=0.5;entryDx=0;entryDy=0;fillColor=#f8cecc;strokeColor=#b85450;" edge="1" parent="1" source="Hhsv-AD_tMGytm9ESTO6-66" target="Hhsv-AD_tMGytm9ESTO6-140">
          <mxGeometry relative="1" as="geometry">
            <mxPoint x="640" y="1440" as="targetPoint" />
          </mxGeometry>
        </mxCell>
        <mxCell id="Hhsv-AD_tMGytm9ESTO6-66" value="" style="shape=image;verticalLabelPosition=bottom;labelBackgroundColor=default;verticalAlign=top;aspect=fixed;imageAspect=0;image=data:image/png,iVBORw0KGgoAAAANSUhEUgAAANIAAAAqCAYAAADGWAU2AAAEDElEQVR4nO3cv2sbZxgH8G+adujg1ym06SK7EB0IpCQQkUEn7GQoROBZpZTGYIusnW2jWUj+BzoJq2BDB2sMITrIkLhYN5gbbEkgOAlqa1ImnYYOJbSDflhWpNixH91FzvcDxvZ7d9Iz+Ive97n3fGPmm+//AxFdyRdeF0B0HTBIRAIYJCIBDBKRAAaJSACDRCSAQSIS8KXki0Wii4hEF849z2m1YBb3UCkdSb49kWfEguSbm0ckugCn1Rp7jpqd7X+P6ItQ6hbM/T2pEog8IxikHwDgg5808Z9/hW9uHub+X4hEFxAM3etcwzDRlPNkjVQpH8J4+RxqdhbB0D1EootelEEkxrNmQ6V0dCZMvrl5T+pI7Fio2gWkPvbC1W0c2DZeZCZRFU0bT4IUDN1H8G5nWtc4Oe6G6b4XpYhK7FioWttIeF0IuU60a3eeSvmw35QY1mtEuG3raRhbl7kwt4yHOelqaFq5G6TSERonx/DNzUOpW/3xi7TMiT5lrk/tnFYLldIRzP09mPt7qJQP3S7hjPfWSKvbOLAt/LEKpAwbVbv3NbSOGlwjdX9eiyhA6VizbVS7ryEpZdioGun++/VrG5hOpgx7zPQyjRe2LVsQ9XFnw0gKetLGA0tDQNMQ0DIoOn7Ex61/cst4qGnYNB3AKWJT0xDQwliZxNTv2xgOfgN+13q17aKmdKx1a0taNUCF8GgoxImdGPyoTaAgAhiksdpmBkvrvd+yWDFG/4G6Tr1FIbw8sK7bwFKqiLbSEc8AWN9F0VHQf0kPXPQMj4IKqFuul/u5YJBGclB6lT07VG2iDYXbAW8q6qtbSA6P5RpoArjtewYgizcVB7gTHpiuPsZd5aD454ablX5WGKRraOtVGW348aB7jyvxYwgzThlv2GWcGAbpGmk2up+iuWUU6oA/nEZvWteuvL5cm58uhEGaNoNTtp5MGH44aFZPh5JWrXNu5ifoqobC0+zwVSSIQRK01Xgr2JDotKurRnpo3I/44NjqNg7ifqBeONslXLdQgx+xJ9+NXleRKAZJUq9jlpzMfSQAQH0Xm83Y6T2kpA6YGQSeDDcSNpA3HcwohZrFJsOkubqz4VP03hahcVt/hsdHnpfFSlhqCrWBJW10AD5qW5NTRH79/NPoasSC1Dj5G8ACIvoiIvrFH4vo7bH70AOBdBlpxCMKbZNNBjcIBum4/8DeZa41Xj6/9HtXx259+Qf/4mt8NeZoLa8N3HSVlzJsxO+MOfjuHXDz5piDNeS12JXWNb2dDHk2GVxxg//7e3qkDBtx7I5YD51K7FidPX8CYaSLY5CIBLBrRySAQSISwCARCWCQiAQwSEQCGCQiAQwSkQAGiUgAg0QkgEEiEsAgEQlgkIgE/A9ZaGAgUTog5wAAAABJRU5ErkJggg==;imageBorder=#CC0000;strokeWidth=2;" vertex="1" parent="1">
          <mxGeometry x="370" y="1418" width="210" height="42" as="geometry" />
        </mxCell>
        <mxCell id="Hhsv-AD_tMGytm9ESTO6-86" style="edgeStyle=orthogonalEdgeStyle;rounded=0;orthogonalLoop=1;jettySize=auto;html=1;entryX=0;entryY=0.5;entryDx=0;entryDy=0;fillColor=#f8cecc;strokeColor=#b85450;" edge="1" parent="1" source="Hhsv-AD_tMGytm9ESTO6-67" target="Hhsv-AD_tMGytm9ESTO6-85">
          <mxGeometry relative="1" as="geometry" />
        </mxCell>
        <mxCell id="Hhsv-AD_tMGytm9ESTO6-67" value="" style="shape=image;verticalLabelPosition=bottom;labelBackgroundColor=default;verticalAlign=top;aspect=fixed;imageAspect=0;image=data:image/png,iVBORw0KGgoAAAANSUhEUgAAANAAAAAvCAYAAACSYES4AAAFLklEQVR4nO3dz0sbaRzH8XeXvWbsHtY9rLqQCQhJW9iwh4loeygk0HNkWbaFJrgXoeeN5DwY/4GexAq6lMUcizSBHloXk4OkUGNAyAir6UV7cfwDdg/JxPwwxuQZo9n9viAI8yPPM5BP5nm+eQbveL757h+EEH356qY7IMQwkwAJoUACJIQCCZAQCiRAQiiQAAmhQAIkhAIJkBAKJEBCKJAACaFAAiSEAgmQEAq+duNNjKkZjKnprsfZp6fkc1uUirtuNCvEjVMO0Nj4BMbUNPbpacdjtJGR+l8jNIOm3SW/vaXatBA3zoUA/QBw6Z0l+vOvjI1PkN/+C2NqGn/gfvUcCZEYcgOdA5X2PpF9+wZtZAR/4D7G1Mwgm+9gkc1ymZ31ufoWM1tmv7BG/AZ7JYbDwIsIpeJuU4jGxicG3YVbrD3M4nYbaID8gQf471WHb5Wjw1qIHgyyC0K4ypUqXDelvU/1YkMrp8AgABZ44lu46U6IHgwmQMVdKkeHjI1PoGl369uvUvoW4jYb2BDOPj2lVNwlv71FfnuL0t4n9948lWG/XG54FViNddpXZjPlXtMA8fVC5/YBYmvs1LaZ2cv60m0OVN2/mWpv8/ycOVYLZfazi+2nx9bYKZdduWZRNfQrEeLrBfajOlbax6Sv+lrKn9T2zrEahrSvcZ+NHm35gCtZJOrfY6mhjfSBRiiZwWw58t6LMj8WWvvSe6BHwwXmeVl/n8m0hcdI1EK0zIeSDd5gW/vmLyE8dk7hWkWr4Q5QbI15Q8NK+3iSON+88jTC81cAyzwPRkjSuC+DhcbopFudWOBJ8BkrDVuSr3Oc8S3fN4VUg1KqpZ9B0gegh3srmXu+ZPjp6fL5hkSEpbyNx5jFxLlGnUjTnWyRH71wVnrfy8WJLoY6QPHHATxYfEx0ObA2dKkOd2bRgdExl0vFjUPFZAhPW0htiu+W206zjm3QRtF7aMoqtBcaVionUA/tAh8PwON/dB7MVBAdi8zT9j6I/g11gPRRDexjrI5HVOcM+8kARdMZOm1ccnwfnHBGG4aKZo4zN9voQ7JggRbgYe0uaAZ1OCg03Y2FuqEOkHVsX7rfzM6i2zmWfMHakM5tc6y+COE52GDSF+n/w3npl0AvTvjsXGdig5ytce/xHM7w7aI7l1Az1AFaqZw0fcteSSrY03CpH9WhZSvnw9xojod+Db5UmuZQ3ejB9gqbGdRbglgtJnj8jzDXI+h2jnS3oa7o2VAHiESkVvFqrqrF1zOsxpz5RWPAFtmMuhmfZT5/obniVStsXMRjzDf108wmCGk2uded7gy1IWhrSdo721S5i68XiHrByjYXM1be7XGmBYj4Nc5K73sKqbia4Q4QkAz7WMpDKHn+m8jv/mM+vHKqXFrDviAfXZ4DJcMpcrZO1CkgvICXF86BbHJmhtGGfka9Fuk+hpdWOsVxuOF6DciZzZVIAF49I3Og4dEuLmAIdXdU/zuD8zBd9u2bnh6U00ZGiP82T+XokPSff6h04faLrbGTDFA0Vedii2yWZyF9QVg6MLNlomwwGZb5z3VQXspTOfobmMYIzWCErv54grMG7rIH8YSi2BoRL1hpCc91cSFAh/UH5fo5N/v2jWoXrlH1G7/TrOksn2r+QfOWcVYevJTiwbVxZTGps77tv2c4V0eb2TJRL2DnWGpZJSHcpTwHEuL/bOircELcJAmQEAokQEIokAAJoUACJIQCCZAQCiRAQiiQAAmhQAIkhAIJkBAKJEBCKJAACaHgXx4UGhJ1jr7VAAAAAElFTkSuQmCC;imageBorder=#CC0000;strokeWidth=2;" vertex="1" parent="1">
          <mxGeometry x="370" y="161.5" width="208" height="47" as="geometry" />
        </mxCell>
        <mxCell id="Hhsv-AD_tMGytm9ESTO6-91" style="edgeStyle=orthogonalEdgeStyle;rounded=0;orthogonalLoop=1;jettySize=auto;html=1;entryX=0;entryY=0.5;entryDx=0;entryDy=0;fillColor=#f8cecc;strokeColor=#b85450;" edge="1" parent="1" source="Hhsv-AD_tMGytm9ESTO6-68" target="Hhsv-AD_tMGytm9ESTO6-89">
          <mxGeometry relative="1" as="geometry" />
        </mxCell>
        <mxCell id="Hhsv-AD_tMGytm9ESTO6-68" value="" style="shape=image;verticalLabelPosition=bottom;labelBackgroundColor=default;verticalAlign=top;aspect=fixed;imageAspect=0;image=data:image/png,iVBORw0KGgoAAAANSUhEUgAAANMAAAAvCAYAAAB5V/+7AAAFNElEQVR4nO3dz0sjVwAH8O+WXvPcwtZe1EImIER3YUMPE9HtQTCw50gPVdBgL8KezZLzED0X9iQq6CLFHEVMoIeuxeQgI2gMBGaEanrJenHyB7SHSeJkTMaoT7Nmvx+QZfLyZt6EfOf9yAz7zPfdD/+BiO7tm043gKhbMExEkjBMRJIwTESSMExEkjBMRJIwTESSMExEkjBMRJIwTESSMExEkjBMRJJ8K3Nn6sgY1JHRG99nXV4il91DIX8s8/BEHSUtTH39A1BHRmFdXrZ8j+jpqf+rhscgxHPk9vdkNYGooySG6UcA8Oxxor/8ir7+AeT2/4Y6Morg0Eu7DgNFXaAjc6bCyREyu9sQPT0IDr2EOjLWiWY0pWUMFPV1xDrdEHpyOrYAUcgfNwSqr3+gU00hkqIjYQoOvUJw2B7ilc7PqoF61YmmEEkjdTXvJoWTo/pChVttcYLoqXrcMOWPUTo/Q1//AIR4Xn+9neV0oi/dow/zrMtLFPLHyO3vIbe/h8LJkbydL6ZRNAzHn4612VuUXzOHNd1AMZO8VuJeqIht6Pb27DoOHMfYWXTsp/a6a4GjXhdJ7Djbd+24rv0YBg425po3fXYdB9Xz0zKNdew21d7j2Ha3yUh7fTjk0jV3QMQ2dBSjCsxUAIMB+28p97lermUMFKPfI6s5y4FwovmX6U5EGAvvgA/V/adOASWq40CPozdTO+4WTBHGgjsoIowFI4TDat1BLYuKf9IRljms6XGEL7bq7R/Usijf0KThdwZe685ztqBEq+e8+hfyFqCE3KFNIqoKVHJbcj6Xr0R3hGl2HfOqgJkK4G386uWVqQhmVu3yiN9CVgvZ2/XykP2Fn5C1FG4h+/s0Vqpbic0sKhDwXWw52vUeqZwF+EPQ3HW1CBK1zdVppE8BX/DnatsU9ArA1N9fVVmdxtupZY/2CKCw6PpMnOe8jJmMCfgjrh48BAUW8n967ZvcuiJMsfEh+GDiMO5Rbp3g0+r1soRuAmIIbzyHe21yH2O1hDKAStm8fV0AZtkCRC8Uewtly+7pvIemDTttGoiG/cZ1mBAYHr8aLmohBThNN1x46GZdESalVwBWGa2+skqveNT2PIxlzIQCSJ0KhBM3zJdu5T0OG3rAJF77XT0gtaUrwmSWrXuVt7aMfy/uWPWBJCaq85+UCZ8ab7o40hbHxSexmUWl1jsvhqB49PLUWleEaaX02XOo5lWuhZSmQ6wGL/pccyr76t1R8QiWclaTtjk1Dt9sc3gTFMBFqT63sxciBIbHk1ibUFDJbV3N3ahtXREmxCPV4U/jfCK2kba3W5briPobFw3c7DlVGPOOIZWWmazOYx5TEjsNvZArFNVlf/fKpE+dbzhnLRNHWFjIbjqHccv4VLDgC0YwLLjwcFeP+qPtQ0pMBGBu6FhIGCjWLqtWFktTHuUwkQpEvK/C8QiW+nQsqHEUDXvsY6YCSMFA9MXDnEtL/kkUjcmr7dMtDE54zW0sZLU0ets455WpNKLGJBQr691LU0vPZP0vGLUHAzO727d66E/09CD22zxK52dI/fFRRlMIsH+QTQwh7/o5oLUkdoxJwPXzArVPWs9UOv8HwCjU8BjUcPuPVNTuyfN6qJAeXmwjAgUmUgzSnUkM01n9ob+71M3sbstqCt1a7Y6HD1x4uAepc6ba/Xb0VNhDOwVAJbeInzzvpqCbSJszEX3tumNpnOgLwDARScIwEUnCMBFJwjARScIwEUnCMBFJwjARScIwEUnCMBFJwjARScIwEUnyPzj/M6mMydw0AAAAAElFTkSuQmCC;imageBorder=#CC0000;strokeWidth=2;" vertex="1" parent="1">
          <mxGeometry x="370" y="248" width="211" height="47" as="geometry" />
        </mxCell>
        <mxCell id="Hhsv-AD_tMGytm9ESTO6-94" style="edgeStyle=orthogonalEdgeStyle;rounded=0;orthogonalLoop=1;jettySize=auto;html=1;entryX=0;entryY=0.25;entryDx=0;entryDy=0;fillColor=#f8cecc;strokeColor=#b85450;" edge="1" parent="1" source="Hhsv-AD_tMGytm9ESTO6-69" target="Hhsv-AD_tMGytm9ESTO6-93">
          <mxGeometry relative="1" as="geometry" />
        </mxCell>
        <mxCell id="Hhsv-AD_tMGytm9ESTO6-69" value="" style="shape=image;verticalLabelPosition=bottom;labelBackgroundColor=default;verticalAlign=top;aspect=fixed;imageAspect=0;image=data:image/png,iVBORw0KGgoAAAANSUhEUgAAAM4AAAAuCAYAAABgWyZGAAAFnklEQVR4nO2dwWsaWRzHP1326rMLXfeSZCEGApoWKnvQkLSHQoSeDcuyLVTJXgI9x+BZYs6FnkISiEtZ4rGURuhht0v1EKbQJkLACWziye4l4x+we3AcR03UTK1W/X1AQua993u/POf73u/95g254fruh/8QBOFafDNoBwRhGBHhCIIDRDiC4AARjiA4QIQjCA4Q4QiCA0Q4guAAEY4gOECEIwgOEOEIggNEOILgABGOIDhAhCMIDvi2V4aC84sE5xc61jMuLsjn3lI4+tirrgWh7/REOBOTUwTnFzAuLq6so9xu62cwtIhSN8m/e9uL7gWh7/RIOD8CtF1JIj//ysTkFPl3fxOcX8Dnv11tI+IRhpC+73EKxx/Ivn6Jcrvx+W8TnF/stwtjSSytcVI8IDloR0aEgSQHCkcfG8QzMTk1CDcEwTF9F47PfwffXDVMK52fmeK50283BOGz6FlWrROF4w9WEqGZWuJAEIaF/gnn6COl8zMmJqdQ6qZ1vZsUtiB8bfRNOFB9hlO4qGfdlNvdO+GkDjiJeO29kUsGeLLTZTmQzBaJsM+sFrDVrdXb4FVxGcvC6T6zS+tW21haY813zOYzWE2EcJnX9cwMD+Mr7GpxQqpmMsdm4DHbVuum8kvqWPYDJSJt/AAgusehzQeMHJnC1UPX1j46mZkwCWsMv28ZN2vsbuWYDTxu39GIMBInB2JpjZOIFz0zw+xM9bOZ/2SVJ7NF8wu3l0MoUeRVqsnY9DInAc2slyJnKEJPNQ6LYcq19skclellDtMrjW1ViLWn8NzsI3MK3ojGoRbHk631vY+uQqxlN+rtUsvMFVKWb5fWqdkvBng/08aP1AEniRBl+1gU/ESCis74WbXbn0mRM7xEatm4uIaOYu5B098d3SM8DXp2PEQDoyCc6B6rQWXO7PXL24/C1Vkxukd4unV12X4UqN7YS3vEGgzqZKwZfIsnWR2Ugvzzevudxxycgst3v6mtQe5ZfZVIvMhRQeH6d9/m2zqZvAHTgXpqOB7mp0dbNjtmnVsTrfaT5ux/qR8r7C55qeRTTWNR/Vs7ouDIbp8tngT20fESTq9YfrmCyw1p7dgDPy503sdbLI4sQy+cTl9a7IEfl3HMXzutZQlNB+XnXtR28VSz3TjASZkKUC5t0ZHmfnZKlIFKWe/cFnNlLFY/a0EFyoM9uGyxD+hlo14vep85ZXD0ptVXvWxc3/9qS8oGuDxVT7bfHFPBy11rpV7hnk9Rye83jtuIM/TC8XoUGGWuujW9nm5ClMFSfThp7q+sULKLG72ZWU99X/Ol2PmTIwO8ATOMbCPWUWbohdNpJu1qph0ktlCzZZN/XczV8UtQXzXN8NUMNdut6KPM0Atnu/SpNdzqsjwZ8F4RngyaavhzbXZKlC/bvHdr77Jxit5nTjWFqnENHS93UxtEggo9a88QjgdDLxziYTKnilBCY9f2pcfSB9XfryzXiEw3buYHgrkPskIfIJZebUxNd01t8x5vyBa22lthVytyojUnRhShp/ZrG7xKhHAZOTINe8h13p+CdymMZ8ySAjWGXzhAYqmeXrY2176ytZJcWh78RGam9XlE/1nnoZlWrvm2ynNnexyqGbTNvIE3Ury+PSPHZtbDWrHWdhnv6T6zgdbJJfEiR0UpXM3JlDHhRi/+zUftJbbs65fXekFNud3EfluldH5G5o/fP9cN4TOoPwDtcgWO7nGY8HN0ycPQcaAnJwdK5/8ACwRDiwRD3b8mUDuj1u4FOOHrJPlLNYT7+vaH/aFHwjmzXlBz0jb7+mUv3BD6Re2kQGb8kgI1enZWLf/urbzNOerYzsA1n9QYN3qyxxGEcWMksmqC0G9EOILgABGOIDhAhCMIDhDhCIIDRDiC4AARjiA4QIQjCA4Q4QiCA0Q4guCA/wGvxFuOddtKuwAAAABJRU5ErkJggg==;imageBorder=#CC0000;strokeWidth=2;" vertex="1" parent="1">
          <mxGeometry x="370" y="310" width="206" height="46" as="geometry" />
        </mxCell>
        <mxCell id="Hhsv-AD_tMGytm9ESTO6-97" style="edgeStyle=orthogonalEdgeStyle;rounded=0;orthogonalLoop=1;jettySize=auto;html=1;entryX=0;entryY=0.25;entryDx=0;entryDy=0;fillColor=#f8cecc;strokeColor=#b85450;" edge="1" parent="1" source="Hhsv-AD_tMGytm9ESTO6-70" target="Hhsv-AD_tMGytm9ESTO6-96">
          <mxGeometry relative="1" as="geometry" />
        </mxCell>
        <mxCell id="Hhsv-AD_tMGytm9ESTO6-70" value="" style="shape=image;verticalLabelPosition=bottom;labelBackgroundColor=default;verticalAlign=top;aspect=fixed;imageAspect=0;image=data:image/png,iVBORw0KGgoAAAANSUhEUgAAANIAAAAxCAYAAACvSfduAAAEy0lEQVR4nO3dz0sbaRzH8XeXvWbsguteoguOIGhbaOghEe0eCgZ6jizLWjDS00LPjeQcjOeFnkQLETyYYyk10MNulyaHkEKrQiAT2DandC+Of8DuIT/Mj5po+zRm3M8LRJxnnpkHeT7OM9/M4DXfdz/8i4h8kW8uewAiV4GCJGKAgiRigIIkYoCCJGKAgiRigIIkYoCCJGKAgiRigIIkYoCCJGKAgiRigIIkYsC3pg4UnFsgODffdz/3+Jhc9hVHB+9MnVrk0hkJkn98guDcPO7x8Zn7WCMjze/B0AKWdZ3c61cmTi9y6QwF6UeAnleayM+/4h+fIPf6L4Jz88zM3qz1UZjkChj4PdLR4VsyL55hjYwwM3uT4NzCoIcgYtylFBuODt61hck/PnEZwxAxZuBBmpm9xcyN2rKu8uF9PUy3Bj0MEaOMVe36OTp82yxKdGoUIkS8anBBOnhH5cN7/OMTWNb15vbzlMxFht3AggS1z5COjk+retbIiLkgJfcpRuzWs5FNBFjZPmc7kMiUiLDHdCFQ39chPRUmDsA6z0tLnB6hta1b81i7fvLxEL7mabNsBB6w1RzT913jaPYfzTIdeHDBX4RchivxZMPqToFixMZJTzE9VfvayH1sticypfqEbW2HULzE82THwUbD5AOF+n71oERT5EtLjOWSzf7psk2ktE+i18BGw+QfwZOpxnn3cKwQjwspVgFiBRwsbtx72N4vmiI8CU5GIfIK7wcpmuK3oIWTnuJ+7HTz1nK49lc+miI82X312VoOkC6DvVif1A3WR/YX19pOkfglhM/N8mR5s7ktvriHg014pyMEncdqXH0AWON+IsuJFSKSrP2czrn4gkttgVy9N4sPhzexzgPKsPJ8kPpNutV7s/jcQ/7c7m6LFxywZrkbbdnoVnHa9lrndv3qsNW23aHqgm/M5kzlQvfSb7tCFRjz1wK49fKQE2xuN6+MD7k7Y3GS2ztz2SjDZ6D3SF+DPWaBe9gx+TvaL+KfSntgon7GAF+kRDHyqf0vdvgu239w8ChEKLAOrEH0J25YLgcvN/t2leHh+SA5VRdGP7+9r+0K1ThUO5aOX6paaQRlk5XMEsVIgATg9LiCyvDy/NJuq/Kxe3l2zvZEwIa+k7a2hLMD6xcf3GSguxiRDGDjUi22bIsVcLC5nVwnErQ+sYyUYef5IBELky5bhOIFnraEZXVnv/bzme0FIpMu2d/7TdpNVjIOTC6R7ygsJDKNqt1DnhZKFAsdhQtsIpmWAEZT5CM2lPc7yt1rvCmDvRhmTEUGT/L80g4gvjiFs1PgcbxEsXGH7mbZWO7R3udzoDaxMNPFFPl4jGLpdJaf5JLc6dWvvMdGNUyxtNTWZ3q5+/4nvpslHA/hK++ryOBBVyJIUCtn97qy9GuHWuDOnMTbD7hz5hJwk5XAp4sD5znvKZfs7lr/3WToGAlS5cPfwDzB0ALB0Plfi2g8Y9frhcD/i8ZnVSoyeJOhIL1vvrD3OX0zL56ZGIZ3NZ5kSKvI4FXGlna516/0tutFRVPN5/A6n8wQb7mmf30p8uW8X/4WGQIKkogBCpKIAQqSiAEKkogBCpKIAQqSiAEKkogBCpKIAQqSiAEKkogBCpKIAQqSiAH/AXYRo4eLxOM1AAAAAElFTkSuQmCC;imageBorder=#CC0000;strokeWidth=2;" vertex="1" parent="1">
          <mxGeometry x="370" y="391" width="210" height="49" as="geometry" />
        </mxCell>
        <mxCell id="Hhsv-AD_tMGytm9ESTO6-100" value="" style="edgeStyle=orthogonalEdgeStyle;rounded=0;orthogonalLoop=1;jettySize=auto;html=1;fillColor=#f8cecc;strokeColor=#b85450;" edge="1" parent="1" source="Hhsv-AD_tMGytm9ESTO6-71" target="Hhsv-AD_tMGytm9ESTO6-99">
          <mxGeometry relative="1" as="geometry" />
        </mxCell>
        <mxCell id="Hhsv-AD_tMGytm9ESTO6-71" value="" style="shape=image;verticalLabelPosition=bottom;labelBackgroundColor=default;verticalAlign=top;aspect=fixed;imageAspect=0;image=data:image/png,iVBORw0KGgoAAAANSUhEUgAAANYAAAAwCAYAAABt/oSxAAAHFUlEQVR4nO2dz2sb6RnHP1t61XgLjXqok4JHYJCzCxE5SCbZHAIS5FqZUuqAJdxLYM+W0VlYPi/4ZOyAXZYi9RZCJMghmxLpYLSQ2AKDxtBEvci5ePQHtIf5oRlpJMvOjKWI5wPC9mjed5735f2+z4+Zwd+EfveH/yEIgq/8ZtIGCMIsIsIShAAQYQlCAIiwBCEARFiCEAAiLEEIABGWIASACEsQAkCEJQgBIMIShAAQYQlCAIiwBCEARFiCEAAiLEEIgN/63WF8+SHx5QeXnqdfXFCvvaV5/MFvEwRh4vgqrPnbd4gvP0C/uBh6jjI3Z/+MJx6iKN9Sf/fWTzMEYeL4LKw/AYz0ROm//I3523eov/s38eUHRJe+M9qIuIQZYmI5VvPkPdVXL1Dm5ogufUd8+eGkTBEE35lo8aJ5/MElrvnbdyZpjiD4xsSEFV36nuhdIwxsf/poiuv7SZlzBbZ42WrxsjhpOwbJHjY4bRyQnbQhgv9Vwctonry3ixz9WIUNQfjauXlhHX+g/ekj87fvoCjf2sfHKdELwtfCREJB/eKC5vEH6u/eUn/3lubJe/86L1Y4bbUcnwbPM9Zx83cnmQOO+kO7gT4qFIBCtcVpawUVUNPmd9UtR0MjTHS2PTpcd13ODtfM61rnGddf53nD0X7csM7sayOugJJgwxr3v4aM2RqL2X+hao6jzybv6/eP0ZibgTFe2k+vr5fFwTa9eTPnxDXP7nFPIzP15EX2sMFpWkUrR1iMGJ/t+vnVOilWOE3folbo9VE+M77KJyMsRkpo0LtGcrPXrrVCuF602y0WahDPDS4KJcHGj7Dj6F9NNzhq5AhXreuW0JQEG14Lqp/9p9yPRNiu66DX2I5EWIzEWPtzAw2Fu4/d4iZzQGoBtOpT9qxjv09x5LDJvr5TFJkDjvrGWD5TSTvElT1ssBE/p2z3U6T2ebT54WSDZ+z05q2sEYrnTHHt8ktTh4XYgIALf00Q0muXz88EmB1hZQ54FlfQyhGe5HqH91ZTrO2P3012/hboJ/ziaJNPpsiPbLXO86RKt17k/upu7/D+U+6XNVhI9XkNndpPvUWd/7lGF4XQ55LD9k3Kde8FNT5GH6H4iquP7OMlQmj86pgnlHMqMYfQ2ORJoUZXSZA2vbm1kHccY8wnS2iopEwPo4YVOGs45muXtaSz30FCnyvuecul2HbYvbdacV3DYIt7C9Btvhl7Nm6SmRGW52K5Bnvtc8OjjOMpLDKPuKvoHL/eHfwu5+E1+oTLfpsO0O1o1zV7KHuvT+iics8Oddf5IarQrZfcm4VLDG67wvPrWAvZ5eUA0OjoEAqrxl8dHRZWBkLgUWiNzUG72+fALf6YAdjk1zMIRR/1vGcxhopGZdVjzqeAmRGWGlZA7/DFSzOXYrFQo7uwMjSHGGAxTOhLrxsU+2841kGNmRvFqE1gFJl5wjhyS/uTI6H0Tttbjdmh3JXyxEvINzRQlvjB9PyFmOq9GUwJMyMsraOPPuG0Q3fczsycZTFSpKarpIcUAK7V942zy1pVs0PK7OMlQv0e8xI67V3beznzV9cn6fA6uZQ7Txtnc/LknP9aduZK1HTL85ve08PTTQszIywjhOvtaN4ohBfdR4wQchi7rMVKaB7tXOy36XgVCcAMWa7hIfwk10BD5V5xi3Rc8Qjn8M7lTNs7p2CFfLbnGwszT7NDOm+8+izE1L4IxChihKKPKBymUPUa5S8M+4NkZoRFLkX5TCGRd3uX7GHF+NsKidKO3dMseDixz7dwLS7wXmCbPHFVsnr9H6VVuvWdKxVQrsvwzcXIUdRkivDQPFQl7cwrTds5q5i2W55vMH8qVHtz6vwdrI3L8jxmqb4/f11Ycd3uyB42SHvkc3uvT+gqS6SiCt3mm5EFkUkzO8LCKIdv1yGR7+UAG9GOGfZY3kclbeUHP8JOodYXxt1ytTdK7zGHMHoLzHUfy8zNsHKLVovTfIJOOeKueAWJGS4Z9rs3mPzPNbqKQmhYXnJWYruTctlOvTgY4vWPsdUi1XEWQhzz22qZpffRVVWtXKSTdLaBWsFd3QVg/ymVM4XQdXLEG+YbP/8/lvWSY/XViyu9wKjMzZH9+zPanz5S/uc//DJHcJI54Ci/xLFrkzAoVFukKblFdCNs8bK1AmUPEQ1hcrZeDV8faWp/+g/wgHjiIfHE+K+BWM8IjnpBUvgyrHtQVylaTB3Wje3ydIsKfBfWR/sFxuu0rb564ac5M0Wh2iK9MORLvcZ2bMRNWHtBjr5RO+3YN6inuGhh4ftDuNbzf4K/5JORq9+zyRxwlE8QgoEnUr4m7E3lsg1kivA1xxIEwWCmqoKCMC2IsAQhAERYghAAIixBCAARliAEgAhLEAJAhCUIASDCEoQAEGEJQgCIsAQhAERYghAA/wctKoJvOla/+QAAAABJRU5ErkJggg==;imageBorder=#CC0000;strokeWidth=2;" vertex="1" parent="1">
          <mxGeometry x="370" y="497" width="214" height="48" as="geometry" />
        </mxCell>
        <mxCell id="Hhsv-AD_tMGytm9ESTO6-104" style="edgeStyle=orthogonalEdgeStyle;rounded=0;orthogonalLoop=1;jettySize=auto;html=1;entryX=0;entryY=0.25;entryDx=0;entryDy=0;fillColor=#f8cecc;strokeColor=#b85450;" edge="1" parent="1" source="Hhsv-AD_tMGytm9ESTO6-72" target="Hhsv-AD_tMGytm9ESTO6-103">
          <mxGeometry relative="1" as="geometry" />
        </mxCell>
        <mxCell id="Hhsv-AD_tMGytm9ESTO6-72" value="" style="shape=image;verticalLabelPosition=bottom;labelBackgroundColor=default;verticalAlign=top;aspect=fixed;imageAspect=0;image=data:image/png,iVBORw0KGgoAAAANSUhEUgAAANMAAAAtCAYAAAA0n16wAAAFwUlEQVR4nO3dzUsbeRjA8W+XvWbsguseqi44gUK0hYYeJqLdQ0Fhz5FlWQtNcC9Cz03JOWjPBU8SBV3KYo5FmkAPrYvJQVKoMSAkwmp6ib04/gG7h8wkmUmML/1pXvp8QKrpvDzz5PfM/OZxgrc8P/z0H0KIr/ZduwMQoldIMQmhiBSTEIpIMQmhiBSTEIpIMQmhiBSTEIpIMQmhiBSTEIpIMQmhiBSTEIpIMQmhyPcqN2aMT2KMT5y7nHlyQia9RT63q3L3QrSVsmIaHBrGGJ/APDk5cxmtr6/6rxGYRNNuk9neUhWCEG2lsJh+Bmh5xQn+9geDQ8Nktv/BGJ/AN3qvso4UlOgBbblnyu99IvX2DVpfH77Rexjjk+0IQwil2taAyOd2HQU1ODTcrlAuLbyeZb+QJNbuQERHaUsx+Ubv4xurTPFKR4dWQd1vRyjiisLrWfaza4TbHUgHUdrNO09+71O1UeFmNye6QXzWT7zdQYiOc7PFlNuldHTI4NAwmna7+vpF2ulCdLobn+aZJyfkc7tktrfIbG+R3/ukbNuVe5lC9Wtnfc7x/7FUgf3UAoTW2Gm2nPX65mLjtmOpQnVa03DPFFpjp5BlNTTHarZx3+64Gu+3Fti09utcNstqqPlysVTd9uzp1mLSsZ9mx6EqR88NDbQAz5vG6c6LK9762Frk3M5zt+iZJyBiqQLPjWMSXi93vV7uxtJgRBoGCyMz7D+DJXu5RBGPEam8mSvvyZmg+xdcW1/gwQic5t+3nN6NPZuHV5XtPpxdBirF5YjL6yVxoBNsMgD1YIF5luqW0whEGxsderDAg2ztOE+1APPZLPtTZV5a677MmOhB5z7U5OgJD63tY6at/fl5utIqL3XxVmMrnJvzoKFxmtlokfHO0hvFFFpjegSKiWmi9msrT1jKmHiMGddgLJLwP6kVRWSDdPXNXOZD3oQRv3OdRT86RZKzyy2C0CC/5BxUizMEtCIJb11cQHRqkbSpEfjdNYAONqwitJZ7neYUnQfus/bBBr9GaseZPACPBulXteOKzyYpojH2uHZFUZOjy9Igv1iLl8o9Z+IA9Kk1wizzNFWEkWnnyWXRj45J7l2rnHeWniim8ONRPGaaRMT5erx0DPzInfo36SDrGNiwzOcvQP8gYexBqDNdd7aO+fUm6zUql5xv/NnrNS/aYvaFc7GVEmVgYNB55XAvVyybwDGfW1wdVObocpoXRLFsgjaADhDJOgsfO3fJlle8TtMTxaQP1M/f676C+hW29oKPB+Dx/VIZOPYZ3T3QG5iU9+t/nuNO/xV2f03U5kg1V86tafX5Oe8sN9rNuy7Fsgn9e7ysn5p8hWi2SDA4yqMQYJ3RlyLnruayzOcvl17p2qjOkRJmmaL1bfR1muloJefxu5Vptfsq2ul64soULx2DZg1+FSIbpE2NsccLPPJp5zYezlIsN7n/AmCORz7tQlNHVZTn6MKc07cK6/i/lGp5XXlPzsr56pTOaWbjxnKjSk8Ukz34GzpfoTU23Z2qC6nc03iMSgOhdePhbPHZJdKmTtDVCo+lIpXGxNQNTmMU56hpcVqteXeb22PMu7qKEQKaSfp1/fFbOfdNM6Z1V+PB1hvFxDJP/XbLue5+IDrAx6sWwrs9TuErrx7N4wr2p3np6vBdP8U5qhZni98zAWCSjiUZiNYd/0iRRJN2enw2SVHT8Jh7fOiixoPtlqq/gmF/MDD19s2lPvSn9fUR/nOe0tEhib//UhGK6BShNXaio+RirX8PVbPAZmEGEl5HK71bKGtAlI7+BSYwApMYgYt/pMJ+Jq/VhwrFtyG8Pt2VjQebwmI6rH7o7yrrpt6+URWK6Er2Ew9LXdd4sCltjdvP2wlxcZWpnQ6cZhYdT4B0G2X3TEJ863qkmydE+0kxCaGIFJMQikgxCaGIFJMQikgxCaGIFJMQikgxCaGIFJMQikgxCaHI//5yBWk4b6AoAAAAAElFTkSuQmCC;imageBorder=#CC0000;strokeWidth=2;" vertex="1" parent="1">
          <mxGeometry x="370" y="594" width="211" height="45" as="geometry" />
        </mxCell>
        <mxCell id="Hhsv-AD_tMGytm9ESTO6-107" style="edgeStyle=orthogonalEdgeStyle;rounded=0;orthogonalLoop=1;jettySize=auto;html=1;entryX=0;entryY=0.25;entryDx=0;entryDy=0;fillColor=#f8cecc;strokeColor=#b85450;" edge="1" parent="1" source="Hhsv-AD_tMGytm9ESTO6-73" target="Hhsv-AD_tMGytm9ESTO6-106">
          <mxGeometry relative="1" as="geometry" />
        </mxCell>
        <mxCell id="Hhsv-AD_tMGytm9ESTO6-73" value="" style="shape=image;verticalLabelPosition=bottom;labelBackgroundColor=default;verticalAlign=top;aspect=fixed;imageAspect=0;image=data:image/png,iVBORw0KGgoAAAANSUhEUgAAANIAAAAxCAYAAACvSfduAAAGtUlEQVR4nO2dz2sbSRbHP7PsVe1ZiL2HcbJgCQR2ZmDFHLpNkjkMSOCzxDCsA5HwXgw5W0ZnYfk8kJORA9IwDO5jMJFgDztZIh1MDyS2QdAt2MR7Ufbi9h+we2i11Ppp2amJxvL7gDDuqnr9qlXf6veeu/FnoT/9+X8IgvBR/GHaDgjCLCBCEgQFiJAEQQEiJEFQgAhJEBQgQhIEBYiQBEEBIiRBUIAISRAUIEISBAWIkARBASIkQVCACEkQFPBH1Qb11Yfoqw8u7eeen1OvveL0+K1qFwThk6NUSIt376GvPsA9Px/ZR5ub6/zUjYdo2ufUX79S6YYgfHIUC+kvAGPvNMnv/sbi3XvUX/8LffUByytfemNETMINZmo50unJG6ovX6DNzbG88iX66sNpuSIIH81Uiw2nx297xLR499403fn9kC5xZNscFqbtiDApUxPS8spXLN/3wrqz9+/aYvpqWu5MjXzVplHdmbYbwkeivGp3GacnbzpFiX78QsStZ/8xX+9P2wnhKnx6IR2/5ez9Oxbv3kPTPu8cn6RkLgi/V6YS2rnn55wev6X++hX11684PXmjzHambNGw7c7nqLzRactXbRq2xfN0cMQOh3Z/eNU+NsKOn8N02q0SmX4frBKZATsV8n6nQoWGbZNcApZSve2jcqT2mO6nfy6BULHPxx7/h9oK+NbHKJvBeeerg9cheC0Hzj9jzNSTDfmqzZb+ATMSIRqJEM3XQM92vsRcvEDN1TC+3wmMSRF2a+zGt70D6RJHdopw88Cz0bbT8gcUKjRyBi2z3RYpUMNga2ARrbBpx/g1Eujnhkn6CzabIBqJYDaBzrkS5MbMrZGcp5aPdPzarYORGyK4pRSNp/DMP7fpENKz3X6FyoAts3nJxb2T4ChoM3KAo3XnnbMc0FZ41CfsTDlBGIfK+t4lJ7jZzI6Q0iUSS+CYgcW4/5hndZeQnmrvtns8+aHGxVLKW1TpEokll9oPjykCsMHzpwah5gFRX1htO2vre157PAzNA9ayfmPbpmaQDC5oDY7zQWHs8SR2gEOYxFV3Z9/PfIwngdypuB7DbEI43i9iBzPmzwnIHlBzIRzzNpDM4jy4J/wSsJWLjxaxN58PVII22WYtH5h39mBgk4INHi1r0LTG254BZkZImW9XCLk1zGzv8eLZB2CeL/ydsi2ucLzC4VMD6s+6izP9Dfc1cKxthpL+hvuaS+2nvvb9M1rAwmJAIH0L1cOh5UJoIXyNuQ2zN+JOMLBw9/jPf4E7i2RoXxPNYOsq1cJhYuiZ9x6/nLqwFOuGiKOu1wzyyYsNvxXhBc1bHLbN1kCr2/Nbcf0Zj6wsBjV2gyFHdIEQLseNESeJLhBCw8jZNIZssRcf4f84wguaWoPZBNFGiaNcioadAhzMMWHlpBT/ccKmbvDXApAdvwHMGjMjJKflwp0TdnvCj+FkypsYuFxoBpvlDYq+mBotLpgfPbDdftwXYl2Vi5Zzpf7e3K5/vqF0SuwbPLeyJG2LL645r9bZXsdm5XubZGwHcHi0rHFx+s9Lv49ZYGZCOy9cGUx2B0iX2NQ1nGqMr02HkL7ZrXztn9FC4/63I3KYy9qDDPOlHTp2Ft6EjJtbPhYeEUZOip+7aSxEx3QLhmw+hRhhXFqBO3jOcry+hRSGNvtFBp+ZEVIn2c31lXHTJQ47yX23mLCWBbIJzKaG8dRP1rdZa1e4+svdno1tzLrbWwHz7Vb7E/6gXYAdDnPGQB7ntNzhi7Rnbm0/c73l7kzZItlTLJmMTLnSWzbvEcQGz61hpewwyWBOlS5xlAxDs9J7F8taXkElPn8rigw+MxPaeTvrHvmqTdK2SXaOO5iRdsXNymJoDmasm/zmfqqRyHmJdzG+HcgfsjRsf8W71PKPAa9SVixUaCRtGt2T4JiR3sXs1titLvTmbP3VQKC4XiFpp9o+j85VcvEITtliqyc/u25uM9+X5w1WBAdoHrDbSrRzKo+LeoHowB1nG7OeYEvXcKqzX2Tw+Uzlv3XxX+qrvnxxpRf2tLk5Mn/f5Oz9O8yff1TlztTIlC22lifL124C+apNksFNYBSzNv9JUHpHOnv/b+ABuvEQ3Zj8tQj/GbtxLwQKN4UdkrrGRf12FBl8FAvpXeeFveuMrb58odIdYQr4TzKYt6TI4KM8R/KfnxNuF5myxZauoepvUjcNpTmSINxWZqf8LQhTRIQkCAoQIQmCAkRIgqAAEZIgKECEJAgKECEJggJESIKgABGSIChAhCQIChAhCYICREiCoAARkiAo4P9hPw03Hf//GgAAAABJRU5ErkJggg==;imageBorder=#CC0000;strokeWidth=2;" vertex="1" parent="1">
          <mxGeometry x="370" y="670" width="210" height="49" as="geometry" />
        </mxCell>
        <mxCell id="Hhsv-AD_tMGytm9ESTO6-110" style="edgeStyle=orthogonalEdgeStyle;rounded=0;orthogonalLoop=1;jettySize=auto;html=1;entryX=0;entryY=0.5;entryDx=0;entryDy=0;fillColor=#f8cecc;strokeColor=#b85450;" edge="1" parent="1" source="Hhsv-AD_tMGytm9ESTO6-74" target="Hhsv-AD_tMGytm9ESTO6-109">
          <mxGeometry relative="1" as="geometry" />
        </mxCell>
        <mxCell id="Hhsv-AD_tMGytm9ESTO6-74" value="" style="shape=image;verticalLabelPosition=bottom;labelBackgroundColor=default;verticalAlign=top;aspect=fixed;imageAspect=0;image=data:image/png,iVBORw0KGgoAAAANSUhEUgAAANAAAAAtCAYAAADfqOWzAAAF80lEQVR4nO2dz0sbaRjHP132mkkXuu6h6kIyIBhbaPCQiK6HggHPE5ayCo24l0LPjeQcjOeCJ9GCLstijkWaQA/dLk0OkkJrA4EZYTW9pF6c/AG7h/ya/DBGZ/wVnw8EyZN5n/eZd+Y77/s+7zt4x/XDT/8hCMK5+O6qAxCEm4wISBBsIAISBBuIgATBBiIgQbCBCEgQbCACEgQbiIAEwQYiIEGwgQhIEGwgAhIEG4iABMEG3zvlKDAxRWBi8tTjzONjspn35Pc+O1W1IFwZjghocGiYwMQk5vHxiccobnf9byA4haLcJfvhvRPVC8KV4ZCAfgbo2rNov/7G4NAw2Q//EJiYZNT3oFJGRCTcYC59DpT/8on0m9cobjejvgcEJqaccRzZZFfXKeg6u1uLzvgUhFO4kiRCfu9zk4gGh4btOYxsshsLUkqqjKgq43NrzgR6nag+IHYSVx2IYOXSBTTqe8joWGX4Vjw8qIrooS2fC499uDD4GHUiwssjntYppJd7tgvXD8eycKeR//KpnmxopZZgELqwMc/4xlUHIbRyeQLa+0zx8IDBoWEU5W7d3kvqWxCuK5cmIKisAeWPG1k6xe22LaAdXcdb8Yam62gYJNUQMQAWeZWLElQsBfa3GZlZanyPbLIb87EXX4XnlWPL2QTjb6fb7NbyC1s5XgRqRpNM3M9Taw+RSFHQvE2xGkmV2Wjrb2EKehgwSCZB62RXQ8Qs87zZKMAyO3oYkirJwVNioTIs1DzWWLZBCzOQTZwwZzzJf7V95tYa7XvU0qb1dg0yrqodfPcPN34nwqyqspI1qdxoKiM18UQ22dWrF1dVq59tDE+YQm6ThRY/Y8+fwcvWJIRCMNawjyQN8ITZzeV4MZCq+03uKwRjKeJ1b4u8mqEaT+WzkjXxajleRYBoqFqOiiBrcZ9k73L+Xk3nGavdY8npaPcyrFjaAS2Mt4vfGgMzuSb/I0kDVyBazXSu8XfeBI/fUl+F+JMgLjPTQw03mxsvoJOIPwniau1tWGI2nqGsBNGaslkK5FfbntoA5azFHt0mY4JL+UbS4jf2Z4YyXh7Vfa7x1N9846/PpTBQGBhx4uws7G839SBtsSTCBBWDpH+e9fpR1Xbowb3rKNXcQ0VDrGRNXIEwcWrn5SXUtHSwzCMPlPPv7JzZjaBPBVS5gEZuqf2njXfsmeD1N2e5SsVOwxiTvbdW+xpfjwCzhNFLGJa1qYJeeeIPDDq7RtV2jhtFSpZ64n5v53irx53ZP7Be/Ab8yP0IwBIf98E1Ot3o1RN+vBik+nE5oYX+FFBkkIEzFTApFZwMYJkdXacQ87EXtwwfnayiJxa5fw84Klp6H+eJ5QxQfPwSqXyP+72wn+s69OwX+lNAPT5dL4p4OozXzLCitk/m+4dvfG0a2iqMPV6ka+/fh/SngDAodRimARCZZky5gguc8Pc0aXeWkyf5vcbTqQ3bh4WVelyj08S3QnjNDMkbtqh9XvpUQGs8fZmh7Am3rOgvsxOrJBdmL/ACGyWzaUgDy+xo7berUep8c59kPw+1Sb7WlHnsEE8iRaHTViFPuMm2sJVD84CRnm8aFq6//UJZ8REaVSjn313okPE60acCorJyX0tbWybyA9lE+5qFw6zP+avp5Fq9fj52mAPVb25dp6A3Us8n2c/HErPqNoYS5IXePZ5OGMkEpRm93oYvApCJq+0PoI15UvsKLqU18dLf3HHivzPUXqZLv3l9phflFLebhd+fUTw8IPnXH3bDEM5EY6G0c2982u/txNM6Gh0WVfsYR3YiFA//BSYJBKcIBHt/PaG2B67bi3jCBZHw48Uk41T2MbJJyANG8vaIBxwT0EH9RbnzlE2/ee1EGEInIpvsPiky3rp9SfNSziYcyxLWdh6s3pLkQQ3H9sJlP7yXt0uvIxtFSrHavroGxhmGZt2o77EzM6z4529N8qCGI3MgQbit9G8WThAuARGQINhABCQINhABCYINRECCYAMRkCDYQAQkCDYQAQmCDURAgmADEZAg2OB/3gd3Jaej0Q4AAAAASUVORK5CYII=;imageBorder=#CC0000;strokeWidth=2;" vertex="1" parent="1">
          <mxGeometry x="370" y="737" width="208" height="45" as="geometry" />
        </mxCell>
        <mxCell id="Hhsv-AD_tMGytm9ESTO6-113" style="edgeStyle=orthogonalEdgeStyle;rounded=0;orthogonalLoop=1;jettySize=auto;html=1;entryX=0;entryY=0.25;entryDx=0;entryDy=0;fillColor=#f8cecc;strokeColor=#b85450;" edge="1" parent="1" source="Hhsv-AD_tMGytm9ESTO6-75" target="Hhsv-AD_tMGytm9ESTO6-112">
          <mxGeometry relative="1" as="geometry" />
        </mxCell>
        <mxCell id="Hhsv-AD_tMGytm9ESTO6-75" value="" style="shape=image;verticalLabelPosition=bottom;labelBackgroundColor=default;verticalAlign=top;aspect=fixed;imageAspect=0;image=data:image/png,iVBORw0KGgoAAAANSUhEUgAAANMAAAAsCAYAAAD/w40VAAAFXklEQVR4nO3cz2saaRzH8XeXvTrpQtc9bJIFRxC0Laz0oCHZHgoRep6wlE0hhu6l0HMsOUvseSEn0YJZlkWPJVShh26W6EFcaBJBGIVN3IvpJZM/YPfgjzjqapM8+VHzfUEpGZ955nnKfDLP81V7y/HVN/8ihDi3L656AEKMCwmTEIpImIRQRMIkhCISJiEUkTAJoYiESQhFJExCKCJhEkIRCZMQikiYhFDkS1UdBWbmCMzMjmxnHR1RyG9R3t1RdWkhrgUlYZqcmiYwM4t1dPS/bbSJic7fgeAcmnabwvaWissLcS0oCtN3AEOfOMaPPzE5NU1h+08CM7N4ffea50igxJi49D1Tee8Dubdv0CYm8PruEZiZO2ePa2yaJpsxFaNr9lXceKaiM3HDXEkBory7YwvU5NT0VQxDCKUuPUxe3328d5tLvPrBfitQ9y97GEIop6yaN0p570OnUNGrXZwQ4nN2eWHa3aF+sM/k1DSadrtz/FPK6UJ8Di51mWcdHVHe3aGwvUVhe4vy3gel/S9vlKiYZutPidfhUW1GFxuiOZNKbg3CKYpd51VKKZb7WjcLGCf9Z4l2vxxOUTRLvA4/43XJfv3ecQ3u/+Qam7Fhc2n1n1vrP701D6He2HwCQjdMnrOOx+3G43aTqWkEV+03czRnshI4JNNq44nmIRAZXb27E6L4Atbb57nTVLUgK903fDhF0VzAWYh1jUHH6A0UcPfFc/il2ebBYpzljZJ9XO4Y+Y/Dh+ScL9nm68lUcXTmEuePsgUuf9+1o0+COKz8qH9OcQZjEyZqaR4sxjs/rv6W5xid79sl83CKkAuqmRCr7UbJp6wXLByBhb6bzkY7JOt/SqJz4CWPo3mOtSBGq//2TbrePYb5NFV0QrawalBeZyl5ckR3alArnYyLOEvz3dfr5/iYtc2XSIhXXXNJLGYHXHuN711wXH4/bLbijMYmTNXSS/uBZJ0G4JxsLaMe+XBYeTIRe7NE/RD4mm8HLAk7bDf6oP6bN2k11xuAKg0LHE7ddrRRj9tbNSxwLZzq/a2++dI7l5f8VQOH9+HJ0zPmR6dKdjHed644v0srQFw13amBFmTFNFnpe9U6X+fhSZyAwzCpGANety3ZLBoV+8uJRT+JWJaKEaFiRsDK88o//Mn0KVZLVQzDxw9hSCQh6tehlu7/xSCUuDFhqjYsuLOn5Cbt1qjHIanTWIVGxs3jyOhzBoqE8ESgWWBYYMXMortDZ7jxD/mnvYSMpMnPR7j76Bkk9ebTM9P/RBNqjM0yb5RE/RC05m/pUxuwkW8umdpPmeZyTvcPqJ6dWms/NmLpOehaUb8OVoNq50izEOHwPiS6EUIfsMwV6tyYMBFJk7f6K3yEU2yO3KvoGN1l5nCKoqFDLdsqJMRZylUH7nuiuf5qXq/eNsuPfDg6T5hWub23zO1asH0ecXmjhDFg35Z4t8ex5iPk1Tguv1f6VBZ2N2aZB3GW/HGiORPDNDnZ2lTJuEdsyGtpXjVCVMyFzqHjQgxPTzXNU0lRXG3te7raPRg5Nn3AmIYv8aqZGI357j2aRT7qtlUJAUg+JfvExHBZ5N9J4eEi3VLxH/e3vxiYe/vmVF/60yYmWP75OfWDfTK//3reYVyIaM7EII1n/rrsNZp7Kk6xP7t+cxhPSp5M9YO/gVkCwTkCwU//SkX7M3nDvlQozqnz/poE6aIpCtN+50t/Zzk39/aNimGIATpvJkvh4cIp2zO1P28nrodozsRwoew9KzGakj2TEOImlcaFuGASJiEUkTAJoYiESQhFJExCKCJhEkIRCZMQikiYhFBEwiSEIhImIRT5D9jNM2XT4JvfAAAAAElFTkSuQmCC;imageBorder=#CC0000;strokeWidth=2;" vertex="1" parent="1">
          <mxGeometry x="370" y="830" width="211" height="44" as="geometry" />
        </mxCell>
        <mxCell id="Hhsv-AD_tMGytm9ESTO6-121" style="edgeStyle=orthogonalEdgeStyle;rounded=0;orthogonalLoop=1;jettySize=auto;html=1;entryX=0;entryY=0.25;entryDx=0;entryDy=0;fillColor=#f8cecc;strokeColor=#b85450;" edge="1" parent="1" source="Hhsv-AD_tMGytm9ESTO6-76" target="Hhsv-AD_tMGytm9ESTO6-120">
          <mxGeometry relative="1" as="geometry" />
        </mxCell>
        <mxCell id="Hhsv-AD_tMGytm9ESTO6-76" value="" style="shape=image;verticalLabelPosition=bottom;labelBackgroundColor=default;verticalAlign=top;aspect=fixed;imageAspect=0;image=data:image/png,iVBORw0KGgoAAAANSUhEUgAAANQAAAAvCAYAAACbi+TCAAAFVElEQVR4nO3dz0sbaRwG8KfLXjPpQtc9rLqQCQjRFgw9TETXQ8HAniPLsgoq7kXYs5Gch8ZzwZPEgvawZI6lNIEe2i5ODhKhaiAwE1jNXmIvjn/A7mHyYyZmkmheTRufD0hxzPudd9I8zsx3ZvCB77sf/gMRCfFNvydANEgYKCKBGCgigRgoIoEYKCKBGCgigRgoIoEYKCKBGCgigRgoIoEYKCKBGCgigb4VWUyZmoEyNd3xddbFBXL6RxSOj0SunqjvhAVqeGQUytQ0rIsLz9dIfn/9XyUyA0l6iNz+R1FTIOo7gYH6CQDa7nliv/6O4ZFR5Pb/hjI1jdD4Y3sMQ0UDoi/nUIWTT8i+fQ3J70do/DGUqZl+TKPPVvEyb6CYfd7viZBAfWtKFI6PXKEaHhnt11SIhOlLoELjTxCasA/3ymen1VA96cdUure8iwMjj5fLnAd5E9rl66Rw8qnevGhWa1gQfc3uNlDHRyifnWJ4ZBSS9LC+vJtWO9HX4E4DBdjXoAoXjS6g5PcLCNRzvDHmAS2Iw7CBWKC2Mh2b4UWkkhkUY3L91aYWxC9xd4WVvTzWFan+/WUuiacL27CbB3FEqj+KJAwUE86f2+uWncVKaYzNbXSon8axx3a0riVmHq3eM224w7Z/blFneRcHiQieBoMe9e+ngbpTQo4ZmMwHMRYMYkzVcSlFsJbPozhXwWbQXr6ZsyDH3OcgatbAunIOLdgYCyWOg71VANtYClfrwYKu2q+xP3DAyl4U0KrjausNzFfHetQPJnEcmq+Ho6Z9rd7n0crQXB5r2GqM00z4HNv+oWABgTDUpnHqbxH4LP1m/1EDbKAChVK6sefZWUSmBPgkQH+xiFR1cWohAxMSJp5VP2jLu4gGAFOLIoHG2K2cBZ8yf+WD1Cy1EHbv7WrrHZId9S3oqqM+trEUTsO8bq1e5uHB9zlTDyUAIB7FpmPb7fdLRtQVzOeYDACXhfcd53XfDFSgzLz7sMSsWADO8e+O95iVZ+PwWTq0pkPAVPkcwPf4satuWvWakmF/xQIAHg1jpV7/BB+uzMFExbperV7m4aX5PQOat30DhyXAF5pt1EmGIcNExhlEAjBggboJeUgCpAjWjcYHsWgYrnOudtSsgaIRx0QhWT9s0kpN9bvUqdZtje0kkTcBaRw/V3+5qGEZKOUde1yqufOmxJfGrFjAoxO7eXHdwckMYgELuhrGksde0K4vptatjPXk2LPH09Dn4vZh8o6MyQBgal7Njvvt3u+hUuVz12/f3tnnFx3rL89iouPOy12rl3l4kcNXb31SwzJgVRzneHZzwheahboXhdziEJls9z5QiKehWxIiiYy7AbG8izfOE/GdMirOZgYAFCu4bFqmZpta1y3rr+LlnxH4nK/rplYv80hmUDQMvEk21QvMu5at7OURCwBm1r3HTr07waU0jmhIwmXh/fX35vcEA1VtR2slGTHnOVRiCIeuk+4NaDkLPiWOomHYbeWdRTyttplr4ybzzecu21gKJ6FbzvprwIskdGdToqtavcyjNVNLojLX2O51BdDVq9fp7K6hBJ9k4fgdmxFeHoj66xu1hwuzb19f68FBye/Hyh9rKJ+dQvvrlYipUFcaF3avhMeDmjUQQ7uLxSSsKVE++wfANJTIDJRI949j1O7ha/dgIn0B6tfrGKZ2BAbqtP7g4E3GZt++FjUVugW1OyO22IxoS2jbPLf/kU/fDhg1W71AXLsvst8T+sIJO4ciInb5iIRioIgEYqCIBGKgiARioIgEYqCIBGKgiARioIgEYqCIBGKgiARioIgEYqCIBPof/NuPuu86mG4AAAAASUVORK5CYII=;imageBorder=#CC0000;strokeWidth=2;" vertex="1" parent="1">
          <mxGeometry x="370" y="890" width="212" height="47" as="geometry" />
        </mxCell>
        <mxCell id="Hhsv-AD_tMGytm9ESTO6-124" style="edgeStyle=orthogonalEdgeStyle;rounded=0;orthogonalLoop=1;jettySize=auto;html=1;entryX=0;entryY=0.5;entryDx=0;entryDy=0;fillColor=#f8cecc;strokeColor=#b85450;" edge="1" parent="1" source="Hhsv-AD_tMGytm9ESTO6-77" target="Hhsv-AD_tMGytm9ESTO6-123">
          <mxGeometry relative="1" as="geometry" />
        </mxCell>
        <mxCell id="Hhsv-AD_tMGytm9ESTO6-77" value="" style="shape=image;verticalLabelPosition=bottom;labelBackgroundColor=default;verticalAlign=top;aspect=fixed;imageAspect=0;image=data:image/png,iVBORw0KGgoAAAANSUhEUgAAANMAAAAtCAYAAAA0n16wAAAFPklEQVR4nO3dwWsaaRjH8W+XvTrpwta9mCxEQYhpIbIHJyTtoRChZ8OybAtR3Euh5xg8S+y5V0kCupQlHktohB62WaKHMIXGCAENbOLJ7iXjH7B70FHHGJO0b52ufT4Qmk7mfecV5pf3fZ/O0Fuu7374FyHEJ/vG6QEIMS4kTEIoImESQhEJkxCKSJiEUETCJIQiEiYhFJEwCaGIhEkIRSRMQigiYRJCEQmTEIp8q7Kz0PwiofmFK88zz88pFfeolA9VXl4IRykLk2dyitD8Aub5+aXnaBMTnT9D+iKadpvS/p6qIQjhKIVh+hFg6IwT+flXPJNTlPb/IjS/wEzgbquNBEqMAUf2TJWj9xRev0KbmGAmcJfQ/KITwxBCKccKEJXyoS1Qnskpp4YihBKOhGkmcI+Z2dYSr3522g7UPSeGcnPRLAdVg62o0wMRXxql1byrVI7edwoV/azihBD/V6MNU/mQ+tkpnskpNO125/h1yulCfOlGvswzz8+plA8p7e9R2t+jcvReQa/r7FSr7KQhVahyXK1yXFjv/ji92zrW+epfprXaH+Tiff3G2TKsvtrfJ3VcaOjJVl+2NtEsB73XMbLEBoyzdyw76cGfKJYz2u372+ySsn2uwUvOVKF1fTE6Y/UEhHvJYM7w4ff58C+tAe2bKnKHYqp93OfjeQn05OU38mAZVoI+/KkiTcxOfz89zrR+nN7lOKnTyFvXSVNEZ7UTqHV2qsu4S+nOOPz52hXXDPC0GuSdr6dP00vEClTCoIbG7MO+XwLRLOFpqBWe3OQDik80VmFy/bPLo0TPgWiW8LRJMRVkZbN7eONxkPwJeJf6Z46PFWdryQsn2z3Xz7DyokhT04mkgagHNyblN5lus0TYPt5+GpRTYZKdAxlWgtvU8BLOxYE18iUTV2i5O1sBsYcBXNR4N6xvodxYhanZsP+mjz0M4DKPeLt58dykUQMtwH0VVbnoA2Y1k+LLNfvxzToNwO2Jt7/X0JO7tht/qIFjr9EwweX2ArDx5ogmXuY6s2yc+zMazdJ2TwjFKIxVmBr1jO3vXrc2mgv73bZ9VPdrGW/npDUedZZpw/dLN7L5J2UTvMH2HrEdbNsMKEZipNW8Uas1TPj+WmfSMMH9sRc6btDkDuW+5eRFGVaCrZs8ljNYjVQ58KS7+64b6M7CGVYKyxxHgqSA2pDZWHxeYzUz9duof7h0KZcKei8so6ylU0f0AbPXmdzaS7gLhYBhY2vv2y5cs9egsbfHZJuFEwY1vMyl14mENGqFJ2xceyRClbEOE4kw+RMNPWkvH8dyBpFpk+IL66bL8LZiwvRyz9IrztYzHVd/nwODYxUCEn1LtzhbhXaRI5plx1Z6X2duujvDxHLGgDK3hv6st0iyzk5Sx2UWyduKC2u8OwHvUhi3FB4cM95hApJL3VK4tZdZDX0g77ukwhexznsKL9IUzf4eu8Hp/XemjcdB/PlaT/sqx9UEbqM7S7jbbaz9lLt0xRLPLPK84Ga1dw92so0/eHHmSb4s0tQ0XCeGFB4cckvV/4JhvRhYeP3qRi/9aRMTxH57Sv3slPwfv6sYyliI5QxWZ454PiA4A0WzHCQD19i3ic9FWQGifvY3sEBIXySkX/+VCuuZvGEvFYqrpX5pLf+k8OAchWE67bz09zFtC69fqRrK18d64iEvhQcnKS2NW8/biRGJZjlItooktbxv+NMU4rNTtmcS4ms39tU8IUZFwiSEIhImIRSRMAmhiIRJCEUkTEIoImESQhEJkxCKSJiEUETCJIQi/wGXRTD5GQecjgAAAABJRU5ErkJggg==;imageBorder=#CC0000;strokeWidth=2;" vertex="1" parent="1">
          <mxGeometry x="370" y="962.5" width="211" height="45" as="geometry" />
        </mxCell>
        <mxCell id="Hhsv-AD_tMGytm9ESTO6-127" style="edgeStyle=orthogonalEdgeStyle;rounded=0;orthogonalLoop=1;jettySize=auto;html=1;entryX=0;entryY=0.5;entryDx=0;entryDy=0;fillColor=#f8cecc;strokeColor=#b85450;" edge="1" parent="1" source="Hhsv-AD_tMGytm9ESTO6-78" target="Hhsv-AD_tMGytm9ESTO6-126">
          <mxGeometry relative="1" as="geometry" />
        </mxCell>
        <mxCell id="Hhsv-AD_tMGytm9ESTO6-78" value="" style="shape=image;verticalLabelPosition=bottom;labelBackgroundColor=default;verticalAlign=top;aspect=fixed;imageAspect=0;image=data:image/png,iVBORw0KGgoAAAANSUhEUgAAANMAAAAuCAYAAACyCyweAAAFXklEQVR4nO3dz2saaRzH8XeXvTrpQps9rMlCFISYFiI5aEi6h0KFnpVl2QaidC+BPdfgWTTnQk8SC2ZZluQYShV66GaJHsRCYwRhDGziXuwp4x+we/DXjCYmbR51a78vCElm5nl8EuYz8zzfOOSW7Ztv/0UIcWNfjXsAQkwKCZMQikiYhFBEwiSEIhImIRSRMAmhiIRJCEUkTEIoImESQhEJkxCKSJiEUETCJIQiEiYhFPladYfe5VW8yytXHmecn5PPHVAuHakeghBjoTRM9plZvMsrGOfnlx6jTU11Pnt9q2jabfKHByqHIcRYKA7T9wAD7ziBH3/GPjNL/vAvvMsrzLvvNdtIoMRnbmxrpvLxe7Kv99Gmpph338O7vDquoYxGKE1BL/IyNO6BiGEZawGiXDqyBMo+MzvO4QhxI2ML07z7PvMLzSle7ey0Faj74xqOEDemvJp3lfLx+06hole7OCHE52j0YSodUTs7xT4zi6bd7my/TjldiP+zsUzzjPNzyqUj8ocH5A8PKB+/V9NxIkNF100fGWKWA+K8Grj/KS+LurWPYpqw6YjwTrG5LZSmoOtULEWFC9pn433DjGUHjeGCY7PxVgHjknElMj3j6GlfTF/xixMqTM47IBIZKoG75GJOXM7mx96JaX8oTUEPMp1PmPY7CJhP5kSQhXJ3v8u5S1Xz8awvEG42foUXTicup4f1FDSDGsFHji1ze0s7DV9UZ7HY3p8gZzgI9AS2zx0/hc7rmcbVbhcpUkVj4eFTa7tQGv8cVLNrH/3rFB9vYsIUtt8F45g/U91t0Ud+oq2vYz/5sBk5XjxJmvbvUsWBf6d1Ekb8LJn2wyZ7eQPu2K0nuwal52tsmzbFskEcRo4tj3n7Jo8fbVrG2cgneBxpf5dkPVsFzc2DQSVz7QOZ3n5jORqaj0CiO06bN2i5y4UfurFR5V2kt0MxDBMTpu3aB7jwLgIQZ7F1hd62bK9SN8A27bBsNU/Dnnk10KaxHvGBf1Lm75v9N8pve/rvZVB6k7RuqtRpoDHtGtDspNi5KHSkatSBaXvzQrD95pgGDhYT7QOe8mBeo5Hf7W8rhmJiwkTEjyuWozEX7F+LhOxMA45Az3pGj+DTul2Ed4pUdJ0Au52p3lbe6H8to26dvrX6r9eS/ceOSuotJQMcntbFJPQDC9oF4RVDM/Jq3lCl1lhKQbMQECGgF/ku5mE9VaMehfqe0zTF6hFKs+HVqA465tLXbfY/Dt0AJ1nPBqkEPMSA6kM3tp5prxiuybkzWSRZ9+xS7UyfmtO5zlX72ppTpat9av/XNOfpr/glPDgwqFdM2yJFqjhYTMQJeLULprVimCYmTOGdjLU0bDnZWgv9uSCFHWvFK5ZtTQdbaxBzIMI7G5Zp4OWSrD9vTTEta7Y4ry5cw12mVVrvq+45CJj7CaUpBBxwkmlVEts2eXcCjkd+pqXwMHITNM27iy+qU+lMtwxyMU/3ZIv4cVXSFKIRKnr3LGvkEywBzQqZnUI0SEUPdvZt5Td45r3Gy6fWWErFeaV32wNU95w3/9FOdtmq+y39NvIJXE/610PR33P4oz5sJxkpPIzYLZX/Uqb9YGD29f5HPfSnTU0R/mWD2tkpe3/8pmo4EyGWbRVEekrslwqlKUTdlMwXEjESSu9MtbO/gRW8vlW8vus/UtF+T96ghwrF9bT/niaFh9FTHKbTzkN/n9I2+3pf5XC+PO13POxJ4WEclK+Z2u+3EyMUSlOI+rDBp5X2hRJK10xCfMkmpjQuxLhJmIRQRMIkhCISJiEUkTAJoYiESQhFJExCKCJhEkIRCZMQikiYhFDkPwNXMUJmkaWVAAAAAElFTkSuQmCC;imageBorder=#CC0000;strokeWidth=2;" vertex="1" parent="1">
          <mxGeometry x="370" y="1028.5" width="211" height="46" as="geometry" />
        </mxCell>
        <mxCell id="Hhsv-AD_tMGytm9ESTO6-130" style="edgeStyle=orthogonalEdgeStyle;rounded=0;orthogonalLoop=1;jettySize=auto;html=1;entryX=0;entryY=0.5;entryDx=0;entryDy=0;fillColor=#f8cecc;strokeColor=#b85450;" edge="1" parent="1" source="Hhsv-AD_tMGytm9ESTO6-79" target="Hhsv-AD_tMGytm9ESTO6-129">
          <mxGeometry relative="1" as="geometry" />
        </mxCell>
        <mxCell id="Hhsv-AD_tMGytm9ESTO6-79" value="" style="shape=image;verticalLabelPosition=bottom;labelBackgroundColor=default;verticalAlign=top;aspect=fixed;imageAspect=0;image=data:image/png,iVBORw0KGgoAAAANSUhEUgAAANUAAAAwCAYAAACGyT+yAAAG5UlEQVR4nO2dz0sbaRjHv132mrF7MHtY60ImEEhsoUMPiWg9FBLwPLKUVTDBvQiejeQ8GM8FT5IIyVIWcyylCfTQujg5SAo1BgIzwmp6ib04+QN2DzOTmclv7VvzY58PDJXJ++OZH9/3fZ7nfYc+cP30878gCIIZPwzbAIKYNEhUBMEYEhVBMIZERRCMIVERBGNIVATBGBIVQTCGREUQjCFREQRjSFQEwRgSFUEwhkRFEIwhUREEY35k2VhwfhHB+YW+5bSbGxTlY1TKZyy7J4iRgJmoZh7NIji/AO3mpmsZbmqq+W8wtAiOe4jiyTErEwhiJGAoql8BoOcMJP72O2YezaJ48jeC8wvwBx7rdUhYxAQxlJiqcv4ZhXdvwE1NwR94jOD84jDMIPoQy5ZQVfKQhm3ImDG0REWlfOYQ1syj2WGZQhhIBQXVUgaxYRsy5gxFVP7AE/jndNevdnVpCOvJd+xxF28VBW+T37GLcSKawalSwmF02IZMJkyzf/2onH9uJjRaMZMYxPBIhL1IDNuICeB+RVU+Q+3qEjOPZsFxD5vnB0nDE8S4cO/un3Zzg0r5DMWTYxRPjlE5/8ym4WQeVUWxHXqALRUUVJUV8AB40fitsGurqLuG9rqn2Q1H07FsSY81ohmcKgqqNtdJD+bt9Tu5Va195CEl8x3LtrbXakt39D7ay2/gsGRes/F3IgQXOIQSzj4GianarrdbeZuLqT8D67DccLttneorA177aDEZOyqSeVTFaciSFz6vfuQu9J8SYS983iOoANSc8Xt4x6qnrMBdTDbr+SQZCMY7POgANreAfa8XPq+A9TQA7EL0n2PPa++XQyhhy5hFMzht7SMHiCLfdhlSQcF28Bq5FlsGF1Y/DrAu6O02oDXv17PVg4Fqx7Ilp33eJOSvvevMbSl4WrLuz15RAy+awjrAx4oGeIS2DKP0MgSXJt/lIofORIgqNjMNaOf4mLbOJcKRPvHBBg7DPBrFpPOlSq/hWU4FPBHnLMIB5VdrSDna2MGy4DyXeC2jgWn8YtSVXobgujhy9hGPYK+oOc2JZhDxAGrOZnd6DftFDa7gykiktXk3B1yUbPf1AOvh1ntihwMqSSzHrTOpVQG5C4AP6zNcajUPFTwijoFjF089QKPygf1F3AMTIapU7RrgQtju5EZ0I7qEOU5D+X2HUTpeggoOcy/sD/oaX9LtRQE4XU/DtXL7gObLUVc722wj9iIAlyYjF+9UzhLpMFHrGuBZucXM2fn+qnUN4NzQ5+odfLoAXP4ly41MCuChIj/gDDpqTISoEI/oLo1nxRFP9cTnhus2fWh1tEnDjLFEOFy2RvP3GbgB1Gv9Xw7ezekDQ0t8V+3gJg6L1KoAX06FKxjvHU/dkkRJBbgAnpuzu8C3zIjjxWSICtDdNtPP13iI/dZhqnXr5b8TGzjc0l07n7efq9kfta4BmuyIz6zDjOF6toC61q8MA+IRw6YjqFwI23fdcWEfpOJHkDXTM9Bnd7W0w8zk+2ZyRNXkAOvCEdSmC9aFdA31NhfPICmA7+K69CP2ImDNgOkPKGsAL7S7pZLgnIF0F9Yare+Ky90ys0WXMMd9W5ud2cGy5Iwf2+l0fzfw3M8BX2u2WExPWLj8S5CyEfAd3OBxYiJEFcvmnbOSIYp61Tyhj+LOl3sHy4Yr44gRohmcijwaxf0+s8MBvnyFM3MVzWAzyDnKrBfU9jgkmYfoaWnOGK0dmUOjzbcDxTBmJm3FmbLeCrW7ub0GlB5IBadt+gBixJpGXNm6a8UV3HQ8G6kQR4jTIL92zkSp9+docAFE/BwalQ89kh+jz0SICphurrnoccg0ZMnuMlkvt2OdyojFYMYIRqKhnhsszZwIm66mUXcL2LfHVGYf9jhEUVAVSvDlWiM0Pd2du7C1pyioJtz4NGDA3sysmetxyibwKgm5zS3cQa6oNW0aPPHgtE1Pr/dyfTXIUh5u27MRPSpyndzZ9BryFxxc3ZJHY8QDVv+VjvmBYuHdm1t9fMhNTSH2xyZqV5fI/fUnC1PGg2TeSHB8ezw2kkQzOE0EUJYGiQd1pIICEUfWOuKYwmybUu3qHwALCIYWEQwN/imHueev18eNk4gk8IAmt2cU/6801+nGW1AAU1FdNj8+vEvdwrs3rEwZKWLZEsSa4FgAjWVLED0aZKnXwml7O9vBbhkHdexnPHMHxf4YJyhMmG6oNffzERap2jW2RX0ty+L2IkitCmMdvHdDKih60kaTsScMPsiMMsxiKoIgdCYk+0cQowOJiiAYQ6IiCMaQqAiCMSQqgmAMiYogGEOiIgjGkKgIgjEkKoJgDImKIBhDoiIIxpCoCIIx/wFu1z3aCu3nqQAAAABJRU5ErkJggg==;imageBorder=#CC0000;strokeWidth=2;" vertex="1" parent="1">
          <mxGeometry x="370" y="1143.5" width="213" height="48" as="geometry" />
        </mxCell>
        <mxCell id="Hhsv-AD_tMGytm9ESTO6-137" style="edgeStyle=orthogonalEdgeStyle;rounded=0;orthogonalLoop=1;jettySize=auto;html=1;entryX=0;entryY=0.5;entryDx=0;entryDy=0;fillColor=#f8cecc;strokeColor=#b85450;" edge="1" parent="1" source="Hhsv-AD_tMGytm9ESTO6-80" target="Hhsv-AD_tMGytm9ESTO6-136">
          <mxGeometry relative="1" as="geometry" />
        </mxCell>
        <mxCell id="Hhsv-AD_tMGytm9ESTO6-80" value="" style="shape=image;verticalLabelPosition=bottom;labelBackgroundColor=default;verticalAlign=top;aspect=fixed;imageAspect=0;image=data:image/png,iVBORw0KGgoAAAANSUhEUgAAANAAAAAvCAYAAACSYES4AAAFr0lEQVR4nO3dz0sbaRzH8XeXveaxC6t7sS4YoRBtwbCHRLQ9FAz0HFmWrVBD9yL0bMRzMD0veBIt6FIWcyylCZSldTFZkCnUGBAywmp6sb04+QN2DzOTTH4YNU+ITf2+QGrSJ888mc4n83yfzNAbvu9++A8hRFu+ueoBCNHLJEBCaJAACaFBAiSEBgmQEBokQEJokAAJoUECJIQGCZAQGiRAQmiQAAmhQQIkhIZvO9FJaGKK0MTkue2s01Ny2W0K+b1ObFaIK6cdoMFbQ4QmJrFOT89so/r6Kn+GwlModZPczrbupoW4ch0I0I8ALc8s0Z9/ZfDWELmdvwlNTBIYvWO/RkIkelxXa6DC/gcyr1+i+voIjN4hNDHVzc0L0XFdX0Qo5PdqQjR4a6jbQxCiY7oaoMDoXQJj9vStdHzkhOhuN4cgREd1ZBXuPIX9D5XFhnruAoMQvag7AcrvUTo+YvDWEErdrDx/kaVvIb5kXZvCWaenFPJ75Ha2ye1sU9j/0JmOk2kOikXPT5oEAE94bhQ5yCw3vCSRKXJgbBDzPs4s1/Vl8HwOYJlX3v7r+ottGnZfcxvsetq9SnrG4D7v2SY0+fsmbRr7N9j+p1lf1bHubj5p3E9zG+w67ymRqd2mPVa3jedx/TiK6Wb/Atdab1+JkExzEO0nmxjh9oj9kzpss6/hGQ6ChtNPkqylCD812C1GOHH7T2QpD880HqAqzMJTWPGMwR812DXiDGTcsW1hqjAL3gAmZxgrJCtjb9oGgFHmK/0HmfrLBDXKvbnaVrHNCH5M0o9Wz3ybY0+LjBvV/fUsZ+GPOqFZf0veAn+wfvvLREOKcm7rsnv1q9fTAYoN9oO1z7v16nNL0xGW2urNJDW96Py+yuOMCUpBboXHbv/rs6QPwRe4X/fpb5H9fZY1dwwvspRR+D5v8TDutlkklbNgOOicIYF4hJ9qDnanzfeDtf0ryHv6J75lB/wX74H+hHsBBYdGi/evoJD0jAnWHgXtwE9vEHPf93DEOfs6kkH8WOTfnB3M66qnA7RW+mR/+jeZpl1a/YF3cEIZOCld4KCpCzHrJU6A8ol5oU17p1QLIQVqAH9Ni0989PbPKu8KdWGcu8+Yssi+WORszUNgnljVbcYNTBRjD6pn2UTQD4fp6geJqOjpABGPVKZVtfVPb7DriiJRtmqmVA2sE+qjuPZmnzJ+xp16JfZgFF99kNuyyPuas+wy48NgGq2CeX31doAA1mf5qVK3+IlWiv9VPn6+6sG1MLfBfEhhpka4Pd3GwelMJ+16xZ6+lQtvq9O8y/KEdOlFlrJbYyWD+DF5H2/14uur9wNUscrj4BYmioHbnqfr6wnnE/XL5NQxF7RkmPY0LjlDWLVePLDVTs1qtvm5VA3f+lvylmLswTLPp/2Uc1tt1pVfv54OUGwz3bTYPTmwHy4ZJqgw855Vs0Rmpq6+uCJOneRd8YptzhO+eH6cesVPZLq/sYZzluTrl6R9ofmafZbIxAk31E52jeULRBhTsnjQSk8HCPoJL3m+04j2k00Eq8VuPMKznIUvFK+0GTc0lro7apGHNfVbkXlWmtdALfpI5Sx8Sl2wRrHIJtIMePZZdNgkNRJsWCBYe5TGVKpDddXX64bu/87g3kyXef3yUjfKqb4+Yr/NUzo+IvXnHzpDuNZimwYLgX2eBWdb1z9zG+wujZJPNIaluWVeFWcgNVKz7C1qaV/KUzr+F5gkFJ4iFL747QnuNXCtbsQT53G/4NRYPDiD+6VsSsLTUgcCdFS5Ua6d12Zev9QdwrVVOcjPXTy4LDeYK7J4cI6OXEzqXt8muiO2adhfuGKSGmn3yotm7GmbHyjnknVXSYhmtGsgIa6zHl+FE+JqSYCE0CABEkKDBEgIDRIgITRIgITQIAESQoMESAgNEiAhNEiAhNAgARJCgwRICA3/AwMPfT+Sbd7DAAAAAElFTkSuQmCC;imageBorder=#CC0000;strokeWidth=2;" vertex="1" parent="1">
          <mxGeometry x="370" y="1220" width="208" height="47" as="geometry" />
        </mxCell>
        <mxCell id="Hhsv-AD_tMGytm9ESTO6-139" style="edgeStyle=orthogonalEdgeStyle;rounded=0;orthogonalLoop=1;jettySize=auto;html=1;entryX=0;entryY=0.5;entryDx=0;entryDy=0;fillColor=#f8cecc;strokeColor=#b85450;" edge="1" parent="1" source="Hhsv-AD_tMGytm9ESTO6-81" target="Hhsv-AD_tMGytm9ESTO6-138">
          <mxGeometry relative="1" as="geometry" />
        </mxCell>
        <mxCell id="Hhsv-AD_tMGytm9ESTO6-81" value="" style="shape=image;verticalLabelPosition=bottom;labelBackgroundColor=default;verticalAlign=top;aspect=fixed;imageAspect=0;image=data:image/png,iVBORw0KGgoAAAANSUhEUgAAANIAAAAwCAYAAABkFSTLAAAF9klEQVR4nO3dz0sbaRzH8XfbvWbShTZ7WHXBDASMLTTsIRFtD4KBnkeWZSsY6V4Ezyo5h8TzgifRQlzKkhyL1EAPu12aHCRCq0JgElhNL7EXJ3/A7iE/J8ZE16dJTb8vKG3tPDPfhPlknuc7GXrL8e13/yKEuJbb/S5AiEEgQRJCAQmSEApIkIRQQIIkhAISJCEUkCAJoYAESQgFJEhCKCBBEkIBCZIQCkiQhFDgG1U78k9M4Z+Y7LqddXZGJv2Wo4MPqg4tRN8pCdLQ8Aj+iUmss7MLt9Gczvrv/sAUmnaXzLu3Kg4vRN8pCtIPAB2vNMZPvzA0PELm3d/4JyYZ8z6ojJEwiQHQ8zXS0eF7Uq9foTmdjHkf4J+Y6nUJPbewnSVn7hLpdyHis+lLs+Ho4IMtTEPDI/0oQwhleh6kMe9DxsYr07riyXE1TA+vtc+F7Sy5bJwFFQV+MaLsmCY7sX7XIS5DWdeum6PD9/WmRKtaI0KIm6p3QTr4QPHkmKHhETTtbv3nl2mZC/Gl61mQoHIP6eis0dXTnM5rB2nPNHEAEGDZNFnGIh3xMb9V+feF7SzLfq2+fTkT48dnG9W/RdkxZyGps+8zMUZrhaZZ882xGdslZ7jrY/NJnacrjWNHUiYGCTwvh9gLB6p1NI3vUHdrXTTVHUk11WKY5AygkMAzs2qru6kyknqQcKdjjR2y5itiXDQutkvOuG9772yv814aj2+uwyv6ut34bzb8qOusZazKyavrePTGiRBJmSz7T0nqOh5dxxNJg3+Fve3ntn24DZNH2cY2ZS3AYjZLbqZU3WflGG4jy4tQSwH3guwtwXrtGHqCvBZgueOaLYoxdljft0fXSRY0AuFKZy88U90PlfB6dL0RolCcPXMWVybWNNaN0bUr6GXR9LFfP2aMtNU0biVLHo3xaft7QyhOcBTyKQlRJzc+SBeqnQDJpk/qrTnWMxYO/6z9pCskGlearTl2C+DQIP1b46qy+Wy3/YmmnbJru/qs8rQaRuPCRsEqT1uuWOGXacrc5/vWoLaI/BzAYaVZr19VITyTII+bYMsHhL1OOIg0X7U2mPc1j1sl2ea9WZj24iDP/sq5PYomAxukhWkvDitNsuUE2CyeQssJm8+u2rbJlyzglI8tU5y2CtnzU6qtIiXANdThxIbKdMo0K7/CARxouDydBkR5VL062KeNeUoWOFzuC8YB1iF/nXs99nGbbw4p4+ZR/QPgOY/HNMqZxIXTRlHR0zVSL7ldGmi1dVMrqw8VNQnFq2uqPEldr5yk1Z91HjeEC3DU1k2tPl2zrq0/OVgKEPBFgVUIPWFcszh4s9F16NduYIOUL1lw77Drov9zKhXbnYDPebEUwGFrHlzSVpFSGEotTY/rKpfy1T9tMJ+aJWf4iAD5aS+Otlcy0Wpgp3abxVPQvDzusua4tlHf+UV+zIcbi1Lu8ruprEW6qUzF3L7olUoE2r8XoSeMay2BX8mSx82jWBTDr7WZRop2BiJIbUOzkiBtNTphdaE4O50W5Vfmxkg1ndihOHuGGwq759rIFRt8/IQ9gKE4i7ZWOLQPzQbzqTyMzp7rPEZSjddZ+W5fa4dRI7DU3EmMshMOtFlHrrJfAPdMEJc0GS5tIILUCI3ZdAJtMO+rtYbNpkW9i/1nCuf8hQRrpaCtaUAm1nHaFp6ptZ6rY5ZgPZKmbNuqEZqcaZKrhXUlWG/j55peV7DUpSFgpVlLuViuj5nFXUjgaTP1Db9MU9Y0HO0aKaKtWyr+N4raQ32p16+u9MCe5nSy8OsixZNjkn/8ft0yeq5+Q/aqa50ea9yQveQ0LRRnL+zloM3NWdGekmZD8eQfYBJ/YAp/4PKPRdS+Y9fpgUDRe7V7VdJkuDxFQTquP7D3f8amXr9SUYZQoX4jW5oMV6Gs/Z1591aedr3J6ve2zn+nUHSnZI0kxNduMLp2QvSZBEkIBSRIQiggQRJCAQmSEApIkIRQQIIkhAISJCEUkCAJoYAESQgFJEhCKCBBEkKB23fu3Ol3DULceP8BrztXzZd2rqQAAAAASUVORK5CYII=;imageBorder=#CC0000;strokeWidth=2;" vertex="1" parent="1">
          <mxGeometry x="370" y="1320" width="210" height="48" as="geometry" />
        </mxCell>
        <mxCell id="Hhsv-AD_tMGytm9ESTO6-83" value="&lt;span style=&quot;font-size: 15px;&quot;&gt;Command Group is a folder that contains all the actual commands in a group. `vs` would be one group, `hardware` another.&lt;/span&gt;" style="text;html=1;strokeColor=#6F0000;fillColor=#a20025;align=left;verticalAlign=middle;whiteSpace=wrap;rounded=0;fontColor=#ffffff;" vertex="1" parent="1">
          <mxGeometry x="360" y="10" width="318" height="60" as="geometry" />
        </mxCell>
        <mxCell id="Hhsv-AD_tMGytm9ESTO6-85" value="&lt;span style=&quot;font-size: 15px;&quot;&gt;defines the `slcli call-api` command, one of the few not part of a group&lt;/span&gt;" style="text;html=1;strokeColor=#6F0000;fillColor=#a20025;align=left;verticalAlign=middle;whiteSpace=wrap;rounded=0;fontColor=#ffffff;" vertex="1" parent="1">
          <mxGeometry x="629" y="155" width="170" height="60" as="geometry" />
        </mxCell>
        <mxCell id="Hhsv-AD_tMGytm9ESTO6-89" value="&lt;span style=&quot;font-size: 15px;&quot;&gt;Defines the Column class, which is helpful for commands that you want to have selectable columns in the output&lt;/span&gt;" style="text;html=1;strokeColor=#6F0000;fillColor=#a20025;align=left;verticalAlign=middle;whiteSpace=wrap;rounded=0;fontColor=#ffffff;" vertex="1" parent="1">
          <mxGeometry x="629" y="241.5" width="270" height="60" as="geometry" />
        </mxCell>
        <mxCell id="Hhsv-AD_tMGytm9ESTO6-93" value="&lt;span style=&quot;font-size: 15px;&quot;&gt;Controls the base structure of commands. All commands inherit from these base classes&lt;/span&gt;" style="text;html=1;strokeColor=#6F0000;fillColor=#a20025;align=left;verticalAlign=middle;whiteSpace=wrap;rounded=0;fontColor=#ffffff;" vertex="1" parent="1">
          <mxGeometry x="630" y="316.5" width="270" height="60" as="geometry" />
        </mxCell>
        <mxCell id="Hhsv-AD_tMGytm9ESTO6-96" value="&lt;span style=&quot;font-size: 15px;&quot;&gt;Defines the `slcli` command itself, base entry point for the CLI.&lt;/span&gt;" style="text;html=1;strokeColor=#6F0000;fillColor=#a20025;align=left;verticalAlign=middle;whiteSpace=wrap;rounded=0;fontColor=#ffffff;" vertex="1" parent="1">
          <mxGeometry x="630" y="404" width="270" height="49" as="geometry" />
        </mxCell>
        <mxCell id="Hhsv-AD_tMGytm9ESTO6-99" value="&lt;span style=&quot;font-size: 15px;&quot;&gt;Used for defining custom types needed for the slcli. Not used a lot&lt;/span&gt;" style="text;html=1;strokeColor=#6F0000;fillColor=#a20025;align=left;verticalAlign=middle;whiteSpace=wrap;rounded=0;fontColor=#ffffff;" vertex="1" parent="1">
          <mxGeometry x="630" y="479.5" width="230" height="49" as="geometry" />
        </mxCell>
        <mxCell id="Hhsv-AD_tMGytm9ESTO6-103" value="&lt;span style=&quot;font-size: 15px;&quot;&gt;Provides the @environment.pass_env decorator, which provides commands access to the client and some output control functions&lt;/span&gt;" style="text;html=1;strokeColor=#6F0000;fillColor=#a20025;align=left;verticalAlign=middle;whiteSpace=wrap;rounded=0;fontColor=#ffffff;" vertex="1" parent="1">
          <mxGeometry x="630" y="570" width="269" height="90" as="geometry" />
        </mxCell>
        <mxCell id="Hhsv-AD_tMGytm9ESTO6-106" value="&lt;span style=&quot;font-size: 15px;&quot;&gt;Some CLI specific exceptions&lt;/span&gt;" style="text;html=1;strokeColor=#6F0000;fillColor=#a20025;align=left;verticalAlign=middle;whiteSpace=wrap;rounded=0;fontColor=#ffffff;" vertex="1" parent="1">
          <mxGeometry x="630" y="673" width="208" height="46" as="geometry" />
        </mxCell>
        <mxCell id="Hhsv-AD_tMGytm9ESTO6-109" value="&lt;span style=&quot;font-size: 15px;&quot;&gt;The Table class, and some other output formatting functions to make everything look uniform and nice&lt;/span&gt;" style="text;html=1;strokeColor=#6F0000;fillColor=#a20025;align=left;verticalAlign=middle;whiteSpace=wrap;rounded=0;fontColor=#ffffff;" vertex="1" parent="1">
          <mxGeometry x="630" y="737" width="210" height="82" as="geometry" />
        </mxCell>
        <mxCell id="Hhsv-AD_tMGytm9ESTO6-112" value="&lt;span style=&quot;font-size: 15px;&quot;&gt;Provides the resolve_id helper function.&lt;/span&gt;" style="text;html=1;strokeColor=#6F0000;fillColor=#a20025;align=left;verticalAlign=middle;whiteSpace=wrap;rounded=0;fontColor=#ffffff;" vertex="1" parent="1">
          <mxGeometry x="630" y="839" width="210" height="41" as="geometry" />
        </mxCell>
        <mxCell id="Hhsv-AD_tMGytm9ESTO6-120" value="&lt;span style=&quot;font-size: 15px;&quot;&gt;defines the `slcli metadata` command, one of the few not part of a group&lt;/span&gt;" style="text;html=1;strokeColor=#6F0000;fillColor=#a20025;align=left;verticalAlign=middle;whiteSpace=wrap;rounded=0;fontColor=#ffffff;" vertex="1" parent="1">
          <mxGeometry x="630" y="890" width="230" height="60" as="geometry" />
        </mxCell>
        <mxCell id="Hhsv-AD_tMGytm9ESTO6-123" value="&lt;span style=&quot;font-size: 15px;&quot;&gt;A set that maps commands to their python module so the CommandLoader class can find them&lt;/span&gt;" style="text;html=1;strokeColor=#6F0000;fillColor=#a20025;align=left;verticalAlign=middle;whiteSpace=wrap;rounded=0;fontColor=#ffffff;" vertex="1" parent="1">
          <mxGeometry x="630" y="970" width="280" height="60" as="geometry" />
        </mxCell>
        <mxCell id="Hhsv-AD_tMGytm9ESTO6-126" value="&lt;span style=&quot;font-size: 15px;&quot;&gt;defines the `slcli search` command, one of the few not part of a group&lt;/span&gt;" style="text;html=1;strokeColor=#6F0000;fillColor=#a20025;align=left;verticalAlign=middle;whiteSpace=wrap;rounded=0;fontColor=#ffffff;" vertex="1" parent="1">
          <mxGeometry x="630" y="1060" width="230" height="60" as="geometry" />
        </mxCell>
        <mxCell id="Hhsv-AD_tMGytm9ESTO6-129" value="&lt;span style=&quot;font-size: 15px;&quot;&gt;A collection of utilities used by the Block and File command groups.&lt;/span&gt;" style="text;html=1;strokeColor=#6F0000;fillColor=#a20025;align=left;verticalAlign=middle;whiteSpace=wrap;rounded=0;fontColor=#ffffff;" vertex="1" parent="1">
          <mxGeometry x="630" y="1146" width="230" height="60" as="geometry" />
        </mxCell>
        <mxCell id="Hhsv-AD_tMGytm9ESTO6-136" value="&lt;span style=&quot;font-size: 15px;&quot;&gt;defines the `slcli summary` command&lt;/span&gt;" style="text;html=1;strokeColor=#6F0000;fillColor=#a20025;align=left;verticalAlign=middle;whiteSpace=wrap;rounded=0;fontColor=#ffffff;" vertex="1" parent="1">
          <mxGeometry x="630" y="1227" width="270" height="40" as="geometry" />
        </mxCell>
        <mxCell id="Hhsv-AD_tMGytm9ESTO6-138" value="&lt;span style=&quot;font-size: 15px;&quot;&gt;Provides functions for loading/parsing/writing templated commands. Not sued very much&lt;/span&gt;" style="text;html=1;strokeColor=#6F0000;fillColor=#a20025;align=left;verticalAlign=middle;whiteSpace=wrap;rounded=0;fontColor=#ffffff;" vertex="1" parent="1">
          <mxGeometry x="630" y="1300" width="230" height="64" as="geometry" />
        </mxCell>
        <mxCell id="Hhsv-AD_tMGytm9ESTO6-140" value="&lt;span style=&quot;font-size: 15px;&quot;&gt;Loads the helper functions&lt;/span&gt;" style="text;html=1;strokeColor=#6F0000;fillColor=#a20025;align=left;verticalAlign=middle;whiteSpace=wrap;rounded=0;fontColor=#ffffff;" vertex="1" parent="1">
          <mxGeometry x="630" y="1407" width="230" height="64" as="geometry" />
        </mxCell>
        <mxCell id="Hhsv-AD_tMGytm9ESTO6-147" value="&lt;font style=&quot;font-size: 20px;&quot;&gt;Code&lt;/font&gt;" style="rounded=0;whiteSpace=wrap;html=1;fillColor=#60a917;strokeColor=#2D7600;fontColor=#ffffff;" vertex="1" parent="1">
          <mxGeometry x="-580.5" y="1238.62" width="120" height="56.75" as="geometry" />
        </mxCell>
        <mxCell id="Hhsv-AD_tMGytm9ESTO6-148" value="&lt;font style=&quot;font-size: 20px;&quot;&gt;Supporting Files&lt;/font&gt;" style="rounded=0;whiteSpace=wrap;html=1;fillColor=#0050ef;strokeColor=#001DBC;fontColor=#ffffff;" vertex="1" parent="1">
          <mxGeometry x="-580.5" y="1295.37" width="120" height="60" as="geometry" />
        </mxCell>
        <mxCell id="Hhsv-AD_tMGytm9ESTO6-149" value="&lt;font style=&quot;font-size: 20px;&quot;&gt;Tests&lt;/font&gt;" style="rounded=0;whiteSpace=wrap;html=1;fillColor=#6a00ff;strokeColor=#3700CC;fontColor=#ffffff;" vertex="1" parent="1">
          <mxGeometry x="-580.5" y="1355.37" width="120" height="60" as="geometry" />
        </mxCell>
        <mxCell id="Hhsv-AD_tMGytm9ESTO6-150" value="&lt;font style=&quot;font-size: 20px;&quot;&gt;CLI Code&lt;/font&gt;" style="rounded=0;whiteSpace=wrap;html=1;fillColor=#a20025;strokeColor=#6F0000;fontColor=#ffffff;" vertex="1" parent="1">
          <mxGeometry x="-580.5" y="1415.37" width="120" height="60" as="geometry" />
        </mxCell>
        <mxCell id="Hhsv-AD_tMGytm9ESTO6-151" value="" style="shape=image;verticalLabelPosition=bottom;labelBackgroundColor=default;verticalAlign=top;aspect=fixed;imageAspect=0;image=data:image/png,iVBORw0KGgoAAAANSUhEUgAAAMgAAAAuCAYAAABtRVYBAAAEtElEQVR4nO3dzUsbaRwH8G+XXjO2oO5h1YXMgJC0hQ49TETbg5BAz5GlbAUNnvwHjOQ8qP+Alw1G0Js5iphAD12LyaGk4EsgMCNs616il4x/wO5h8jIx8cl7R8j3A8G8zG/mF8g38zxPEnzief7rfyCipn5xuwGix4wBIRJgQIgEGBAiAQaESIABIRJgQIgEGBAiAQaESIABIRJgQIgEGBAigaeD2Kk2MwdtZrbldlaphGzmBPmL80G0QdSzvgdkYnIK2swsrFLpwW2kkZHqXy0wB0l6huzpSb9bIerZAALyOwAIzwzhP/7ExOQUsqdfoM3Mwud/adcwJPTIuDoHyV+eIX18CGlkBD7/S2gzc262Q9TA9Ul6/uK8LiQTk1NutyQU2c+hkNtDxO1G6KdwNSA+/yv4XtjDq+sf38sheeVmS0R1BrKK1Ur+8qw6mb+vMoEnegxcOYPkL86x89c20seHyJ5+qV4GbwW7OQMFo3b5ur9St0VkP9f88eU9fDUMrGkSIAWwZhgoGDnsLgPYTNWuO5VrjjYrd2zgqHz7weM01U5d+bmlNxrLG/qgdrk2xLJKJeQvzpE9PUH29AT5y7MBH3EFu7koArcHmFYU+6JnUHRsoacNrGk3SDoehxa1X4SJRbxRFGxlLcDKYEtRMK2oWEp03sl4MIdVbNf6SJrwVI7TdV0cf+ctwKtCv1enfwjAY2WQjHbe67BzfZL+88gYlwAzt167K7GI9x/j9vXlPYS8gJkMIeZ4fDtrwaMtNLzoeuG5TeFN5bgAEA1hq43jtKrb+ZiCCRmhuqBt4LUXuMt/xk4fn8OwGKKAmChagBxuMhQCEJn3N32X3bm+ATCG35rUdN2JM6QdHKd13Tq+XQEe37vaKtumChkmUs5gUduGKCBxLKkKklcSArHGcb887pxbOC5h2cWeOxfLmYDkx9ty0HRVBq5ytbMidcSVVSw3xYKK/WLZTKEQjqKQljEdXIdZtIDRS2ypi50PRQpF3GGsD93d4N8u5jR1ddEDZIJRvJhfARIyXnsBM9l45qH2DNEZ5J7y+B2jE4igPFRxvPN2TsL4dP09kXk/PE22lNXGlSZdlQGrCFNwhPbq7Mm6x/cO+n4IMifnPRmigGzgqG4JdAVvfRJwe22fMaIHyFgSArFU/UR5eQ9HjqFY0yAlPuPCAuSwo3Z5D6ua1LwV70LdkmtkP4ewFzDTlbOXvazbsGTbsq7c46dL3El+hHwSJ+c9Gq4hlncBBWOhdvvqANPByvAjjiU1Dj1tIGwYCFc3MpFUnCtH9hAmEDNQiFnI6CqWEnEsqTKOjIVarZXBlp7BaizQ0IaZ3EQxaKBQPYiFjK60XDJuuy6xiNQHA2GvhcwnTs57MUQBWcd7pfVYvDpHeZAdpHb3v9P0Rf/QPsT7al13z1Wqq89pqGaIhlhDpPKZTpNlYepM388g1z/+ATALLTAHLdD+19cr38ES/dCK2lP55Hybk/OeDSAg36s/hOqmNn182O+WhoaeNhD2wp7/dLNcTQ2e8B/oED2McxAiAQaESIABIRJgQIgEGBAiAQaESIABIRJgQIgEGBAiAQaESODp6Ni42z0QPVr8LhaRwP+x7fnYTyjEHAAAAABJRU5ErkJggg==;imageBorder=#0000FF;strokeWidth=2;" vertex="1" parent="1">
          <mxGeometry x="-330" y="856.5" width="200" height="46" as="geometry" />
        </mxCell>
        <mxCell id="Hhsv-AD_tMGytm9ESTO6-152" value="" style="shape=image;verticalLabelPosition=bottom;labelBackgroundColor=default;verticalAlign=top;aspect=fixed;imageAspect=0;image=data:image/png,iVBORw0KGgoAAAANSUhEUgAAAMUAAAAsCAIAAABaEevtAAADj0lEQVR4nO3cMWgaYRQH8Jda0EJz0iHJoha8A0GbQEIGT5J2MzR0PCmlFTxpl0D3iLPoHnCpaMB2KDqK6EGHYtAbgkM0gnAXqDqFDvWcunU4TTQ10V4+iZe+H7eo3333wD937z4PFxafrABChDy46wLQvYJ5QiRhnhBJmCdEEuYJkYR5QiRhnhBJmCdEEuYJkYR5QiRhnhBJD7Xt5vZsuz1b132qdLtipdSo17RWhfTKYHz0+F/3sVht3pevlG7391+MJhMAGE2mpaUVo8nUabdmUDOaX1rOTxbrUwAYewbiXr+1WG1i+cjt2XK6VgFALJduXyXSi5n0T43TE6GQo8xmp2vV7dmexSGICH6uNqViZJqhfPpYkvKxWVeke7Pqxxv12kWkLFYbiSmjefxG557GfvxmTteaovwCgE67ZbHanK61+Wykku82klMOTfk3UzOt5Z4gnKfG6YnFarty60eZzWSPguYW4etdo15LfooLhZxYPlI3ItNGBKkp+WgAmpOaktQUooNP3h9WpaY02C7e59PHI8PUVql6yI9MO9I/8eljqXrIq8dSt6HWCvun6ZDvn5Rut1GvieWSWC41Tk+IzBn2Mg4mIwPIWcbBMA5vCED9jvfZnxkHwzgYxsFkZLuvWU0HASDl38zKYN/pB4hP77kpObsRmHDNotiwtF5VZ4tVFJpTZ0NT0/H6eOQNu3iW6WcLACC0G6n0KJZTzyL7O9kziv2YDg5G7u5PnrMnxgbDEgFBBsr1nL95DzRCv3mKrttBroZG3kt9rytAb/Qvc2FvRqZYTihydjnrDY2Z4yql/i1x+ap53gNq2UGu5P+AbvPEW5YnDwrtZmXaTsvZnfDsK0Kg4zylOueTB0XzHN1TFJqbbtES3Zpu8wTy+dClrY9/8Yy6vAhGBB+tVOIb8YpCc0J0zByINB3l6UqAEoGDSs/uG1oUiObDQ313rMjZlcqBPzkYqd7tj104QKToKE+JgCCD3Xe5zpTyb6prBP3lIt+yGOvf7sWKTY7uifH+AkHKXzwDmsMYzdyChv8vUB9+Egq5iU84UWZz8MNep93Kfv2itUKkJzo6PyEd0PL7Xaf9A2DLzW672QnPoqi/3CndrpbSkA5py1NLfWJuysFCIafhKEiPtPRPCF0H+ydEEuYJkYR5QiRhnhBJmCdEEuYJkYR5QiRhnhBJmCdEEuYJkfTAYDDcdQ3o/vgD29RvN0PKY64AAAAASUVORK5CYII=;imageBorder=#0000FF;strokeWidth=2;" vertex="1" parent="1">
          <mxGeometry x="-603.5" y="651.5" width="202" height="45" as="geometry" />
        </mxCell>
        <mxCell id="Hhsv-AD_tMGytm9ESTO6-153" value="" style="shape=image;verticalLabelPosition=bottom;labelBackgroundColor=default;verticalAlign=top;aspect=fixed;imageAspect=0;image=data:image/png,iVBORw0KGgoAAAANSUhEUgAAAMMAAAAoCAIAAADMntm8AAADJklEQVR4nO3aPWvbQBgH8Celq2UKxR2adrAOBCEdYjJYoS+bE0JGiRKagB3cpV8gCp6FVOhQKHQScSDpUKyxiNbQoU2JPARNoSA4eWjTxc0i+Qt0iGLHr0T2Jamc57fldD5d4M89OummEnfuAUJju3XdE0ATApOE2MAkITYwSYgNTBJiA5OE2MAkITYwSYgNTBJiA5OE2MAkITZuR+qdW1rhksnWn4Hv1+z9wPdZzwrFz9TFv+DmllZmZh/1tpsfPxz//sV0VpdNs6icqunza8Z1z2RyRFiT+sYIAHJLK9XPnwb9Kgh8XLRugmjVrS8umZSevxjSoXbwo3awP95NNIvKYJJlZbxh0KW5iifu7MLjK7gLul64d0NsMKhul02tUikNAAASdSWAekXIbQEAQHHHUUTurF+7PbSx52xmW5c9kyyW+t9Bs6jMn+uHNXQEMViTSjkikIoH4JlEICSMS2H3kCriSUUgRCBEIBUvLbvO7kb4o+KOQzezf83wKjHrvESdnULv8OE+LhzH9K7wP5soMUhSX+qqmOhYhLaWVbvJiZIOAAC6LHIdi1App9sBJ65q3QMVplMQHH09ex2gLOKCNJqYJkmbS4PndNQyKH87CoDPaACgZnioO521zPj+M4B0Ru0aqXzcAE4sfeluRxHFM0mF6dSwy8X7dy8+1tYy0e2Alyh1KbX0cad2Y8UzSeXjxrDLxp+TSMMZ+QwRCHldC3iJHu4Vx5rbTRXPJIHXOCtkbYVns1xY8rxGbyErPp3hekpeh+21jFmHRIof3AUNFJckdUXHyL+zm2nZrbZaNKskJuqV0+fl7bX3dsBLtP30o1YVkfPMztcEAACFXau9CGlzaWg2cPs2ihi8TwIAACNflV1Jdqkcvjcqr8+XNYvKLpVPezRrutD+ImvkM4ZapRKl0mlDYL8m69v9hk5lFZcqrUHws+5oIpwF2Hj56vyRkkjevunZfqPJEqG6jXx0JG5nTtAoIqxJAJBdeDL94GGkGwS+P+TMCZoY0ZKE0CBx2buh/x0mCbGBSUJsYJIQG5gkxAYmCbGBSUJsYJIQG5gkxMY/d6v802s8EsQAAAAASUVORK5CYII=;imageBorder=#0000FF;strokeWidth=2;" vertex="1" parent="1">
          <mxGeometry x="-353" y="537.5" width="215" height="44" as="geometry" />
        </mxCell>
        <mxCell id="Hhsv-AD_tMGytm9ESTO6-154" value="" style="shape=image;verticalLabelPosition=bottom;labelBackgroundColor=default;verticalAlign=top;aspect=fixed;imageAspect=0;image=data:image/png,iVBORw0KGgoAAAANSUhEUgAAAMgAAAArCAYAAAA9iMeyAAAF+0lEQVR4nO2cwUsbWRzHP132mrELW/dQdcEEhMQWGvaQiLYHwSxljxOWshaa4F6EPZuSczD+A55EC2YpizkWqYE9tC4mB0mhRiEwI6xmL+ke6vgH7B4mk0xiHMcajdHfB4Jk8pv3vpm873vv996MdzzffPcfgiC05atuCxCE64wYRBAcEIMIggNiEEFwQAwiCA6IQQTBATGIIDggBhEEB8QgguCAGEQQHBCDCIIDYhBBcODryyg0NDZBaGz8zDjj6IhCfpO90s5lyBCEC9NxgwwMDhEaG8c4Ojo1Runrq/8NhSdQlLsUtjY7LUUQLswlGOR7AMeRQf35FwYGhyhs/UVobBx/4IF5TrdMkt6grN4jnwryYqU7EmCedS0KWR9PEzeprt7mUqZYbtnb/YhhfGbqx5+6b5IrIJ4pMhdSWo4aXTam4ETXk/S90g65t29Q+vrwBx4wMDjUbUmdJ7bKtqYx599lwedjxPbK7ndbnOBEV0cQf+AhhvEZgMrhAQODQ/gDD6kcHnRTVoeZZz0ZhkKakemlE58mp4Jd0CS4pSsG2dv9WE/mW7ES+JtCKhfFa+RZaGMO4frTHYOUduojhqLcrR93szR8ccwE1Vt/r5PNto88mTPoZH0Rkq2B6Q3Kqtd2wMor5nk0DHr2OcvnUNhcb/scpVXbcSHND60mPFVXm0pjq2wnw3hO+Y7xTNGcIgYrqK3Xz4qvlVFtk/ybej+1v37XmK7lIMbREXulHQpbmxS2Ntnb/Xj5lcZW2dai9BfSjTwgC2pTIwKY4VVRq/2g9nzBi6oVeRVrRMYzRcqqFz3biFsofDI/TAfxYlAtu5foVTVmWbTVqRBObpCyxaRyLdpSeQgl2M7MuNPV7rokw3j21xhxbMABZrUgH+rXJE3e8KJqNX0r7ygZ4A3Ot5w3jxpSOC6s9ZQ54Bok6VdJ6pnZCJp62kSEhYLRHJiOElZO9qTJqTR5QyH8rNYAYqvMhhT0lh5zeTry5atSLfqSr/Mc4+VRmnqdkWHQszZtK89ZLBh4QlGzoZ5Hl90cUy+dtSlQStmvyRIvgmvoeIlkZsz3OR2GI02diNVRlP7svWnmLTJIbbpTPNkIlivNPWsq6IX9Ypvebon3ewYMB0kB8ckAHnQ+dHAv4YS+lQpVoH/AHB3ikwE8Rp5sS53md7jH/dh5dJkLCK7MAWDs8v6E8XWqBnj6a6NwooiOwuhkYzQzr+dGTy5l3x6DxAbodxU4w/1v3RXp7VfAqKKfFlCucoxC/4i78lzXqYSZ0zTK9pdtmnimLitOjeJFJ+vGHK55yYd98PifEAecOqZe4PYYpNYTn80S//zrrki9ajgHnDon/3L0qgFG/sR+ivkyE/AzdVllZVtyiAtwXG3YMfk6z7ES4HGM2vSqs6PsVXJ7DFKbCrRrrKlgc5KuVxvTqGZmeOxX6tOv5consBpCW6w5eZT19Gkx5+PsOt3F1PUFz2GSdmXGnjCqQLViyy9W3lEyFEYn53k15e3J5NziFhmk0Vjtqz2kN1CHmyOXpxfbNppULmEm79aUJBGprTK1rmxtNN7XFgG8qtZcL2CuljWfeyaJNXOhoGVli9gq61b5bnTVaSTa9u8bzxQpa63aFMK/rdamTlDPYU7kRGau5vFHGFV6Mzm36OpO+pWTiDDCBmU1QVmr/aL7a4xkoazeswUu8SK4RCqnoWoaqnXYyLPga97TSE750DNF5pIa5aQtbroRszwdZJl51jVbvfYyz5W8nqINnazPtvrlQleDlzz1wboWRdU0HmV9tN0aMvIs5PqZ0zTmrGOnJPjL0xvmfomRb5PY9w53Ov3Pq61nQXJv35zrOQ+lr4/4r7NUDg/I/vF7JyUJHaCxUeh20/Nm3DF8i6ZYwlUSz0R6Ojm36PgUq3L4NzBOKDxBKDzh+jzrHiynB62EXsHaOV/s2eTc4hIMclB/EOpLzs29fdNpScKV0bjPre29YT1Ix3MQQbhJSA4iCA6IQQTBATGIIDggBhEEB8QgguCAGEQQHBCDCIIDYhBBcEAMIggO/A+JR6O/t1pjSQAAAABJRU5ErkJggg==;imageBorder=#0000FF;strokeWidth=2;" vertex="1" parent="1">
          <mxGeometry x="-601.5" y="511.5" width="200" height="43" as="geometry" />
        </mxCell>
        <mxCell id="Hhsv-AD_tMGytm9ESTO6-155" value="" style="shape=image;verticalLabelPosition=bottom;labelBackgroundColor=default;verticalAlign=top;aspect=fixed;imageAspect=0;image=data:image/png,iVBORw0KGgoAAAANSUhEUgAAAMkAAAAtCAYAAAAEE0+RAAAE2ElEQVR4nO3cz0sjZxzH8feWXjO2sLWHqoVMIJDsLmzYQyJaDwuxlB4jZamCEXvZf2AjOQfjP+BlJQraQ0mOIiawh9bF5CAp+CMQmFmo2ovuYR3/gPYwSdb4I8/EOEb0+4KwoDPPfIV8Zp7vMzP7yPP1t/8hhLjSF90uQIi7TkIihIKERAgFCYkQChISIRQkJEIoSEiEUJCQCKEgIRFCQUIihIKERAgFCYkQChISIRS+dGvg8OAw4cEh5XbWyQml4gaV3R23ShGiI66EpK9/gPDgENbJyZXbaD09jX/DkWE07StKmxtulCNER1wKyfcALa8QsV9+pa9/gNLme8KDQwSCT+19bikoqYJBzAtgkvONklTuMcuaMQY5Hz8lnBxhmqVygogGWEXmQhNkLhmvt5TmxfjCNf4CcVtcm245VdnbxrI+Ef3x51sLSqpgEHtcZM53/ot7U2oB+ZjFH5qxfxRfZisZ4chxyMRdcSca98ruDoX1VbSeHgLBp/T1D7h4tFmee+G08qdLAQHiIzzRwCzPuHUEcYu6fiUJBJ9hWZ8AODzYp69/gEDwGYcH+12u7IYtTvBisdtFiOvoWkgqe9uNBv+8elMvxF3QtelWZXeHzNt5CuurlDbfNz5umlopUzXG0AFPOEHVMNhambZ/mc5TNYymz1q61Tift2uMgd3vVJMRPIAeOzNOfJmtFmM6GfuiWdZqY1693zRLZYNqYfbi7g5reui62pNYJydUdncobW5Q2tygsrft6vEy4yH8viwmcFpK4/f5aitL0yxFIefz4a995koWeqzMUrx5jN5omdfMN7bz50w84UTjS5mM+vCnipwCZs7exmmjnioYvAkff64jVYQzY1+ldU0L/FWxwBsidf54ryJ4rCI5WUho6U407t23wGSoeRk4M57HRKPX37yl52O+eck2McpcycITHrvwJWxLfJlRL5i5M3UsTjDvYGxVTfbfojPaFLZbWMC4JyQkZ9WmH/aUxZ6W9fY1n8UvW7HKHB4D3/Bd/MKvHJt6Gbz0rO5kbHVNM/z9ATyBEabqG6RD6Jjk5R6NkoQEqM/tq8kgu6n6lMuelt0WvVcDLcKbc31RNabfyPjJsglakB9qYUuFdPhQdnATVXR9CfguSBXG0C+9K96OY/7tYInXPLLg8V6HNbSoKZGlGE3w5OU0LOo894KZk/s4TsiV5CrpEJedw/XQxVWiVEgH66ijK0/m8LjpTN8OZzXZDbwnMEJqZRRdGnbHJCTUzuJNX9BZ1q6a5njHmpZMp1bKxLxgFjq8AiSyFC2NSDLf3KTHl1lrNNy1aeH55VyHNWXe7XGqBRkNaNKwt0GmW9hLw3rBIJY0qCbBfugxC8YYvee2NXNpjqIG1Vj9JxbFlI/Jju+mLzAZWrCfKzMMGsNjkvO1bq4d17Q4Qf6VQcxrUXwnDbtTj9z4X+Xr75IU1lfbek9E6+lh6rfXHB7sk/vj95su6x5q98nk2sOdZPFHpR9xSqZbD0n9Xow8eNkWV6Zbhwf/AEOEI8OEI8OO96s/s9XqZS1xffU77PPSsLfFpZDsN16mus6+hfVVF6p6uBovmHW8zP0wudKTCHGfSE8ihIKERAgFCYkQChISIRQkJEIoSEiEUJCQCKEgIRFCQUIihIKERAiF/wHnbRUXUALfPQAAAABJRU5ErkJggg==;imageBorder=#0000FF;strokeWidth=2;" vertex="1" parent="1">
          <mxGeometry x="-350" y="385.5" width="201" height="45" as="geometry" />
        </mxCell>
        <mxCell id="Hhsv-AD_tMGytm9ESTO6-156" value="" style="shape=image;verticalLabelPosition=bottom;labelBackgroundColor=default;verticalAlign=top;aspect=fixed;imageAspect=0;image=data:image/png,iVBORw0KGgoAAAANSUhEUgAAAMkAAAAsCAYAAADPT5w0AAADi0lEQVR4nO3dv2sbZxzH8XdKV58JNOpQt1DrqCFphooOUmizFKQQMp4poSpYxl3yD1hBs/AZOnTqJOSAnaHkxmIqQ5emRBqCupSC4E5Dqy5yF13+gHaQHeus2I+KL/KF+7zAwz335Z470MfPD5/RlQ8/uvkvInKmKwtX31VIRM7x1mXfgEjSKSQiBgqJiIFCImKgkIgYKCQiBgqJiIFCImKgkIgYKCQiBgqJiIFCImKgkIgYKCQiBm/HfcHinXtYi4uRtnA0otN+Sjgaxd2dyGsX6/+TFO/c4/rHN8887/3wmMFff8bVXbzcFj3nGu16jrWdy74ZSZJYR5LzAgLjEB389KPxOmE40qgjiRH7dOs81uIizpdfzVTbefYrnWdPX/MdiZglduGev/XZZd+CCJDgkIgkxVynW8mxxb6/SvblcYDnvbpyfa/LZt6aaAnw7BK104Vui56TnWgIJzYBTvcHgWdzt3qRZ5B5Sd9IUtnlub9KpuOyYtvjHw+cyAccYINHXZ/N/CHecZ1t4/WzOH6XR5WTyvW9Lj0nS+Cd1G13Do/OjgMS7S+Y19NKDFIXkvr9Agv9J3xabpw0Vktsd8JoobtKwZoeNWpFl3ZoUbi/NW6o7PIgb02NDM1yaTyKVJbIEPL7z9H+NIq8OVIWki0+WYag+3DqTHNwGDmu57LQ705Pq2jwyx8hLOeoA+tf3GCBgN/O+tDvDBhiUai1qMfwBDJ/6QpJZYnMTIUbvPfObJfMZiwIh5w9gXrIXdulHWZxfJ+e77PvznZtSYZ0hWRnwHCmwgZ//zPbJYNhaC6iwVrueK0SknV8nu9tzNaBXLp0hYSAYQjZ3NbUmXouunAPhidTqqgNbl+3Xk7FmoNDsG5wuzJV+ErNcg6vDwuZ0xsFklQpC0mDtYMAllejv8ndFs5ytLJZ/v5oihRdS9QPquMFffFoXVMt4fUtCrXTO16t8XFll/3IqDFeF70YaofrTZG+v5NUS6zQoudU6flHq+3+E1Y86DnXJgobrOUa1A98HN/HOW4O22zbX9OcqKwVbYK9Lps1n15toq4MVCCTn+gLeNFxo7trkmixvgW8/s2DqdfkL+K7b6enRSLzFut0K87X4BP7Sr2kTuzfT5K/9TlL739woWuEo9FMr9SLzIO+xEfEIGW7WyL/n0IiYqCQiBgoJCIGComIgUIiYqCQiBgoJCIGComIwX+6cAsETKXVEQAAAABJRU5ErkJggg==;imageBorder=#0000FF;strokeWidth=2;" vertex="1" parent="1">
          <mxGeometry x="-601.5" y="359.5" width="201" height="44" as="geometry" />
        </mxCell>
        <mxCell id="Hhsv-AD_tMGytm9ESTO6-157" value="" style="shape=image;verticalLabelPosition=bottom;labelBackgroundColor=default;verticalAlign=top;aspect=fixed;imageAspect=0;image=data:image/png,iVBORw0KGgoAAAANSUhEUgAAALYAAAAvCAYAAABOmTCPAAAEgElEQVR4nO3awWsiZxjH8e+WXjWUdtND0x6cAaFJD5FA11LaQ8Esyx5HSmkWYshpIecYPIvmvJCTmECyLIsel7B6K1vWHMReQkF49bBrLyY9OP4B7WEmxjEmGjUb8+7zuY3zvm+e4G9e33ln7vk++/I/hNDMJ7ddgBA3QYIttCTBFlqSYAstSbCFliTYQksSbKElCbbQkgRbaEmCLbQkwRZakmALLUmwhZY+HXeAyMPH+GdmPJ/ZrRZHpTfYrda4wwsxknvjvLYaefiYbxe+u/R8/uVzGu/fjTq8ECMba8a+KtTgBL/4+tXAcWy7JbO7mKixlyJX8c/MYP36+1Btj97+ydHbNzdZjviITM3N44Mffhy579pBhWpln7UJ1nPXJIuKajF122VMjakJthCTJMEWWrrRNfaHUFYKHwBhNpViE5tSMsTqbopDFYW8yV8hhRUA6jmCkS1IF6hahmecWt7kUfzs6Lxvfq7C5gO/+/nZ2Of91g66zwN2ie3QE7I4ywOLHMEXc5QTYbdOb5tz6+xV4oS7hurUeya2Tzkxz3FyBzactu2Tf/Hd/9xtEKWqokCNvLlMYkB9OrvzM/aSabJ9ZDtfmGkSNL3Bm41UWKyYBE3TDck6exHIm+5nbn/DqrAX845tWIqn7HTa5et+wokCSfe8E5qTrrHSlE57CvximfIG7HTa5Kj5w2x23xPE9imrOOHTXOdvBc0ctUC0773DwsZTeOa0Wwp/79aGcyGYJkFPqAfUp6k7H+xBfKeFrpkYIMNqyPniz2RXCtTwMxvs6VzPsbSS6RwmXpRoY7CYdo6NWT/UK11jZViN9MyG/hMKnhlyi0fJEm1/GMsdJ/lbGF/v7NynnTsg/L3juXgvM1R9mtI+2O1mrf+J2D5lpagqRVVFMYDZuXVPk1ply9tnt0Gzq12taUMgSvnA28/DE6x+46RYDPT5WwC7f3BsgxHy7nY0G5mLbfsYqj5NaR/siyFIcagU1cQ8x8mun/0Rxs6uhAjma/gexJ0LZJQtx9gcs9fqYNOsfsD67ijtg90rWYxi2CW2e9biI4sve9fO6nwNPkizkenM3jdmjPruso8u2H2lQxiDWw3grom5z1fdN6GB0MUgpUMYnZm3RrPPcgOA2M8s+C9ZpkyqPk1pEexs4wT88/w0xBdWa9o9bVMcWqPFOln0zn5rv8zj44R/PL8EBlb3E8HYPmXLgHrB/cXIsPqsRDsQ7XlymOIw4dxUem9+r/i/ei6i4erT01j72HardeGV1VsRz1GKxAknFNXExb3mbtmVEEZRYSUU1QQ4e745UNFrrnUBDCylsDrH5/vHHfUc281ld3/Z0T5KE+zabWH3CUvuvvuV7a6QXSlgqahbj1PHUPVp6kZfW72Oxvt35F8+n8hY06LzgCYyiaWEuI6xZuzi61fYdou5r78Zqwi71Rrq9VYhhjX2I3V51VRMIy1uHoXoNdYaW4hpJTO20JIEW2hJgi20JMEWWpJgCy1JsIWWJNhCSxJsoSUJttCSBFtoSYIttCTBFlr6H3qsxnldA2BJAAAAAElFTkSuQmCC;imageBorder=#009900;strokeWidth=2;" vertex="1" parent="1">
          <mxGeometry x="110" y="323" width="182" height="47" as="geometry" />
        </mxCell>
        <mxCell id="Hhsv-AD_tMGytm9ESTO6-158" value="" style="shape=image;verticalLabelPosition=bottom;labelBackgroundColor=default;verticalAlign=top;aspect=fixed;imageAspect=0;image=data:image/png,iVBORw0KGgoAAAANSUhEUgAAALUAAAAtCAYAAADoZiqHAAAC7ElEQVR4nO3av2saYRgH8G9KV086aIeaDo0ghHSRDjG0ZCiYUDKedGgDUfwfYnCW2LlrUMGEEnJjCTVjU3IOYpd2ODgdEic73fkHtIOxiUd+mTsT78n3Azf43vs+vMOXl8eXmwo8efoXRII8uu8NEHmNoSZxGGoSh6EmcRhqEoehJnEYahKHoSZxGGoSh6EmcRhqEoehJnEeuy2QXF6BEgwOjdmWhbp+CNuy3JYnGtmUm6/0kssrmJ17eel7bXcHnZPj25YnuhVX7cdVgQb6oY9MP7/2cZ70XspsN2E0q8h4VcusoTAYSFfRME3sFz0oTp5x3X5cRQkGob7/cKO59aMfqB8djnM79EBMzB/F+YXX970FEmJiQk3kFYaaxBlrT31nijUY6sy5gRa06BLyQ5M2sW+m8H9Wew+x5MZwnXQVjXwCgcFvW8en+CpK49k1jYn/T+piDYYagl6IIhbtP1rbMUdJYN2M4+fp+1hBR+9FCo3t7HCdfAJdbVCnCB0JrHt0c0J3x/ehzkRCgP0b38tnY/mk85S2oRfOjZVXUWsDgdnF08BmUUnOAO09vMsNJm1h7bOOnpKAyis7X/F9qEudP/2T+GDz8kmO0ANAq2sDSrjfjqQXMafY0L842pFyB10A4UgW5B/+76lzS4gZVTTyKRhmChf309eIhRGAgkTehHHBwp5HW6W74f9QA0B5Fa/KAJBFpZmDajbxrBDHWvm6haeMLnoI4dcoa2hi+b79GLaFtfgeWlAQjo2wrNxBFwrm3rLNkMD3oc5s11BJnxsoxjEDG11jlCob0Oo2AvM5x3ccWVQOePvhN67aD9uyxvox0s2EHL2wDf0WbUTpYxylYg2GasJQz8ZbWpT31D4z1k9PR9E5OYa2u+NJLXrYXIUaAOYX3iAy/dzVJmzLwsG3r65qEA24DjXRpPH9H0UiJ4aaxGGoSRyGmsRhqEkchprEYahJHIaaxGGoSRyGmsRhqEkchprEYahJnH+peMcsb2/aWwAAAABJRU5ErkJggg==;imageBorder=#009900;strokeWidth=2;" vertex="1" parent="1">
          <mxGeometry x="123" y="493" width="181" height="45" as="geometry" />
        </mxCell>
        <mxCell id="Hhsv-AD_tMGytm9ESTO6-159" value="" style="shape=image;verticalLabelPosition=bottom;labelBackgroundColor=default;verticalAlign=top;aspect=fixed;imageAspect=0;image=data:image/png,iVBORw0KGgoAAAANSUhEUgAAALQAAAAvCAYAAABKbOCyAAAEZElEQVR4nO3dwUsjZxjH8e+WvWbcvdiLWnACQuIuOPQwCboeBLOUPY6U0i5o8FTY80ZyDknPhZ5EBYU9mOMiu4E9WIvJYRlhjYFARqh6sqdM/oD2kE5MYtTJdmKWt88HBsk478x7+OWd531nxAehx1//jRCK+GrYHRAiSBJooRQJtFCKBFooRQItlCKBFkqRQAulSKCFUiTQQikSaKEUCbRQigRaKEUCLZTyMMiTmfE5zPjsnce59Tql4gGV8nGQlxciuECPjU9gxmdx6/Ubj9FGRlo/zdgcmvaI0uFBUF0QIshAfwNw68hrff8jY+MTlA7/wIzPEok+abaRUIuADKWGrpx8ovDuLdrICJHoE8z43DC6IRQ0tElhpXzcEeqx8YnAzp0p1KjWauzlev8+uWNTrdWubZ3Hr7Jl16gWsoH1SwzeUAIdiT4lMt0sNy7Oz/4N9dOAzp5lZtKl4YJu3BZGh3w4zJS35R10q8bHndWA+iGG4V4DXTn5BIAZn2Xx+QsWn79ojczehPE/yxno7gm/FRyYNMj4bZdKkD+FUGSeZDA9EUMQ6LLdXSrlYy7Ozxgbn0DTHrX2+1nq82eVrUWdRmWXjZSOZS0xkwNS/lqnbQfLGkUPqDfi/t17yeHW61TKx5QODygdHrRG7UCszDOtuZQ/rANrHJ2Cvrg9sBE3uWNTtbdJkmWvox5/f3VnyL2nWrPZWrnePlOoUbW3B9S7/yelnhQmF6KE3BN+32x+TtsOaFGe9QhTLxlDB/cSp6+rRvm5ZnDUqsdzFF0dywt1ysZBY3qhqzZf2SYxCU7hZV9XE7dTKNCrPItoNCr7bHi7bgpTD8kdG2vSpfjry6v2fmhQziRIt3ass2zs4qCT2FkF1siXXELmUkc9n1yIEsLhyGc5JPxRJ9C5JWKtcsPTLDt6T/R0rLYy4bX5F/mwwfJmn9dtuyNccbh0ITTarMY3PpzQQG/W80Dry1fabfsiiCDc66RwkDJGMzyxdI3qtZTEsHKw0TEaOuTDifsJ1OY+5VcxYkYWWOuq9UWQFBmhs8xMQqOUu1pXbm27ONy1Jj0YjUuvGl9nuW0ZsbvWF8FRI9A5A52bRrxmDdvXmnQ/ek06V+aZ1uDyoq0/KRsHnZlcFsvUcAp91urCFyUCvbWo31DLNl2vYT9P85F59xKcRuxV+9Jglr10jJBbJN9R4njLiAlGZTI4MEoEelqjc3Wj2+Y+ZXdAa9JukV8Ko7xuTTCX0E93mTKuj8DpN0Uamkbo1JbJ4IAoMSn8Nhy+44h1lo222/9Pho/bfVcbYOOmdqkEU75HXJfimzW/B4s+BRboi/M/gVnM2BxmzP/roN47HLf9YYAqMj80SxGZDA5OgIE+a724/zltC+/eBtWVL5P3ZDAvk8FBCrTk8N7PEG1WtvmYjhECnHyY72QyOFAP5F9SCJUoscohhEcCLZQigRZKkUALpUighVIk0EIpEmihFAm0UIoEWihFAi2UIoEWSvkH6UaLwEB/FX0AAAAASUVORK5CYII=;imageBorder=#009900;strokeWidth=2;" vertex="1" parent="1">
          <mxGeometry x="121.5" y="700" width="180" height="47" as="geometry" />
        </mxCell>
        <mxCell id="Hhsv-AD_tMGytm9ESTO6-160" value="" style="shape=image;verticalLabelPosition=bottom;labelBackgroundColor=default;verticalAlign=top;aspect=fixed;imageAspect=0;image=data:image/png,iVBORw0KGgoAAAANSUhEUgAAALYAAAAuCAYAAACFxeMqAAAEWUlEQVR4nO3dwUsjZxjH8e+WXjNuL/aiFpyAYNwFQw8T0d3DgoE9R0qpghFPC3tuJOdg/Ad6krgQYQ/JcZE1sIfWYnKQCBoDQiZQ9ZRbJn9Ae8hMmmRGTdbR0LfPB4IwmXnnVX7zzvO+k+CzwHff/40Qivlm1B0Q4jFIsIWSJNhCSRJsoSQJtlCSBFsoSYItlCTBFkqSYAslSbCFkiTYQkkSbKGkb/1szFhYwlhYvHc/q9mkVDyiWjn38/RCdPgW7InJKYyFRaxm89Z9tLGxzk8jsoSmPad0fORXF4To8DHYPwDcORLHfvqFickpSsd/YiwsMht60T5Gwi18NpIau3pxRuHzJ7SxMWZDLzAWlkbRjeHEs5zUynyIj7ojYhAjmzxWK+c94Z6YnBpVV4SCRhLs2dBLZufaZcjN9ZUd7pej6IqnVKHGZWF71N0QD+Drqsh9qhdnnUlmP2diKYQfnjbYlXNurq+YmJxC0553tg+yRCjEMJ68FLGaTaqVc0rHR5SOj6henPnTcPqQy1qt53WQ7n/fY/IXz3Li7Gu3EZsGplfsdg5J9R2SKnSfx/1+t439MpflLBtsc1C75bjb+uacq5wd7m8hVHnyuMmHZcgHg8zYr52ShR4bchUjEWUmGCRfB+o5u60oyc4OGpFkjfmyc540RUsnVs6ycWfDId7VwpwG+45zwp0oY6Ix92az97B4lug0mIW1IX4JAcoEe5f1cHcAIbN6iInG+Iy/Z2qV0rxNdJ23YIIW4tVdF5AGlVR3/3ZZD+cw0YnubwJb5EsWAWOlZ/TfeBMigMlpwtWiuIciwbbZZUX7Vr+CDoxPbN572OAsKl92ezddNmjddwFZF/yx17/RpGFBYFwHIPPlghY6853yaZNXsxqtUq7nghWDUSTYdv2aDFFJObf7HOaouzWMvd+pWKCH7WXG+GvmNI8LSQxEiWCnCivoVpGdYJh118hou2zQetJeDabVcC4/u6yZDpPCLkM8R3oxCCWC7SkdRndtdJcM7Tr2kXnV4PHXzGnQuOkakRNlTHTm09vEDA2zsEbmsfumKCWCbTasvvBscxDri7Vzq491LbPFs7wzNO/27JFzWBv7ZY+lO43I++6Vk20OkhECVpF8z8Rwi9M66MtRxmXS+CBKBDuzGiZfby/FtSeOYU5dNfa/KxExZ4L5Hn5LFV0lSntFxdnv7nXqgVhFdgrj/No9sa3nmAm7R+TkxyItTSNQL8uk8QGe9MnjY0ouB91BCG71bdjirWsbZFx1rMd+e2v86FXv9m3PrIa9y4dElJmBR2CL4kd3P8XgfAv2zfVfwCJGZAkjMvjHUJ3PiNz1BYX/k9TP7RJFJo0P42OwrzpfIPiaYwufP/nVlf8u50ljXiaND+VrKeJ8/kMMKZ7lJBkhAJj5YNeTTfG1nsl/NBAqUmJVRIh+EmyhJAm2UJIEWyhJgi2UJMEWSpJgCyVJsIWSJNhCSRJsoSQJtlDSP+/Dnvhuu+RtAAAAAElFTkSuQmCC;imageBorder=#009900;strokeWidth=2;" vertex="1" parent="1">
          <mxGeometry x="122" y="870" width="182" height="46" as="geometry" />
        </mxCell>
        <mxCell id="Hhsv-AD_tMGytm9ESTO6-161" value="" style="shape=image;verticalLabelPosition=bottom;labelBackgroundColor=default;verticalAlign=top;aspect=fixed;imageAspect=0;image=data:image/png,iVBORw0KGgoAAAANSUhEUgAAALMAAAArCAYAAAAzIbndAAAFHklEQVR4nO2cwUsbWRzHP132mrEL2+5h1YUkICS2sKGHRHR7EAzsObKUVajBvRR6NiXnIel5oSeJgtnD4hyLmEAPrYuTQ5lC1UBgRlhNL9qL4x+we5jMNNGkUXds1jfvAyIz771538h3Xn6/33t4K/TNd/8gkQjAV4MWIJH4hTSzRBikmSXCIM0sEQZpZokwSDNLhEGaWSIM0swSYZBmlgiDNLNEGKSZJcLwtZ8PS05MkZyY7NvPPjmhpm9R393xc3pJwPHNzMMjoyQnJrFPTnr2UYaGvN/J1BSKcpva9pZfEiQBx0cz/wDw2RU388uvDI+MUtv+i+TEJLH4PWeMNLTEBwYSM9f33lPdfIkyNEQsfo/kxNQgZPjAIquGScM0aRhrZActJ+AMLAGs7+50GHp4ZHRQUq7IIqtGjtTHdcaiUcYS85QW1nhrmmwUB60tmAzEzLH4fWLjTojRPDxoGfr+IKRcnYWHjCtgGc8GrUTSwtdqRj/qe++9RPEsbnJ4o1mZ58HKoEUEly9r5t0dmocHDI+Moii3vfsXKedJJP344mGGfXJCfXeH2vYWte0t6nvv/Xt4seIkY96PwerCJdoBtWrSqBagFf+6fd+WFzv75FOEgEjGad8o4o05GzNny0bHvG/LBSdxrBZ6fJACG63nnB/r6ljs/YyWjqAhzA5gtmzQyESwtKiTkEWjPK8de+1q1aSRuYOutrdDKt8lYQvP0ngKL1r9xjSLUDLn9cvPRBlTdU7Bm+/nXHddatVkKXmM5j4rWmQ3NktK6f+Z7s4YPOGFp9fV4Rh6mTd1G8IJ1LNzPkoRsvUL/uXEQQwzL6zxJKlgaZ2mKs2lebzitKfDNrqacK699gTaPkRmzpbVLLTEPCX3MreObkMk0Wsl7a3LmTdN3ru5zOPEOtYFhoc+Vngwt/zpRi7N85pNKDmLCpTmKlhESLd9a0CBH8NwWn99Oa0CIISZs9NxQli867E6ZqfjhOw93nRJzvKGBUqcn9rDjX2jzXwAy3z4CHw7fKlasqPrmA/n5rU4svuP71YpKTWPgTt8vwDwjHf7EIo9/KSrmCCCRaX9JQgIQpg5clcB+6jnahe5e4Hv9Gugny4/OPsyqolIl5cxGAhhZqvPMtev/ebRttrn1tFthfHpRdwQI6i1byHMXGoenw8VLtiuJiLQIwT5r3QNYcDbcOlHtxjd0du+2juJYCj2ELWcJmLraD3CLdERwszk0mj7Cql8Z6ktW6441z3bDTJhG/33tmTPV13OqpnKV9oqDousPnXKep9wSnHnymzh2Y5Ki6MXrGqn3tKrPU6VOOmYwmn99fV8lhvAF900uU7yM1GsssFS3qThBoy2zvO5z7RjoUXT1xhfLvM4AatGjoxpknFEoatF9Kc5Un1GW1qRoxmTRsa9Y6Or0Y6KDAAr81Qemc6L+Sp4iZ/LLb/+caJ7ML+6+fJSh+6VoSGyvz2heXiA9ucffki5ATiHlMbrxc7Sm0eBDXMWtN7167OoVZMM64zNBDNeBh9X5ubh38AkydQUydTFj3S6ZzI+d6hfOFox81HTp1V0YY10GCwtuEYGX8184B26v8rY6uZLv6T8jyiwYQx3bsBQYCOfIrS/zgOfEjV3x+9FQBM/F19jZve8hcTF4ohZlkyTpba7p7UiYz5saqhVk0wYJzdIXFMSe4PwLWaWSAaNGKU5iQRpZolASDNLhEGaWSIM0swSYZBmlgiDNLNEGKSZJcIgzSwRhn8BZGIYOZWT4ZoAAAAASUVORK5CYII=;imageBorder=#009900;strokeWidth=2;" vertex="1" parent="1">
          <mxGeometry x="122" y="1030" width="179" height="43" as="geometry" />
        </mxCell>
        <mxCell id="Hhsv-AD_tMGytm9ESTO6-162" value="" style="shape=image;verticalLabelPosition=bottom;labelBackgroundColor=default;verticalAlign=top;aspect=fixed;imageAspect=0;image=data:image/png,iVBORw0KGgoAAAANSUhEUgAAALUAAAAtCAYAAADoZiqHAAAEQElEQVR4nO3dz0sbaRzH8XeXveaxvWQv6oIJCMYWDB4mou2hsAHPlmVZBSOeCj03knOI/gN7krgQoQdzLFIDPexaTA4SQWMgMBFWc3JPGf+A3cOY3zGJ6Zjg4/cFQR3mmXmUj0++z/OM+Mz14qf/EEIjPwy7A0I4TUIttCOhFtqRUAvtSKiFdiTUQjsSaqEdCbXQjoRaaEdCLbQjoRbakVAL7fzo1IWMuQWMufmu51nlMpn0IfncmVO3FqKBI6EeHRvHmJvHKpfvPEeNjFQ/GoEFlHpO5ujQidsL0cChUP8M0HEEXvr1d0bHxskcfcOYm2fK99JuI8EWDht4TZ0/PyX15TNqZIQp30uMuYVBd6GLGPumyfHu+rA7Ivo0lIliPnfWEOzRsfFhdMMWSnBsmuxvDq8LwlkDD/WU7xVT03bpUbq6vA32q4Hce203SyGbYG0gdxPD4tjqRzf589PqhLJZZRI5FDsrzO4M7/bCeYMLde6M0tUlo2PjKPW8eryXZUAh7mOg5YdVLpPPnZE5OiRzdEj+/PT7L7p5QMHM8meo6Xh9rXz7+UdDgQrw0TRrbXqqqe3JY6Huddf5tRKnuc0B0W59BqIpk0I2cc8fgqj3NHYUd1aY9XrZylhgpdnyepn0+lntqeyIsW++w53ZZNLrtV/JYpc2Pt6bfk4q53s3SVselirBDmcpoph+27TCEkoQnIBiaqWvb1PYnkaov0doFDcWua/btWPhIIvhDm0U5KJBItUD26z69yjiIbi7DmyQzFi4jHe10RtYe+vDRZGTTtcWXUmou9kpcY0iEDloCGBH1jl/t7wLFLm2wOX2ABD/es4NHmaqZcw6r6cUN5m9ul8G0Q8JdVcbLFbLh8719L3s/EXOAo8/Zn8desO0anpHEH15/KEuXHPz4DfZZtVv18dbGQvPUv87jjfXlXp8m9VUESb8RLktPdqO8OK+Hn+oAVC4JxuP2PWp8+LLfpIXtTKifXd8vG5ZjXnDtILrUn1tnqWIh5nNGEuGophaIf4AfX5qHn+oK2/jS3U1byjBe0O1nBov/ds+cJ2EEuw3jMoxZiZqI+7abrbN8pwi8KF+5zLGfiSAy0qTbJgEbnByAZ5fgrhlguiYxx/qupWFSs1b+AB/RNOtZUl4j7SlCETMO9eJ23Eb4br1Znt5b3a5Q+1rpdlKuW/Xw+02nos9Jv2tI3HkU5obpXBdZGWC6JCB7Sg+rA0WvRstR+Mt9ek2q/7mMDZvkzddq8s2enzZ375kCAeZ7HnktUh/au2/6I8joS5d/QPMYwQWMAK9P0paeeaj0x8X6C76m12WyATROQ6F+rL68H8/bVNfPjvRjcensoOYlAmikxwrPyrPc4gehBIcRwK4gGLS23l3UtzbM/lPAkI3Gqx+CNFIQi20I6EW2pFQC+1IqIV2JNRCOxJqoR0JtdCOhFpoR0IttPM/o/yMZzAhHlYAAAAASUVORK5CYII=;imageBorder=#009900;strokeWidth=2;" vertex="1" parent="1">
          <mxGeometry x="120" y="1180" width="181" height="45" as="geometry" />
        </mxCell>
        <mxCell id="Hhsv-AD_tMGytm9ESTO6-163" value="" style="shape=image;verticalLabelPosition=bottom;labelBackgroundColor=default;verticalAlign=top;aspect=fixed;imageAspect=0;image=data:image/png,iVBORw0KGgoAAAANSUhEUgAAALUAAAAtCAYAAADoZiqHAAAES0lEQVR4nO2aTWsbVxSGn5RuPabgqou4XVgDgjpdeMhCKqWbgBVMlmNKqQ2W8Sp/wDZaC8vrQlZGMsihBM8yiNiQTVIyWojxJi0IZrxI1I3cjcY/oF3oazRSHOvDX1fnAS9059z3Hot3zpw7uvemvvrmPwRBIb646QQEYdyIqQXlEFMLyiGmFpRDTC0oh5haUA4xtaAcYmpBOcTUgnKIqQXlEFMLyiGmFpTjy1EFFh8/QZue7hrz63VK9lv8en1UeUEYmHujnNJbfPyE7x/88Mnr1ovnVD9+GFZeEIZipEp9kaGhYfrjVy8/q+P7danqwtgYuf24CG16GvOX3y4VW3r3J6V3b68yHWFCuDUbxfiPP910CoIi3BpTC8K4EFMLynGlPfX1sEPRXQZL58RwMeeaw77NrrFKLntExYy2oz1LZ2krMD10vTemo2/NOmzGtdYC2BmDtfwgWg0yx4E8Ac86BHOZSCnLw5W99vj6QXA9OA9dzxy7mBwSc4zmuh6WniTdzDmYSb88VEWZSh01XRYcnZiuE8vYnGsJnjoOlcUau3pjfLfkEzUd9lOtWRvsL4LVvN4/pqP/lGftOOtUI5E+IsMgWhvsOy7mjN3OKaY3DN19KzQMuxk/6+hlbIhvUT7Y6A6cSVI2nKZWx9CRUradR8zyxvdF3wGUMTWnh51KlF/l6BSmNLB/XyXXHM6tHOGh8eBRyxh7rBlJ0gGZVkwk1qsfrJLpP2zOibKQbY1cQiu7TELzsIxOTrDNUsbmPLhWqkByDjwroJdf5VnJZyq+HLiRAO2Mo8XtwNxZIvi8f93Jla3kxFRpUMjUnrPd/bnmA2f8k+8f30WqQNl1qbguleZjOzLbXRHD+uSr1PrEXaSVMaLg1+ipm02tFuuP5pnybayQEXPVM+Br7gefImG9fJUa4afIZKGMqYdjh6LrUknP8z7TaQeGe1h/TmuD+zPAv9VAle5PNKKBlmCzfXM0/8xwk9JPb5slPYvtRzGb84rZ3mkqo8BGcXgyx8tEWxvKW6Tl1XyY+WsErT3WjEb7sX7gsGm6lGe7N5kqM+GVug9Zo2fTNh6tPd787cOc0dsWhNbMVc9Am+fnVDhwcHIrBtYpTEXG9l/deiba1F7ND5lnh2K/R/yYtBobxyimU2CdT8exdYjt9+mLUwWK4bcfYXpidliYg/Pa5LwBGcnUd/0QUqOKaSTSrb7V4GTInvpyWtss6Yd4Xf1yv7g91gwd67TTF1dcl0o6wsklWohIfCvQi/e+/1adKz16OgjVjx+wXjwfi9bdo/MDzyS9ersqRtooHr96ie/Xmf32u5GS8Ov1Sx1RVZasQRQfu3LTiajBSJVaGJBUgfKvVR52/VhSoJxOwIS1CFeJmPpa6T2TAZN1LuM6EFMLyjHRr/QENRFTC8ohphaUQ0wtKIeYWlAOMbWgHGJqQTnE1IJyiKkF5RBTC8ohphaU439UuNYhlhXY6gAAAABJRU5ErkJggg==;imageBorder=#009900;strokeWidth=2;" vertex="1" parent="1">
          <mxGeometry x="-149" y="1161" width="181" height="45" as="geometry" />
        </mxCell>
        <mxCell id="Hhsv-AD_tMGytm9ESTO6-164" value="" style="shape=image;verticalLabelPosition=bottom;labelBackgroundColor=default;verticalAlign=top;aspect=fixed;imageAspect=0;image=data:image/png,iVBORw0KGgoAAAANSUhEUgAAALUAAAAwCAYAAABXLjvCAAAFNElEQVR4nO3cz2siZxgH8O+WXh230NqLScERBM0urPQwhmR7CETIeaSUZiFKegnseV3mLJpzYU8hBmIJRY8hRKGH3ZSMhzALGyMIM0IT92JyyeQPaA/j6Iy/YpJZU1+fD4Sg77wzr/LNO8+8jnni+ub7f0EIQ7567AEQ4jQKNWEOhZowh0JNmEOhJsyhUBPmUKgJcyjUhDkUasIcCjVhDoWaMIdCTZjztVM7EuYXIcwv3Lqdfn2NsnyEauXUqUMTYuNIqL0zsxDmF6BfXw/chnO727+FyCI47inKx0dOHJ4QG4dC/QMADJ2BxZ9/hXdmFuXjvyHMLyAYemb0oWATh429pq6efULpcB+c241g6BmE+cVxD4Ew7lEuFKuVU1uwvTOzjzEMwqixhzoYeo7gnFF6NC7OW8F+Pu5hfFGpkopaKf3Yw5hajq1+3KZ69ql9QdnNvIgkxAnjC3XlFI2Lc3hnZsFxT9vPj7IMSMhdjC3UgLFGXb3urI5wbrdzoc4UURN569Egp8JYy47YDqNsEJFHYM+LEykCV+v5m3IGP65uWfqmcaDGYN2bVvBjBdZjxFBTYwA0FPxRSFjHjpJEhOv06d1vS3wXJ1IIlVQYn39RIfq6jpM0t4mgaT62SOQUvBEuEfBHB75dLGPiE8VETkFN5KEV/Aj4jZ/N8mW7PVVSURO/g5yytgMRScVBpmtnvhhqr4F3re0CBQ0uIWnZzgi0p5xp7ytQ0IymZBQBvx+FOoB6vtVuCfRVvtMnJaN5y+uae63ihWIdsw5ebI05+x4VHeDD3bV7GqLA4aacv+/bOfEmP9TxXWwIXGcGa9lejRqzcHwXUV/vrLy9GkahDvDLu0jYdqihEH6FbfNhMg/ZGp64Fx7oqPxlmWGT0Z7Z0o6HhwM05W3nqewrrPSbpds4oJrpek3WMW9hraQBvih24pZumTD47vFNmYkPdWIpBBc0fBwQqsRSCC79DB+yvW2SogFcCC+toagrkGxbbeHzFYBvvUb4sw00wSEiFZEaeZQamjrAi4o9gEP1D6bW1AHOY5Q+SQUaOMwtrbfbU2EeqBdtf8DTZuJDzXs4QG9CG9buqLdY8Wcg6zxEVUVN7VPC9NjCWtiPQp1DRDL6nOTWb+s00lg+1gFX8KfW2SaNF76uM8IUmvhQa039Qe33Y4TUWueOElJp2V6n33st2/JHLO3JuDHPNpkw+CFnrWkx8aHeblz2lhAjtqfCPDCgNBn5+K061+Xhb9/YlIxis6x3Spq+7GWFYR0vgxxw1ejU/Nn3qOgc5pbS2FnmcVPOd5VP02fiQ41ktHVat9eriVzReDywXYHo0yH/brkoHEV8Fwe2Wdk45d80OwWQ1tQBX9hSc6dxYJuVu8KZKfYtY1zChm3MqVISEU6HvGctL7bwoarDFYxijpvuC0TTWNepvxRp2Q8tp+CNpKJmTlO6jM3VIe3t9eO78whJ1NTOOb57vXl7tQhRjUFUVYjQUPArxlKhGuvspJ5HYHlY7atDThXhGWHM5vF4XX7QWYcVT5z4r6fmFwRKh/t3uvmfc7uR+G0DjYtzFP7846HDYIflw5fRVjGMtXP0+SBmGjkyUzcu/gGwACGyCCEy+q2k5j0fw75cQG6XyEXBQ0OBAg3AsVCft2/+v0/f0uG+E8OYUuYniO+m/gLR5FhNXT4+om+xjFXn/pOB95BMKUdqakL+TyZ/SY+QLhRqwhwKNWEOhZowh0JNmEOhJsyhUBPmUKgJcyjUhDkUasIcCjVhDoWaMIdCTZjzH7tNAdi8HqdRAAAAAElFTkSuQmCC;imageBorder=#009900;strokeWidth=2;" vertex="1" parent="1">
          <mxGeometry x="-172.25" y="1240" width="181" height="48" as="geometry" />
        </mxCell>
        <mxCell id="Hhsv-AD_tMGytm9ESTO6-165" value="Architecture of the SoftLayer-Python project&lt;br&gt;v6.1.7 (2023-05-19)" style="rounded=0;whiteSpace=wrap;html=1;align=left;verticalAlign=top;" vertex="1" parent="1">
          <mxGeometry x="-580.5" y="1188.62" width="264" height="46.75" as="geometry" />
        </mxCell>
      </root>
    </mxGraphModel>
  </diagram>
</mxfile>
